<svg id="svg" version="1.1" xmlns="http://www.w3.org/2000/svg" xmlns:xlink="http://www.w3.org/1999/xlink" width="400" height="400" viewBox="0, 0, 400,400"><g id="svgg"><path id="path0" d="M194.613 277.179 C 194.470 277.410,193.384 277.600,192.200 277.600 C 191.016 277.600,189.936 277.780,189.800 278.000 C 189.664 278.220,189.156 278.400,188.671 278.400 C 188.186 278.400,186.846 278.760,185.694 279.200 C 184.542 279.640,182.673 280.354,181.539 280.788 C 180.406 281.221,178.831 282.019,178.039 282.561 C 177.248 283.103,176.105 283.767,175.500 284.037 C 174.895 284.307,174.400 284.667,174.400 284.837 C 174.400 285.007,174.031 285.263,173.581 285.406 C 171.948 285.924,161.200 297.376,161.200 298.598 C 161.200 298.740,160.660 299.641,160.000 300.600 C 159.340 301.559,158.800 302.531,158.800 302.760 C 158.800 302.989,158.352 304.156,157.804 305.354 C 155.065 311.341,153.736 322.834,154.954 330.000 C 155.446 332.898,156.454 336.967,156.788 337.400 C 156.957 337.620,157.319 338.492,157.592 339.339 C 160.502 348.368,169.907 358.566,179.959 363.592 C 189.116 368.170,200.316 369.397,210.677 366.958 C 215.637 365.789,221.982 363.013,225.200 360.602 C 226.190 359.860,227.190 359.241,227.423 359.227 C 227.940 359.194,235.736 351.195,237.400 348.990 C 238.870 347.042,242.800 339.290,242.800 338.338 C 242.800 337.958,242.958 337.549,243.152 337.430 C 243.345 337.310,243.809 335.815,244.182 334.106 C 244.556 332.398,245.028 330.245,245.231 329.323 C 245.734 327.036,245.697 318.545,245.172 315.931 C 244.937 314.759,244.470 312.450,244.135 310.800 C 243.799 309.150,243.002 306.785,242.363 305.544 C 241.723 304.303,241.200 303.100,241.200 302.871 C 241.200 302.478,239.946 300.257,237.659 296.600 C 236.571 294.861,227.463 285.600,226.840 285.600 C 226.629 285.600,226.214 285.375,225.918 285.100 C 223.250 282.627,214.034 278.400,211.309 278.400 C 210.897 278.400,210.389 278.237,210.180 278.037 C 209.314 277.209,195.079 276.424,194.613 277.179 " stroke="none" fill="#63b224" fill-rule="evenodd"></path><path id="path1" d="M129.700 13.465 C 129.301 13.626,129.200 51.313,129.200 200.026 L 129.200 386.385 130.100 386.602 C 130.595 386.721,162.410 386.770,200.800 386.709 L 270.600 386.600 270.700 200.224 C 270.781 51.387,270.700 13.784,270.300 13.530 C 269.765 13.190,130.541 13.126,129.700 13.465 M208.354 19.635 C 214.159 20.590,219.647 22.202,223.338 24.036 C 224.184 24.456,225.129 24.800,225.438 24.800 C 225.747 24.800,226.000 24.980,226.000 25.200 C 226.000 25.420,226.360 25.600,226.800 25.600 C 227.240 25.600,227.600 25.780,227.600 26.000 C 227.600 26.220,227.793 26.400,228.028 26.400 C 228.263 26.400,229.241 26.940,230.200 27.600 C 231.159 28.260,232.038 28.800,232.154 28.800 C 232.269 28.800,233.587 29.714,235.082 30.830 C 243.662 37.238,251.159 47.167,254.391 56.400 C 254.660 57.170,255.026 58.160,255.204 58.600 C 257.291 63.764,258.563 73.232,258.185 80.800 C 256.884 106.895,237.580 129.340,211.944 134.566 C 197.968 137.415,180.890 134.651,170.928 127.928 C 170.008 127.308,169.137 126.800,168.991 126.800 C 167.976 126.800,160.018 120.113,156.796 116.552 C 152.182 111.453,147.099 103.200,145.617 98.400 C 145.311 97.410,144.912 96.429,144.730 96.220 C 144.549 96.011,144.400 95.437,144.400 94.944 C 144.400 94.451,144.220 93.936,144.000 93.800 C 143.780 93.664,143.600 92.969,143.600 92.256 C 143.600 91.543,143.438 90.789,143.241 90.580 C 141.580 88.822,141.580 65.978,143.241 64.220 C 143.438 64.011,143.600 63.257,143.600 62.544 C 143.600 61.831,143.780 61.136,144.000 61.000 C 144.220 60.864,144.400 60.401,144.400 59.971 C 144.400 59.541,144.580 58.832,144.800 58.395 C 145.020 57.958,145.380 57.242,145.600 56.805 C 145.820 56.368,146.000 55.823,146.000 55.594 C 146.000 54.182,150.209 46.708,153.543 42.200 C 156.527 38.165,166.514 28.800,167.832 28.800 C 167.955 28.800,168.808 28.297,169.728 27.681 C 175.082 24.099,183.017 21.160,191.400 19.654 C 194.281 19.136,205.247 19.124,208.354 19.635 M209.274 142.455 C 209.644 142.645,210.441 142.800,211.045 142.800 C 211.649 142.800,212.696 142.965,213.372 143.166 C 220.798 145.382,220.652 145.329,225.400 147.580 C 239.213 154.130,249.396 165.547,255.208 181.000 C 255.769 182.492,256.968 187.292,257.557 190.400 C 258.651 196.182,258.103 211.957,256.759 213.380 C 256.562 213.589,256.400 214.343,256.400 215.056 C 256.400 215.769,256.220 216.464,256.000 216.600 C 255.780 216.736,255.600 217.199,255.600 217.629 C 255.600 218.059,255.441 218.723,255.247 219.105 C 255.052 219.487,254.718 220.250,254.504 220.800 C 248.441 236.368,236.368 248.441,220.800 254.504 C 220.250 254.718,219.487 255.052,219.105 255.247 C 218.723 255.441,218.059 255.600,217.629 255.600 C 217.199 255.600,216.736 255.780,216.600 256.000 C 216.464 256.220,215.769 256.400,215.056 256.400 C 214.343 256.400,213.589 256.562,213.380 256.759 C 211.957 258.103,196.182 258.651,190.400 257.557 C 186.903 256.895,182.478 255.776,180.900 255.154 C 180.405 254.959,179.595 254.652,179.100 254.472 C 164.474 249.142,152.453 237.138,145.581 221.000 C 141.562 211.562,140.711 196.586,143.557 185.400 C 143.781 184.520,144.084 183.302,144.230 182.694 C 144.376 182.086,144.654 181.490,144.848 181.370 C 145.041 181.251,145.200 180.801,145.200 180.371 C 145.200 179.941,145.362 179.277,145.560 178.895 C 145.758 178.513,146.656 176.618,147.557 174.683 C 152.977 163.042,163.042 152.977,174.683 147.557 C 176.618 146.656,178.513 145.758,178.895 145.560 C 179.277 145.362,179.941 145.200,180.371 145.200 C 180.801 145.200,181.251 145.041,181.370 144.848 C 181.490 144.654,182.086 144.376,182.694 144.230 C 183.302 144.084,184.520 143.781,185.400 143.557 C 188.786 142.695,191.134 142.317,194.800 142.042 C 199.287 141.704,208.312 141.962,209.274 142.455 M204.000 264.410 C 214.835 265.370,229.088 270.418,233.674 274.921 C 233.963 275.206,235.010 276.003,236.000 276.694 C 238.851 278.682,244.330 284.221,246.392 287.200 C 246.925 287.970,247.482 288.690,247.629 288.800 C 248.641 289.557,253.189 298.165,254.391 301.600 C 254.660 302.370,255.026 303.360,255.204 303.800 C 258.407 311.723,259.147 326.859,256.784 336.100 C 255.997 339.175,255.448 341.012,255.200 341.400 C 255.059 341.620,254.691 342.610,254.383 343.600 C 253.420 346.687,248.729 355.578,247.629 356.400 C 247.482 356.510,246.922 357.228,246.386 357.995 C 243.193 362.561,234.797 370.104,229.972 372.741 C 219.139 378.662,213.119 380.334,201.400 380.675 C 194.170 380.885,189.485 380.373,184.400 378.818 C 183.850 378.649,182.680 378.295,181.800 378.029 C 178.851 377.140,172.311 374.047,169.728 372.319 C 168.808 371.703,167.955 371.200,167.832 371.200 C 166.518 371.200,156.547 361.855,153.535 357.800 C 150.223 353.341,146.657 346.945,145.619 343.600 C 145.312 342.610,144.912 341.629,144.730 341.420 C 144.549 341.211,144.400 340.637,144.400 340.144 C 144.400 339.651,144.220 339.136,144.000 339.000 C 143.780 338.864,143.600 338.169,143.600 337.456 C 143.600 336.743,143.438 335.989,143.241 335.780 C 141.567 334.008,141.567 311.192,143.241 309.420 C 143.438 309.211,143.600 308.457,143.600 307.744 C 143.600 307.031,143.780 306.336,144.000 306.200 C 144.220 306.064,144.400 305.601,144.400 305.171 C 144.400 304.741,144.580 304.032,144.800 303.595 C 145.020 303.158,145.380 302.442,145.600 302.005 C 145.820 301.568,146.000 300.999,146.000 300.740 C 146.000 296.659,157.157 281.802,163.979 276.800 C 164.729 276.250,165.806 275.417,166.371 274.949 C 172.462 269.908,184.745 265.440,195.200 264.464 C 197.290 264.268,199.090 264.085,199.200 264.056 C 199.310 264.027,201.470 264.186,204.000 264.410 M197.300 276.697 C 198.785 276.774,201.215 276.774,202.700 276.697 C 204.185 276.620,202.970 276.557,200.000 276.557 C 197.030 276.557,195.815 276.620,197.300 276.697 M190.905 277.487 C 191.514 277.579,192.414 277.577,192.905 277.482 C 193.397 277.387,192.900 277.311,191.800 277.314 C 190.700 277.317,190.297 277.395,190.905 277.487 M207.500 277.482 C 207.995 277.578,208.805 277.578,209.300 277.482 C 209.795 277.387,209.390 277.309,208.400 277.309 C 207.410 277.309,207.005 277.387,207.500 277.482 M186.645 278.328 C 186.533 278.508,186.973 278.577,187.621 278.482 C 188.270 278.387,188.800 278.240,188.800 278.155 C 188.800 277.850,186.843 278.007,186.645 278.328 M211.200 278.155 C 211.200 278.240,211.730 278.387,212.379 278.482 C 213.027 278.577,213.467 278.508,213.355 278.328 C 213.157 278.007,211.200 277.850,211.200 278.155 M229.200 287.400 C 230.395 288.610,231.463 289.600,231.573 289.600 C 231.683 289.600,230.795 288.610,229.600 287.400 C 228.405 286.190,227.337 285.200,227.227 285.200 C 227.117 285.200,228.005 286.190,229.200 287.400 M167.593 290.300 L 163.000 295.000 167.700 290.407 C 170.285 287.880,172.400 285.765,172.400 285.707 C 172.400 285.418,171.860 285.934,167.593 290.300 M235.200 293.325 C 235.200 293.394,235.785 293.979,236.500 294.625 L 237.800 295.800 236.625 294.500 C 235.530 293.288,235.200 293.016,235.200 293.325 M244.368 310.700 C 244.559 312.081,244.587 312.109,244.719 311.051 C 244.798 310.419,244.705 309.745,244.512 309.552 C 244.310 309.350,244.249 309.840,244.368 310.700 M245.314 314.600 C 245.317 315.700,245.395 316.103,245.487 315.495 C 245.579 314.886,245.577 313.986,245.482 313.495 C 245.387 313.003,245.311 313.500,245.314 314.600 M245.314 330.600 C 245.317 331.700,245.395 332.103,245.487 331.495 C 245.579 330.886,245.577 329.986,245.482 329.495 C 245.387 329.003,245.311 329.500,245.314 330.600 " stroke="none" fill="#434343" fill-rule="evenodd"></path><path id="path2" d="M194.600 155.428 C 194.160 155.531,192.720 155.812,191.400 156.052 C 160.931 161.589,145.857 196.351,162.022 223.800 C 162.540 224.680,163.071 225.490,163.201 225.600 C 163.332 225.710,163.879 226.430,164.417 227.200 C 166.889 230.739,172.269 235.609,176.560 238.192 C 179.253 239.814,183.809 242.000,184.495 242.000 C 184.795 242.000,185.211 242.149,185.420 242.330 C 185.833 242.689,187.753 243.272,191.200 244.082 C 192.533 244.396,196.001 244.600,200.000 244.600 C 203.999 244.600,207.467 244.396,208.800 244.082 C 212.247 243.272,214.167 242.689,214.580 242.330 C 214.789 242.149,215.239 241.995,215.580 241.990 C 216.773 241.970,224.327 237.927,227.000 235.878 C 229.062 234.297,234.297 229.062,235.878 227.000 C 237.927 224.327,241.970 216.773,241.990 215.580 C 241.995 215.239,242.149 214.789,242.330 214.580 C 242.689 214.167,243.272 212.247,244.082 208.800 C 244.396 207.467,244.600 203.999,244.600 200.000 C 244.600 196.001,244.396 192.533,244.082 191.200 C 243.272 187.753,242.689 185.833,242.330 185.420 C 242.149 185.211,242.000 184.795,242.000 184.495 C 242.000 183.809,239.814 179.253,238.192 176.560 C 235.609 172.269,230.739 166.889,227.200 164.417 C 226.430 163.879,225.710 163.332,225.600 163.201 C 225.342 162.896,222.788 161.393,220.040 159.930 C 213.746 156.578,200.043 154.154,194.600 155.428 " stroke="none" fill="#835b2c" fill-rule="evenodd"></path><path id="path3" d="M118.628 0.288 C 117.614 0.549,116.800 1.388,116.800 2.171 C 116.800 2.517,116.620 2.800,116.400 2.800 C 116.180 2.800,116.000 3.149,116.000 3.576 C 116.000 4.003,115.820 4.464,115.600 4.600 C 115.045 4.943,115.045 395.057,115.600 395.400 C 115.820 395.536,116.000 395.997,116.000 396.424 C 116.000 396.851,116.180 397.200,116.400 397.200 C 116.620 397.200,116.800 397.483,116.800 397.829 C 116.800 399.935,111.092 399.800,200.000 399.800 C 288.908 399.800,283.200 399.935,283.200 397.829 C 283.200 397.483,283.380 397.200,283.600 397.200 C 283.820 397.200,284.000 396.851,284.000 396.424 C 284.000 395.997,284.180 395.536,284.400 395.400 C 284.666 395.236,284.800 329.670,284.800 200.000 C 284.800 70.330,284.666 4.764,284.400 4.600 C 284.180 4.464,284.000 4.003,284.000 3.576 C 284.000 3.149,283.820 2.800,283.600 2.800 C 283.380 2.800,283.200 2.517,283.200 2.171 C 283.200 0.066,288.835 0.205,200.629 0.144 C 155.953 0.114,119.053 0.178,118.628 0.288 M270.300 12.652 L 271.201 12.894 271.100 200.147 L 271.000 387.400 200.224 387.501 C 143.868 387.582,129.384 387.500,129.130 387.101 C 128.378 385.916,128.746 13.271,129.500 12.832 C 130.259 12.390,268.662 12.213,270.300 12.652 M192.800 20.070 C 189.368 20.639,186.294 21.256,185.200 21.596 C 184.650 21.767,183.390 22.139,182.400 22.423 C 181.410 22.707,180.429 23.088,180.220 23.270 C 180.011 23.451,179.588 23.600,179.281 23.600 C 174.859 23.600,159.455 35.155,153.950 42.600 C 147.914 50.766,145.200 57.239,142.825 69.131 C 142.275 71.886,142.275 82.914,142.825 85.669 C 145.003 96.576,147.239 102.288,152.322 109.931 C 155.939 115.368,167.369 126.400,169.385 126.400 C 169.534 126.400,170.441 126.940,171.400 127.600 C 172.359 128.260,173.258 128.800,173.397 128.800 C 173.536 128.800,174.764 129.318,176.125 129.952 C 185.644 134.383,198.890 136.393,207.776 134.753 C 214.989 133.421,221.815 131.315,225.751 129.205 C 230.365 126.733,231.130 126.264,234.003 124.147 C 238.181 121.069,243.774 115.597,246.010 112.400 C 246.548 111.630,247.261 110.680,247.594 110.288 C 251.226 106.023,255.614 94.833,257.187 85.833 C 257.705 82.866,257.727 71.908,257.220 69.331 C 257.011 68.269,256.630 66.320,256.373 65.000 C 255.202 58.999,249.580 46.150,247.184 44.000 C 247.062 43.890,246.526 43.170,245.993 42.400 C 243.524 38.828,233.048 29.200,231.631 29.200 C 231.431 29.200,231.207 29.065,231.133 28.900 C 230.597 27.693,220.522 23.178,215.000 21.670 C 207.963 19.749,198.744 19.084,192.800 20.070 M209.752 32.831 C 211.959 33.281,214.583 33.979,215.583 34.382 C 216.582 34.786,218.005 35.345,218.744 35.624 C 226.124 38.419,235.786 47.359,240.191 55.470 C 247.453 68.842,247.740 84.022,240.988 97.669 C 228.692 122.521,197.534 130.795,174.505 115.323 C 171.136 113.060,163.811 106.094,163.383 104.748 C 163.253 104.336,162.990 104.000,162.800 104.000 C 162.610 104.000,162.340 103.641,162.201 103.202 C 162.062 102.764,161.706 102.163,161.411 101.868 C 161.115 101.573,160.073 99.726,159.094 97.765 C 151.831 83.221,152.518 68.096,161.107 53.400 C 170.481 37.361,190.481 28.904,209.752 32.831 M193.125 142.608 C 193.010 142.723,191.765 142.974,190.358 143.166 C 187.751 143.523,183.245 144.586,181.800 145.187 C 181.360 145.370,180.370 145.749,179.600 146.030 C 164.558 151.519,151.519 164.558,146.030 179.600 C 145.749 180.370,145.370 181.360,145.187 181.800 C 143.686 185.410,142.780 191.148,142.531 198.600 C 142.275 206.279,143.172 212.827,145.215 218.200 C 145.382 218.640,145.749 219.630,146.030 220.400 C 152.281 237.531,167.999 251.628,185.600 255.890 C 191.640 257.352,193.738 257.600,200.094 257.600 C 206.114 257.600,207.274 257.473,213.400 256.140 C 220.175 254.666,232.025 249.186,234.400 246.428 C 234.510 246.300,235.320 245.667,236.200 245.021 C 238.263 243.507,243.507 238.263,245.021 236.200 C 245.667 235.320,246.300 234.510,246.428 234.400 C 249.186 232.025,254.666 220.175,256.140 213.400 C 257.473 207.274,257.600 206.114,257.600 200.094 C 257.600 175.884,242.325 153.676,220.400 146.009 C 219.630 145.740,218.640 145.382,218.200 145.215 C 215.992 144.375,213.190 143.708,208.176 142.826 C 205.735 142.397,193.513 142.220,193.125 142.608 M208.600 155.123 C 212.638 155.985,213.838 156.304,215.600 156.984 C 218.190 157.983,222.577 160.144,222.733 160.498 C 222.807 160.664,223.044 160.800,223.261 160.800 C 223.600 160.800,226.158 162.428,227.951 163.783 C 231.429 166.414,236.927 172.496,238.631 175.600 C 239.054 176.370,239.494 177.090,239.608 177.200 C 239.847 177.430,242.348 182.603,242.799 183.800 C 242.965 184.240,243.303 185.103,243.550 185.719 C 243.798 186.334,244.000 187.243,244.000 187.739 C 244.000 188.234,244.163 188.811,244.361 189.020 C 245.652 190.378,245.652 209.622,244.361 210.980 C 244.163 211.189,244.000 211.766,244.000 212.261 C 244.000 212.757,243.798 213.666,243.550 214.281 C 243.303 214.897,242.967 215.760,242.803 216.200 C 238.499 227.790,227.790 238.499,216.200 242.803 C 215.760 242.967,214.897 243.303,214.281 243.550 C 213.666 243.798,212.757 244.000,212.261 244.000 C 211.766 244.000,211.189 244.163,210.980 244.361 C 209.967 245.324,195.224 245.719,191.400 244.886 C 186.718 243.866,185.932 243.651,183.800 242.813 C 182.495 242.299,177.417 239.834,177.200 239.608 C 177.090 239.494,176.370 239.054,175.600 238.631 C 172.496 236.927,166.414 231.429,163.783 227.951 C 162.428 226.158,160.800 223.600,160.800 223.261 C 160.800 223.044,160.664 222.807,160.498 222.733 C 160.144 222.577,157.983 218.190,156.984 215.600 C 156.310 213.855,156.031 212.809,155.114 208.600 C 154.560 206.057,154.546 194.038,155.094 191.400 C 155.767 188.157,156.813 184.629,157.221 184.220 C 157.429 184.011,157.600 183.541,157.600 183.176 C 157.600 182.586,159.883 177.708,160.398 177.200 C 160.509 177.090,160.847 176.550,161.149 176.000 C 163.684 171.384,171.384 163.684,176.000 161.149 C 176.550 160.847,177.090 160.509,177.200 160.398 C 177.708 159.883,182.586 157.600,183.176 157.600 C 183.541 157.600,184.011 157.429,184.220 157.221 C 184.691 156.750,188.753 155.606,191.294 155.227 C 192.336 155.072,193.319 154.814,193.479 154.655 C 193.898 154.235,206.231 154.617,208.600 155.123 M192.400 265.375 C 186.257 266.261,180.860 267.807,176.125 270.035 C 174.764 270.676,173.536 271.200,173.397 271.200 C 173.258 271.200,172.359 271.740,171.400 272.400 C 170.441 273.060,169.463 273.600,169.228 273.600 C 168.993 273.600,168.800 273.780,168.800 274.000 C 168.800 274.220,168.615 274.400,168.389 274.400 C 167.923 274.400,163.398 277.838,161.041 279.982 C 155.933 284.629,151.660 290.313,148.398 296.800 C 145.738 302.090,144.478 306.055,142.825 314.331 C 142.275 317.086,142.275 328.114,142.825 330.869 C 145.026 341.892,147.373 347.808,152.551 355.383 C 159.234 365.159,170.504 373.734,181.200 377.180 C 185.639 378.610,186.127 378.740,188.800 379.199 C 190.230 379.445,192.168 379.816,193.106 380.023 C 197.210 380.930,205.920 380.440,212.400 378.938 C 213.830 378.607,215.450 378.247,216.000 378.138 C 216.550 378.029,217.360 377.791,217.800 377.610 C 218.240 377.429,219.230 377.067,220.000 376.806 C 248.562 367.128,264.449 333.921,254.719 304.239 C 253.333 300.008,249.850 292.756,248.500 291.287 C 248.225 290.988,248.000 290.589,248.000 290.400 C 248.000 290.211,247.769 289.819,247.487 289.529 C 247.205 289.238,246.534 288.370,245.996 287.600 C 245.458 286.830,244.653 285.822,244.209 285.361 C 243.764 284.900,242.751 283.820,241.957 282.961 C 239.884 280.717,236.823 277.924,235.200 276.796 C 234.430 276.260,233.482 275.531,233.093 275.175 C 232.705 274.819,231.895 274.280,231.293 273.976 C 230.692 273.673,229.448 272.924,228.528 272.312 C 227.608 271.701,226.761 271.200,226.646 271.200 C 226.530 271.200,225.303 270.667,223.918 270.015 C 215.023 265.828,202.271 263.951,192.400 265.375 M206.200 276.800 C 206.336 277.020,207.189 277.200,208.095 277.200 C 209.002 277.200,210.296 277.367,210.972 277.571 C 211.647 277.775,213.550 278.349,215.200 278.846 C 221.665 280.793,226.426 283.878,232.900 290.315 C 235.485 292.885,237.600 295.193,237.600 295.445 C 237.600 295.696,237.899 296.149,238.265 296.451 C 238.631 296.753,239.259 297.741,239.660 298.647 C 240.062 299.553,240.663 300.520,240.995 300.796 C 241.328 301.072,241.600 301.618,241.600 302.008 C 241.600 302.399,242.140 303.745,242.800 305.000 C 243.460 306.255,244.000 307.612,244.000 308.017 C 244.000 308.422,244.180 308.864,244.400 309.000 C 244.620 309.136,244.800 309.856,244.800 310.600 C 244.800 311.344,244.980 312.064,245.200 312.200 C 245.420 312.336,245.600 313.326,245.600 314.400 C 245.600 315.474,245.780 316.464,246.000 316.600 C 246.237 316.746,246.400 319.196,246.400 322.600 C 246.400 326.004,246.237 328.454,246.000 328.600 C 245.780 328.736,245.600 329.816,245.600 331.000 C 245.600 332.184,245.420 333.264,245.200 333.400 C 244.980 333.536,244.800 334.171,244.800 334.811 C 244.800 335.452,244.440 336.617,244.000 337.400 C 243.560 338.183,243.200 339.164,243.200 339.579 C 243.200 339.994,243.062 340.393,242.894 340.467 C 242.726 340.540,241.815 342.208,240.870 344.173 C 239.924 346.138,238.667 348.362,238.075 349.115 C 236.170 351.541,228.259 359.600,227.784 359.600 C 227.531 359.600,226.998 359.960,226.600 360.400 C 226.202 360.840,225.693 361.200,225.470 361.200 C 225.246 361.200,224.753 361.481,224.373 361.824 C 217.856 367.722,200.972 370.518,189.000 367.682 C 185.024 366.740,176.637 363.049,175.581 361.777 C 175.318 361.460,174.882 361.200,174.613 361.200 C 174.344 361.200,173.798 360.840,173.400 360.400 C 173.002 359.960,172.469 359.600,172.216 359.600 C 171.734 359.600,163.757 351.463,161.963 349.142 C 161.052 347.963,158.824 343.561,156.068 337.489 C 155.590 336.438,155.200 335.144,155.200 334.613 C 155.200 334.082,155.020 333.536,154.800 333.400 C 154.580 333.264,154.400 332.209,154.400 331.056 C 154.400 329.903,154.210 328.770,153.978 328.538 C 153.224 327.784,153.996 313.100,154.837 312.220 C 155.037 312.011,155.200 311.257,155.200 310.544 C 155.200 309.831,155.380 309.136,155.600 309.000 C 155.820 308.864,156.000 308.422,156.000 308.017 C 156.000 307.612,156.540 306.255,157.200 305.000 C 157.860 303.745,158.400 302.399,158.400 302.008 C 158.400 301.618,158.679 301.066,159.020 300.784 C 159.361 300.501,159.975 299.534,160.385 298.635 C 160.796 297.736,161.597 296.564,162.166 296.030 C 162.735 295.497,163.200 294.864,163.200 294.624 C 163.200 293.990,171.912 285.530,173.800 284.331 C 176.487 282.624,178.135 281.674,179.600 280.991 C 183.315 279.257,184.481 278.800,185.187 278.800 C 185.608 278.800,186.052 278.640,186.173 278.444 C 186.426 278.034,188.404 277.639,191.700 277.338 C 192.965 277.223,194.000 276.965,194.000 276.764 C 194.000 276.258,205.887 276.293,206.200 276.800 " stroke="none" fill="#241c24" fill-rule="evenodd"></path><path id="path4" d="M191.734 33.392 C 178.075 35.871,166.222 44.858,160.001 57.451 C 158.900 59.680,158.000 61.707,158.000 61.957 C 158.000 62.206,157.838 62.723,157.639 63.105 C 157.440 63.487,157.092 64.520,156.864 65.400 C 156.637 66.280,156.214 67.900,155.925 69.000 C 155.236 71.624,155.263 82.542,155.967 86.000 C 163.148 121.284,206.667 134.483,231.800 109.000 C 235.994 104.747,242.000 95.456,242.000 93.220 C 242.000 92.983,242.162 92.477,242.361 92.095 C 242.560 91.713,242.908 90.680,243.136 89.800 C 243.363 88.920,243.786 87.300,244.075 86.200 C 244.794 83.462,244.777 71.774,244.050 68.600 C 238.441 44.117,215.970 28.995,191.734 33.392 " stroke="none" fill="#732c34" fill-rule="evenodd"></path><path id="path5" d="M195.639 32.451 C 193.790 32.648,191.720 32.985,191.039 33.201 L 189.800 33.593 191.000 33.380 C 196.405 32.419,205.744 32.780,212.400 34.208 L 213.400 34.423 212.435 34.000 C 209.625 32.770,200.520 31.930,195.639 32.451 M186.475 34.273 C 183.911 35.180,184.659 35.284,187.416 34.404 C 188.727 33.986,189.440 33.648,189.000 33.653 C 188.560 33.659,187.424 33.938,186.475 34.273 M214.600 34.983 C 216.610 35.851,217.908 36.050,216.200 35.229 C 215.320 34.806,214.330 34.461,214.000 34.462 C 213.670 34.464,213.940 34.698,214.600 34.983 M181.272 36.272 C 180.102 36.825,179.222 37.355,179.316 37.449 C 179.410 37.543,180.637 37.075,182.043 36.410 C 183.449 35.745,184.330 35.215,184.000 35.234 C 183.670 35.252,182.443 35.719,181.272 36.272 M177.500 38.229 C 176.895 38.557,176.400 38.910,176.400 39.013 C 176.400 39.399,177.032 39.157,178.000 38.400 C 179.189 37.470,179.011 37.409,177.500 38.229 M221.200 37.790 C 221.200 37.894,221.785 38.265,222.500 38.614 L 223.800 39.248 222.800 38.433 C 221.837 37.648,221.200 37.392,221.200 37.790 M224.200 39.464 C 224.420 39.672,225.669 40.643,226.975 41.621 C 231.098 44.708,235.778 49.840,238.357 54.100 C 238.857 54.925,239.351 55.600,239.455 55.600 C 240.599 55.600,233.138 46.316,229.504 43.217 C 227.008 41.089,222.674 38.022,224.200 39.464 M171.041 42.798 C 169.783 43.899,168.877 44.800,169.028 44.800 C 169.179 44.800,169.975 44.193,170.797 43.451 C 171.618 42.708,172.629 41.912,173.042 41.681 C 173.455 41.449,173.689 41.156,173.561 41.028 C 173.434 40.900,172.300 41.697,171.041 42.798 M166.400 47.275 C 163.888 50.108,160.834 54.400,161.329 54.400 C 161.416 54.400,162.125 53.439,162.904 52.265 C 163.684 51.091,165.349 49.021,166.604 47.665 C 167.859 46.309,168.732 45.210,168.543 45.222 C 168.354 45.235,167.390 46.158,166.400 47.275 M159.678 57.060 C 159.033 58.347,158.382 59.850,158.232 60.400 C 158.082 60.950,158.684 59.971,159.570 58.224 C 160.456 56.477,161.107 54.974,161.017 54.883 C 160.926 54.793,160.324 55.772,159.678 57.060 M242.022 61.325 C 241.977 61.988,243.351 65.747,243.488 65.337 C 243.566 65.102,243.273 64.030,242.837 62.955 C 242.401 61.880,242.034 61.146,242.022 61.325 M156.629 64.629 C 156.481 65.215,156.451 65.784,156.561 65.894 C 156.671 66.004,156.881 65.615,157.029 65.029 C 157.176 64.442,157.206 63.873,157.096 63.763 C 156.986 63.653,156.776 64.042,156.629 64.629 M243.656 67.000 C 243.656 67.440,243.811 68.160,244.000 68.600 L 244.344 69.400 244.344 68.600 C 244.344 68.160,244.189 67.440,244.000 67.000 L 243.656 66.200 243.656 67.000 M155.888 67.333 C 155.730 67.736,155.611 68.456,155.625 68.933 C 155.649 69.756,155.671 69.750,156.040 68.825 C 156.254 68.289,156.373 67.569,156.303 67.225 C 156.199 66.711,156.125 66.730,155.888 67.333 M244.600 77.400 C 244.600 81.276,244.717 84.032,244.860 83.524 C 245.003 83.016,245.120 80.260,245.120 77.400 C 245.120 74.540,245.003 71.784,244.860 71.276 C 244.717 70.768,244.600 73.524,244.600 77.400 M155.050 72.050 C 154.707 73.764,154.787 82.423,155.154 83.359 C 155.318 83.776,155.440 81.122,155.426 77.459 C 155.397 70.147,155.406 70.270,155.050 72.050 M155.668 86.000 C 155.662 86.550,155.811 87.360,156.000 87.800 L 156.344 88.600 156.332 87.800 C 156.326 87.360,156.176 86.550,156.000 86.000 L 155.680 85.000 155.668 86.000 M243.800 86.800 C 243.648 87.491,243.614 88.147,243.724 88.257 C 243.834 88.367,244.048 87.891,244.200 87.200 C 244.352 86.509,244.386 85.853,244.276 85.743 C 244.166 85.633,243.952 86.109,243.800 86.800 M156.412 89.600 C 156.412 89.930,156.587 90.470,156.800 90.800 C 157.145 91.333,157.188 91.333,157.188 90.800 C 157.188 90.470,157.013 89.930,156.800 89.600 C 156.455 89.067,156.412 89.067,156.412 89.600 M243.073 89.753 C 242.923 90.145,242.811 90.766,242.825 91.133 C 242.842 91.575,242.981 91.474,243.237 90.834 C 243.449 90.303,243.561 89.682,243.485 89.454 C 243.409 89.227,243.224 89.361,243.073 89.753 M157.259 92.000 C 157.259 92.330,157.593 93.320,158.000 94.200 C 158.407 95.080,158.741 95.530,158.741 95.200 C 158.741 94.870,158.407 93.880,158.000 93.000 C 157.593 92.120,157.259 91.670,157.259 92.000 M240.144 97.500 C 238.747 100.524,234.920 105.840,231.903 108.948 C 230.200 110.703,228.870 112.203,228.948 112.281 C 229.637 112.970,238.538 101.707,240.393 97.800 C 240.706 97.140,241.026 96.465,241.105 96.300 C 241.183 96.135,241.155 96.000,241.042 96.000 C 240.930 96.000,240.526 96.675,240.144 97.500 M160.611 99.600 C 164.695 107.063,177.724 118.858,181.800 118.783 C 182.020 118.778,180.850 118.060,179.200 117.186 C 173.051 113.930,167.041 108.558,163.143 102.835 C 161.134 99.886,159.914 98.327,160.611 99.600 M225.600 114.252 C 224.170 115.266,221.380 116.881,219.400 117.840 C 217.420 118.799,216.029 119.587,216.310 119.592 C 217.519 119.611,224.537 115.646,227.600 113.212 C 229.420 111.766,228.242 112.379,225.600 114.252 M183.951 119.604 C 184.913 120.048,186.173 120.505,186.751 120.621 C 187.328 120.737,186.900 120.464,185.800 120.014 C 183.064 118.895,181.800 118.615,183.951 119.604 M214.760 119.773 C 212.408 122.126,198.671 122.784,189.000 121.008 C 188.335 120.886,188.578 121.045,189.544 121.364 C 194.823 123.112,204.593 123.017,211.575 121.151 C 214.429 120.388,216.278 119.638,215.367 119.612 C 215.128 119.605,214.856 119.678,214.760 119.773 M231.800 168.000 C 232.659 168.880,233.452 169.600,233.562 169.600 C 233.672 169.600,233.059 168.880,232.200 168.000 C 231.341 167.120,230.548 166.400,230.438 166.400 C 230.328 166.400,230.941 167.120,231.800 168.000 M167.800 232.000 C 168.659 232.880,169.452 233.600,169.562 233.600 C 169.672 233.600,169.059 232.880,168.200 232.000 C 167.341 231.120,166.548 230.400,166.438 230.400 C 166.328 230.400,166.941 231.120,167.800 232.000 " stroke="none" fill="#5a3030" fill-rule="evenodd"></path><path id="path6" d="M129.500 12.832 C 128.746 13.271,128.378 385.916,129.130 387.101 C 129.384 387.500,143.868 387.582,200.224 387.501 L 271.000 387.400 271.100 200.147 L 271.201 12.894 270.300 12.652 C 268.662 12.213,130.259 12.390,129.500 12.832 M270.300 13.530 C 270.700 13.784,270.781 51.387,270.700 200.224 L 270.600 386.600 200.800 386.709 C 162.410 386.770,130.595 386.721,130.100 386.602 L 129.200 386.385 129.200 200.026 C 129.200 51.313,129.301 13.626,129.700 13.465 C 130.541 13.126,269.765 13.190,270.300 13.530 M191.400 19.654 C 183.017 21.160,175.082 24.099,169.728 27.681 C 168.808 28.297,167.955 28.800,167.832 28.800 C 166.514 28.800,156.527 38.165,153.543 42.200 C 150.209 46.708,146.000 54.182,146.000 55.594 C 146.000 55.823,145.820 56.368,145.600 56.805 C 145.380 57.242,145.020 57.958,144.800 58.395 C 144.580 58.832,144.400 59.541,144.400 59.971 C 144.400 60.401,144.220 60.864,144.000 61.000 C 143.780 61.136,143.600 61.831,143.600 62.544 C 143.600 63.257,143.438 64.011,143.241 64.220 C 141.580 65.978,141.580 88.822,143.241 90.580 C 143.438 90.789,143.600 91.543,143.600 92.256 C 143.600 92.969,143.780 93.664,144.000 93.800 C 144.220 93.936,144.400 94.451,144.400 94.944 C 144.400 95.437,144.549 96.011,144.730 96.220 C 144.912 96.429,145.311 97.410,145.617 98.400 C 147.099 103.200,152.182 111.453,156.796 116.552 C 160.018 120.113,167.976 126.800,168.991 126.800 C 169.137 126.800,170.008 127.308,170.928 127.928 C 178.898 133.307,193.181 136.567,204.444 135.579 C 230.281 133.311,250.521 116.059,256.743 91.000 C 259.201 81.102,258.522 66.808,255.204 58.600 C 255.026 58.160,254.660 57.170,254.391 56.400 C 251.159 47.167,243.662 37.238,235.082 30.830 C 233.587 29.714,232.269 28.800,232.154 28.800 C 232.038 28.800,231.159 28.260,230.200 27.600 C 229.241 26.940,228.263 26.400,228.028 26.400 C 227.793 26.400,227.600 26.220,227.600 26.000 C 227.600 25.780,227.240 25.600,226.800 25.600 C 226.360 25.600,226.000 25.420,226.000 25.200 C 226.000 24.980,225.747 24.800,225.438 24.800 C 225.129 24.800,224.184 24.456,223.338 24.036 C 215.316 20.049,200.508 18.017,191.400 19.654 M206.754 20.020 C 214.658 21.274,219.179 22.619,225.000 25.448 C 229.149 27.464,230.944 28.475,231.133 28.900 C 231.207 29.065,231.431 29.200,231.631 29.200 C 233.048 29.200,243.524 38.828,245.993 42.400 C 246.526 43.170,247.062 43.890,247.184 44.000 C 249.580 46.150,255.202 58.999,256.373 65.000 C 256.630 66.320,257.011 68.269,257.220 69.331 C 259.501 80.927,254.510 102.164,247.594 110.288 C 247.261 110.680,246.548 111.630,246.010 112.400 C 243.774 115.597,238.181 121.069,234.003 124.147 C 231.130 126.264,230.365 126.733,225.751 129.205 C 221.815 131.315,214.989 133.421,207.776 134.753 C 198.890 136.393,185.644 134.383,176.125 129.952 C 174.764 129.318,173.536 128.800,173.397 128.800 C 173.258 128.800,172.359 128.260,171.400 127.600 C 170.441 126.940,169.534 126.400,169.385 126.400 C 167.369 126.400,155.939 115.368,152.322 109.931 C 147.239 102.288,145.003 96.576,142.825 85.669 C 142.275 82.914,142.275 71.886,142.825 69.131 C 145.200 57.239,147.914 50.766,153.950 42.600 C 159.455 35.155,174.859 23.600,179.281 23.600 C 179.588 23.600,180.011 23.451,180.220 23.270 C 180.429 23.088,181.410 22.707,182.400 22.423 C 183.390 22.139,184.650 21.767,185.200 21.596 C 186.294 21.256,189.368 20.639,192.800 20.070 C 195.922 19.552,203.632 19.525,206.754 20.020 M198.691 31.889 C 199.401 31.977,200.661 31.979,201.491 31.892 C 202.321 31.805,201.740 31.733,200.200 31.731 C 198.660 31.729,197.981 31.800,198.691 31.889 M217.633 35.353 C 218.041 35.726,222.800 37.991,222.800 37.812 C 222.800 37.587,218.179 35.200,217.745 35.200 C 217.592 35.200,217.542 35.269,217.633 35.353 M179.500 36.427 C 178.675 36.863,178.000 37.308,178.000 37.418 C 178.000 37.596,181.159 36.119,181.567 35.751 C 182.027 35.334,180.825 35.728,179.500 36.427 M224.400 38.924 C 224.400 39.017,225.165 39.598,226.100 40.215 C 227.035 40.832,227.589 41.080,227.331 40.768 C 226.834 40.167,224.400 38.636,224.400 38.924 M165.178 47.900 L 163.800 49.400 165.300 48.022 C 166.125 47.263,166.800 46.588,166.800 46.522 C 166.800 46.216,166.462 46.504,165.178 47.900 M234.000 47.064 C 234.000 47.282,234.495 47.897,235.100 48.430 L 236.200 49.400 235.200 48.200 C 234.650 47.540,234.155 46.925,234.100 46.833 C 234.045 46.742,234.000 46.845,234.000 47.064 M236.975 50.932 C 237.591 51.739,238.176 52.400,238.275 52.400 C 238.553 52.400,236.821 50.060,236.309 49.744 C 236.059 49.589,236.359 50.124,236.975 50.932 M162.198 51.602 C 161.798 52.044,161.566 52.499,161.682 52.615 C 161.797 52.730,162.190 52.369,162.555 51.812 C 163.352 50.596,163.193 50.502,162.198 51.602 M157.450 60.391 C 156.547 62.647,156.687 62.983,157.637 60.842 C 158.066 59.875,158.345 59.012,158.258 58.925 C 158.171 58.838,157.808 59.498,157.450 60.391 M154.893 69.600 C 154.893 70.370,154.975 70.685,155.076 70.300 C 155.176 69.915,155.176 69.285,155.076 68.900 C 154.975 68.515,154.893 68.830,154.893 69.600 M244.893 69.600 C 244.893 70.370,244.975 70.685,245.076 70.300 C 245.176 69.915,245.176 69.285,245.076 68.900 C 244.975 68.515,244.893 68.830,244.893 69.600 M154.140 77.600 C 154.140 79.470,154.209 80.235,154.293 79.300 C 154.377 78.365,154.377 76.835,154.293 75.900 C 154.209 74.965,154.140 75.730,154.140 77.600 M245.742 77.800 C 245.741 79.780,245.808 80.640,245.892 79.712 C 245.976 78.784,245.977 77.164,245.895 76.112 C 245.812 75.060,245.743 75.820,245.742 77.800 M154.893 85.200 C 154.893 85.970,154.975 86.285,155.076 85.900 C 155.176 85.515,155.176 84.885,155.076 84.500 C 154.975 84.115,154.893 84.430,154.893 85.200 M244.893 85.200 C 244.893 85.970,244.975 86.285,245.076 85.900 C 245.176 85.515,245.176 84.885,245.076 84.500 C 244.975 84.115,244.893 84.430,244.893 85.200 M160.473 100.600 C 160.723 101.150,161.084 101.600,161.273 101.600 C 161.463 101.600,161.324 101.150,160.963 100.600 C 160.603 100.050,160.243 99.600,160.163 99.600 C 160.083 99.600,160.222 100.050,160.473 100.600 M235.941 105.300 C 235.212 106.235,234.935 106.746,235.326 106.436 C 236.103 105.819,237.773 103.600,237.461 103.600 C 237.354 103.600,236.671 104.365,235.941 105.300 M163.514 105.004 C 163.741 105.447,164.348 106.166,164.863 106.602 C 165.767 107.366,165.765 107.352,164.806 106.197 C 163.213 104.279,163.079 104.155,163.514 105.004 M227.400 113.835 L 226.200 114.866 227.500 114.006 C 228.215 113.533,228.800 113.068,228.800 112.973 C 228.800 112.673,228.631 112.778,227.400 113.835 M210.800 121.618 C 210.362 121.915,210.524 121.952,211.400 121.756 C 212.871 121.427,213.190 121.198,212.167 121.206 C 211.745 121.209,211.130 121.395,210.800 121.618 M197.500 123.096 C 198.875 123.174,201.125 123.174,202.500 123.096 C 203.875 123.018,202.750 122.954,200.000 122.954 C 197.250 122.954,196.125 123.018,197.500 123.096 M194.800 142.042 C 191.134 142.317,188.786 142.695,185.400 143.557 C 184.520 143.781,183.302 144.084,182.694 144.230 C 182.086 144.376,181.490 144.654,181.370 144.848 C 181.251 145.041,180.801 145.200,180.371 145.200 C 179.941 145.200,179.277 145.362,178.895 145.560 C 178.513 145.758,176.618 146.656,174.683 147.557 C 163.042 152.977,152.977 163.042,147.557 174.683 C 146.656 176.618,145.758 178.513,145.560 178.895 C 145.362 179.277,145.200 179.941,145.200 180.371 C 145.200 180.801,145.041 181.251,144.848 181.370 C 144.654 181.490,144.376 182.086,144.230 182.694 C 144.084 183.302,143.781 184.520,143.557 185.400 C 140.711 196.586,141.562 211.562,145.581 221.000 C 152.453 237.138,164.474 249.142,179.100 254.472 C 179.595 254.652,180.405 254.959,180.900 255.154 C 182.478 255.776,186.903 256.895,190.400 257.557 C 196.182 258.651,211.957 258.103,213.380 256.759 C 213.589 256.562,214.343 256.400,215.056 256.400 C 215.769 256.400,216.464 256.220,216.600 256.000 C 216.736 255.780,217.199 255.600,217.629 255.600 C 218.059 255.600,218.723 255.441,219.105 255.247 C 219.487 255.052,220.250 254.718,220.800 254.504 C 236.368 248.441,248.441 236.368,254.504 220.800 C 254.718 220.250,255.052 219.487,255.247 219.105 C 255.441 218.723,255.600 218.059,255.600 217.629 C 255.600 217.199,255.780 216.736,256.000 216.600 C 256.220 216.464,256.400 215.769,256.400 215.056 C 256.400 214.343,256.562 213.589,256.759 213.380 C 258.103 211.957,258.651 196.182,257.557 190.400 C 256.968 187.292,255.769 182.492,255.208 181.000 C 249.396 165.547,239.213 154.130,225.400 147.580 C 220.652 145.329,220.798 145.382,213.372 143.166 C 212.696 142.965,211.649 142.800,211.045 142.800 C 210.441 142.800,209.644 142.645,209.274 142.455 C 208.312 141.962,199.287 141.704,194.800 142.042 M208.176 142.826 C 213.190 143.708,215.992 144.375,218.200 145.215 C 218.640 145.382,219.630 145.740,220.400 146.009 C 237.131 151.859,251.648 168.069,255.903 185.651 C 257.352 191.638,257.600 193.752,257.600 200.094 C 257.600 206.114,257.473 207.274,256.140 213.400 C 254.666 220.175,249.186 232.025,246.428 234.400 C 246.300 234.510,245.667 235.320,245.021 236.200 C 243.507 238.263,238.263 243.507,236.200 245.021 C 235.320 245.667,234.510 246.300,234.400 246.428 C 232.025 249.186,220.175 254.666,213.400 256.140 C 207.274 257.473,206.114 257.600,200.094 257.600 C 175.803 257.600,154.174 242.718,146.030 220.400 C 145.749 219.630,145.382 218.640,145.215 218.200 C 141.953 209.622,141.512 195.522,144.182 185.200 C 144.552 183.770,145.004 182.240,145.187 181.800 C 145.370 181.360,145.749 180.370,146.030 179.600 C 151.519 164.558,164.558 151.519,179.600 146.030 C 180.370 145.749,181.360 145.370,181.800 145.187 C 183.245 144.586,187.751 143.523,190.358 143.166 C 191.765 142.974,193.010 142.723,193.125 142.608 C 193.513 142.220,205.735 142.397,208.176 142.826 M168.115 167.300 C 166.253 169.115,164.535 170.960,164.299 171.400 C 164.063 171.840,164.815 171.167,165.970 169.906 C 167.125 168.644,168.974 166.799,170.078 165.806 C 171.183 164.812,171.955 164.000,171.794 164.000 C 171.634 164.000,169.978 165.485,168.115 167.300 M228.435 164.500 C 228.528 164.555,229.233 165.140,230.002 165.800 L 231.400 167.000 230.225 165.700 C 229.579 164.985,228.874 164.400,228.658 164.400 C 228.443 164.400,228.343 164.445,228.435 164.500 M233.200 168.925 C 233.200 168.994,233.785 169.579,234.500 170.225 L 235.800 171.400 234.625 170.100 C 233.530 168.888,233.200 168.616,233.200 168.925 M164.400 228.658 C 164.400 228.874,164.985 229.579,165.700 230.225 L 167.000 231.400 165.800 230.002 C 165.140 229.233,164.555 228.528,164.500 228.435 C 164.445 228.343,164.400 228.443,164.400 228.658 M168.800 233.325 C 168.800 233.394,169.385 233.979,170.100 234.625 L 171.400 235.800 170.225 234.500 C 169.130 233.288,168.800 233.016,168.800 233.325 M195.200 264.464 C 184.745 265.440,172.462 269.908,166.371 274.949 C 165.806 275.417,164.729 276.250,163.979 276.800 C 157.157 281.802,146.000 296.659,146.000 300.740 C 146.000 300.999,145.820 301.568,145.600 302.005 C 145.380 302.442,145.020 303.158,144.800 303.595 C 144.580 304.032,144.400 304.741,144.400 305.171 C 144.400 305.601,144.220 306.064,144.000 306.200 C 143.780 306.336,143.600 307.031,143.600 307.744 C 143.600 308.457,143.438 309.211,143.241 309.420 C 141.567 311.192,141.567 334.008,143.241 335.780 C 143.438 335.989,143.600 336.743,143.600 337.456 C 143.600 338.169,143.780 338.864,144.000 339.000 C 144.220 339.136,144.400 339.651,144.400 340.144 C 144.400 340.637,144.549 341.211,144.730 341.420 C 144.912 341.629,145.312 342.610,145.619 343.600 C 146.657 346.945,150.223 353.341,153.535 357.800 C 156.547 361.855,166.518 371.200,167.832 371.200 C 167.955 371.200,168.808 371.703,169.728 372.319 C 172.311 374.047,178.851 377.140,181.800 378.029 C 182.680 378.295,183.850 378.649,184.400 378.818 C 193.682 381.657,208.364 381.400,217.800 378.231 C 221.413 377.018,225.612 375.124,229.972 372.741 C 234.797 370.104,243.193 362.561,246.386 357.995 C 246.922 357.228,247.482 356.510,247.629 356.400 C 248.729 355.578,253.420 346.687,254.383 343.600 C 254.691 342.610,255.059 341.620,255.200 341.400 C 255.448 341.012,255.997 339.175,256.784 336.100 C 259.147 326.859,258.407 311.723,255.204 303.800 C 255.026 303.360,254.660 302.370,254.391 301.600 C 253.189 298.165,248.641 289.557,247.629 288.800 C 247.482 288.690,246.925 287.970,246.392 287.200 C 244.330 284.221,238.851 278.682,236.000 276.694 C 235.010 276.003,233.963 275.206,233.674 274.921 C 231.088 272.383,221.558 268.050,214.200 266.066 C 210.708 265.125,200.385 263.742,199.200 264.056 C 199.090 264.085,197.290 264.268,195.200 264.464 M211.200 265.991 C 216.097 266.995,220.381 268.350,223.918 270.015 C 225.303 270.667,226.530 271.200,226.646 271.200 C 226.761 271.200,227.608 271.701,228.528 272.312 C 229.448 272.924,230.692 273.673,231.293 273.976 C 231.895 274.280,232.705 274.819,233.093 275.175 C 233.482 275.531,234.430 276.260,235.200 276.796 C 236.823 277.924,239.884 280.717,241.957 282.961 C 242.751 283.820,243.764 284.900,244.209 285.361 C 244.653 285.822,245.458 286.830,245.996 287.600 C 246.534 288.370,247.205 289.238,247.487 289.529 C 247.769 289.819,248.000 290.211,248.000 290.400 C 248.000 290.589,248.225 290.988,248.500 291.287 C 250.662 293.640,255.045 304.003,256.330 309.800 C 262.575 337.980,246.368 367.871,220.000 376.806 C 219.230 377.067,218.240 377.429,217.800 377.610 C 217.360 377.791,216.550 378.029,216.000 378.138 C 215.450 378.247,213.830 378.607,212.400 378.938 C 205.920 380.440,197.210 380.930,193.106 380.023 C 192.168 379.816,190.230 379.445,188.800 379.199 C 186.127 378.740,185.639 378.610,181.200 377.180 C 163.312 371.417,147.889 354.325,143.860 335.800 C 142.528 329.678,142.400 328.519,142.400 322.600 C 142.400 316.681,142.528 315.522,143.860 309.400 C 146.627 296.680,154.171 285.091,165.289 276.482 C 166.767 275.337,168.162 274.400,168.389 274.400 C 168.615 274.400,168.800 274.220,168.800 274.000 C 168.800 273.780,168.993 273.600,169.228 273.600 C 169.463 273.600,170.441 273.060,171.400 272.400 C 172.359 271.740,173.258 271.200,173.397 271.200 C 173.536 271.200,174.764 270.676,176.125 270.035 C 186.377 265.210,199.825 263.660,211.200 265.991 M173.000 284.808 C 172.120 285.434,169.510 287.891,167.200 290.266 L 163.000 294.586 167.850 289.993 C 170.517 287.467,173.217 285.001,173.850 284.514 C 175.489 283.252,174.900 283.455,173.000 284.808 M232.400 290.200 C 235.143 292.950,237.478 295.200,237.588 295.200 C 237.698 295.200,235.543 292.950,232.800 290.200 C 230.057 287.450,227.722 285.200,227.612 285.200 C 227.502 285.200,229.657 287.450,232.400 290.200 M161.804 296.396 C 161.174 297.054,160.735 297.656,160.829 297.734 C 160.923 297.812,161.513 297.274,162.139 296.538 C 163.554 294.877,163.345 294.788,161.804 296.396 M155.356 309.371 C 155.235 309.685,155.204 310.360,155.286 310.871 C 155.395 311.554,155.488 311.404,155.637 310.300 C 155.847 308.747,155.736 308.381,155.356 309.371 M154.561 312.558 C 154.443 312.865,154.408 313.810,154.483 314.658 C 154.610 316.087,154.634 316.046,154.810 314.100 C 155.004 311.956,154.941 311.567,154.561 312.558 M153.843 317.033 C 153.492 317.947,153.543 328.318,153.900 328.538 C 154.065 328.639,154.200 325.950,154.200 322.561 C 154.200 319.172,154.174 316.400,154.143 316.400 C 154.111 316.400,153.976 316.685,153.843 317.033 M245.800 322.600 C 245.800 325.968,245.935 328.640,246.100 328.538 C 246.265 328.436,246.400 325.764,246.400 322.600 C 246.400 319.436,246.265 316.764,246.100 316.662 C 245.935 316.560,245.800 319.232,245.800 322.600 M154.446 331.076 C 154.421 332.218,154.538 333.238,154.707 333.343 C 154.876 333.447,154.957 332.783,154.886 331.866 C 154.679 329.175,154.496 328.847,154.446 331.076 M155.206 334.833 C 155.209 335.365,155.389 336.070,155.606 336.400 C 155.882 336.822,155.923 336.585,155.742 335.600 C 155.425 333.875,155.198 333.549,155.206 334.833 M161.829 348.838 C 162.473 349.629,163.081 350.208,163.179 350.125 C 163.278 350.042,162.751 349.395,162.009 348.687 L 160.658 347.400 161.829 348.838 M167.400 355.200 C 169.812 357.620,171.876 359.600,171.986 359.600 C 172.096 359.600,170.212 357.620,167.800 355.200 C 165.388 352.780,163.324 350.800,163.214 350.800 C 163.104 350.800,164.988 352.780,167.400 355.200 M232.193 355.300 L 227.800 359.800 232.300 355.407 C 236.480 351.326,236.982 350.800,236.693 350.800 C 236.634 350.800,234.609 352.825,232.193 355.300 M218.400 364.796 C 218.070 365.008,216.851 365.481,215.691 365.848 C 214.531 366.215,213.656 366.589,213.747 366.680 C 213.998 366.932,217.854 365.598,218.676 364.975 C 219.503 364.348,219.303 364.218,218.400 364.796 M182.627 365.540 C 183.528 366.327,190.571 368.200,190.166 367.544 C 190.049 367.355,189.558 367.197,189.076 367.194 C 188.594 367.191,187.390 366.901,186.400 366.549 C 183.582 365.549,182.221 365.185,182.627 365.540 M211.400 367.091 C 210.740 367.185,210.051 367.406,209.868 367.583 C 209.685 367.760,210.277 367.769,211.184 367.603 C 212.527 367.357,214.207 366.657,212.967 366.860 C 212.765 366.893,212.060 366.997,211.400 367.091 M191.705 368.287 C 192.314 368.379,193.214 368.377,193.705 368.282 C 194.197 368.187,193.700 368.111,192.600 368.114 C 191.500 368.117,191.097 368.195,191.705 368.287 M206.505 368.287 C 207.114 368.379,208.014 368.377,208.505 368.282 C 208.997 368.187,208.500 368.111,207.400 368.114 C 206.300 368.117,205.897 368.195,206.505 368.287 M197.700 369.096 C 198.965 369.175,201.035 369.175,202.300 369.096 C 203.565 369.016,202.530 368.951,200.000 368.951 C 197.470 368.951,196.435 369.016,197.700 369.096 " stroke="none" fill="#342c34" fill-rule="evenodd"></path><path id="path7" d="M194.076 155.140 C 193.568 155.283,196.234 155.400,200.000 155.400 C 203.766 155.400,206.432 155.283,205.924 155.140 C 205.416 154.997,202.750 154.880,200.000 154.880 C 197.250 154.880,194.584 154.997,194.076 155.140 M189.600 156.000 C 188.842 156.490,190.070 156.490,191.600 156.000 C 192.580 155.686,192.576 155.679,191.400 155.646 C 190.740 155.627,189.930 155.787,189.600 156.000 M208.400 156.000 C 209.930 156.490,211.158 156.490,210.400 156.000 C 210.070 155.787,209.260 155.627,208.600 155.646 C 207.424 155.679,207.420 155.686,208.400 156.000 M185.675 157.073 C 184.726 157.409,184.031 157.765,184.131 157.864 C 184.326 158.059,188.400 156.809,188.400 156.554 C 188.400 156.270,187.414 156.458,185.675 157.073 M211.600 156.554 C 211.600 156.744,215.426 158.011,215.875 157.970 C 216.428 157.920,213.043 156.461,212.300 156.430 C 211.915 156.413,211.600 156.469,211.600 156.554 M218.800 159.289 C 221.622 160.714,225.280 162.818,225.600 163.200 C 225.710 163.331,226.428 163.878,227.195 164.414 C 232.194 167.910,237.035 173.922,240.711 181.200 C 241.434 182.630,241.906 183.350,241.761 182.800 C 239.538 174.390,225.476 160.322,217.200 158.228 C 216.650 158.089,217.370 158.566,218.800 159.289 M176.385 161.520 C 170.631 164.943,164.667 170.929,161.460 176.500 C 159.779 179.421,160.433 178.760,162.833 175.113 C 165.599 170.910,170.910 165.599,175.113 162.833 C 176.921 161.643,178.400 160.609,178.400 160.535 C 178.400 160.329,178.329 160.364,176.385 161.520 M157.000 186.000 C 156.625 187.129,156.404 188.137,156.508 188.241 C 156.612 188.346,157.001 187.504,157.371 186.371 C 157.742 185.239,157.963 184.230,157.863 184.130 C 157.763 184.030,157.375 184.871,157.000 186.000 M242.812 186.400 C 242.812 186.730,242.987 187.270,243.200 187.600 C 243.545 188.133,243.588 188.133,243.588 187.600 C 243.588 187.270,243.413 186.730,243.200 186.400 C 242.855 185.867,242.812 185.867,242.812 186.400 M243.668 189.400 C 243.674 189.840,243.824 190.650,244.000 191.200 L 244.320 192.200 244.332 191.200 C 244.338 190.650,244.189 189.840,244.000 189.400 L 243.656 188.600 243.668 189.400 M155.873 189.753 C 155.723 190.145,155.616 190.946,155.636 191.533 C 155.670 192.528,155.698 192.509,156.057 191.263 C 156.473 189.819,156.323 188.582,155.873 189.753 M244.600 200.000 C 244.600 203.986,244.717 206.832,244.860 206.324 C 245.003 205.816,245.120 202.970,245.120 200.000 C 245.120 197.030,245.003 194.184,244.860 193.676 C 244.717 193.168,244.600 196.014,244.600 200.000 M155.050 194.450 C 154.730 196.050,154.798 204.709,155.140 205.924 C 155.283 206.432,155.400 203.777,155.400 200.024 C 155.400 192.544,155.407 192.663,155.050 194.450 M155.646 208.600 C 155.627 209.260,155.787 210.070,156.000 210.400 C 156.490 211.158,156.490 209.930,156.000 208.400 C 155.686 207.420,155.679 207.424,155.646 208.600 M243.822 209.422 C 243.672 210.225,243.638 210.972,243.748 211.082 C 243.858 211.192,244.072 210.625,244.222 209.822 C 244.373 209.019,244.406 208.273,244.296 208.163 C 244.186 208.053,243.973 208.619,243.822 209.422 M156.430 212.300 C 156.461 213.043,157.920 216.428,157.970 215.875 C 158.011 215.426,156.744 211.600,156.554 211.600 C 156.469 211.600,156.413 211.915,156.430 212.300 M243.000 212.800 C 242.850 213.273,242.817 213.750,242.927 213.860 C 243.037 213.970,243.250 213.673,243.400 213.200 C 243.550 212.727,243.583 212.250,243.473 212.140 C 243.363 212.030,243.150 212.327,243.000 212.800 M242.267 214.667 C 242.120 214.813,241.995 215.218,241.990 215.567 C 241.971 216.770,237.940 224.311,235.878 227.000 C 233.001 230.752,227.139 236.103,223.800 238.026 C 220.626 239.853,216.186 241.980,215.524 241.990 C 215.152 241.995,214.724 242.199,214.574 242.443 C 213.754 243.769,223.170 239.206,226.600 236.615 C 232.125 232.441,237.091 226.702,240.012 221.115 C 242.167 216.994,243.364 213.569,242.267 214.667 M158.228 217.200 C 160.322 225.476,174.390 239.538,182.800 241.761 C 183.350 241.906,182.630 241.434,181.200 240.711 C 173.922 237.035,167.910 232.194,164.414 227.195 C 163.878 226.428,163.331 225.710,163.200 225.600 C 162.818 225.280,160.714 221.622,159.289 218.800 C 158.566 217.370,158.089 216.650,158.228 217.200 M186.400 243.200 C 186.730 243.413,187.270 243.588,187.600 243.588 C 188.133 243.588,188.133 243.545,187.600 243.200 C 187.270 242.987,186.730 242.812,186.400 242.812 C 185.867 242.812,185.867 242.855,186.400 243.200 M212.400 243.200 C 211.867 243.545,211.867 243.588,212.400 243.588 C 212.730 243.588,213.270 243.413,213.600 243.200 C 214.133 242.855,214.133 242.812,213.600 242.812 C 213.270 242.812,212.730 242.987,212.400 243.200 M189.600 244.000 C 189.930 244.213,190.650 244.373,191.200 244.354 L 192.200 244.320 191.200 244.000 C 189.658 243.506,188.836 243.506,189.600 244.000 M208.800 244.000 L 207.800 244.320 208.800 244.332 C 209.350 244.338,210.160 244.189,210.600 244.000 L 211.400 243.656 210.600 243.668 C 210.160 243.674,209.350 243.824,208.800 244.000 M193.676 244.860 C 194.184 245.003,197.030 245.120,200.000 245.120 C 202.970 245.120,205.816 245.003,206.324 244.860 C 206.832 244.717,203.986 244.600,200.000 244.600 C 196.014 244.600,193.168 244.717,193.676 244.860 M155.849 309.415 C 155.712 309.773,155.618 310.456,155.641 310.933 C 155.667 311.481,155.803 311.286,156.010 310.403 C 156.360 308.916,156.265 308.333,155.849 309.415 M154.961 312.558 C 154.843 312.865,154.808 313.810,154.883 314.658 C 155.010 316.087,155.034 316.046,155.210 314.100 C 155.404 311.956,155.341 311.567,154.961 312.558 M244.790 313.919 L 244.983 315.800 245.119 314.247 C 245.193 313.393,245.107 312.547,244.926 312.366 C 244.745 312.185,244.684 312.884,244.790 313.919 M245.510 320.936 C 245.682 327.915,245.860 328.710,245.927 322.800 C 245.960 319.830,245.856 317.191,245.694 316.936 C 245.532 316.681,245.449 318.481,245.510 320.936 M154.267 317.067 C 153.903 317.431,153.939 327.684,154.306 328.263 C 154.468 328.517,154.600 326.042,154.600 322.763 C 154.600 319.484,154.585 316.801,154.567 316.800 C 154.548 316.800,154.413 316.920,154.267 317.067 M154.846 330.876 C 154.821 331.908,154.942 332.841,155.116 332.948 C 155.290 333.056,155.370 332.482,155.293 331.672 C 155.059 329.198,154.895 328.907,154.846 330.876 M244.864 331.067 C 244.829 331.764,244.696 332.664,244.570 333.067 C 244.353 333.759,244.365 333.760,244.794 333.091 C 245.045 332.702,245.177 331.802,245.089 331.091 L 244.928 329.800 244.864 331.067 M155.600 334.976 C 155.600 335.513,155.747 336.044,155.928 336.155 C 156.108 336.267,156.177 335.827,156.082 335.179 C 155.872 333.749,155.600 333.635,155.600 334.976 M244.054 334.667 C 244.025 335.144,243.896 335.864,243.770 336.267 C 243.552 336.961,243.564 336.962,243.996 336.288 C 244.247 335.897,244.375 335.177,244.281 334.688 C 244.109 333.801,244.109 333.801,244.054 334.667 M162.394 349.003 C 163.987 350.921,164.121 351.045,163.686 350.196 C 163.459 349.753,162.852 349.034,162.337 348.598 C 161.433 347.834,161.435 347.848,162.394 349.003 M167.600 355.000 C 169.681 357.090,171.474 358.800,171.584 358.800 C 171.694 358.800,170.081 357.090,168.000 355.000 C 165.919 352.910,164.126 351.200,164.016 351.200 C 163.906 351.200,165.519 352.910,167.600 355.000 M231.992 355.100 L 228.200 359.000 232.100 355.208 C 235.722 351.686,236.182 351.200,235.892 351.200 C 235.833 351.200,234.078 352.955,231.992 355.100 M187.552 366.912 C 187.745 367.105,188.419 367.198,189.051 367.119 C 190.109 366.987,190.081 366.959,188.700 366.768 C 187.840 366.649,187.350 366.710,187.552 366.912 M211.400 366.800 L 210.200 367.105 211.276 367.153 C 211.868 367.179,212.464 367.020,212.600 366.800 C 212.736 366.580,212.792 366.421,212.724 366.447 C 212.656 366.473,212.060 366.632,211.400 366.800 M190.765 367.726 C 190.944 367.905,191.881 367.991,192.846 367.918 L 194.600 367.785 192.519 367.593 C 191.375 367.487,190.585 367.547,190.765 367.726 M207.400 367.600 L 205.400 367.874 207.276 367.937 C 208.308 367.972,209.264 367.820,209.400 367.600 C 209.536 367.380,209.592 367.228,209.524 367.263 C 209.456 367.297,208.500 367.449,207.400 367.600 M195.462 368.500 C 195.701 368.887,204.052 368.881,204.663 368.494 C 204.918 368.332,202.910 368.200,200.202 368.200 C 197.494 368.200,195.361 368.335,195.462 368.500 " stroke="none" fill="#644c2c" fill-rule="evenodd"></path><path id="path8" d="M193.600 32.392 C 193.036 32.569,193.907 32.614,195.600 32.497 C 197.250 32.383,198.675 32.224,198.767 32.145 C 199.087 31.867,194.592 32.082,193.600 32.392 M201.233 32.145 C 201.325 32.224,202.750 32.383,204.400 32.497 C 206.093 32.614,206.964 32.569,206.400 32.392 C 205.408 32.082,200.913 31.867,201.233 32.145 M189.400 33.200 C 188.381 33.638,189.432 33.638,190.800 33.200 C 191.604 32.943,191.643 32.877,191.000 32.868 C 190.560 32.862,189.840 33.011,189.400 33.200 M185.200 34.400 C 182.815 35.401,183.645 35.416,186.200 34.418 C 187.300 33.989,187.930 33.639,187.600 33.641 C 187.270 33.643,186.190 33.985,185.200 34.400 M212.600 34.000 C 213.040 34.189,213.670 34.344,214.000 34.344 C 214.378 34.344,214.304 34.217,213.800 34.000 C 213.360 33.811,212.730 33.656,212.400 33.656 C 212.022 33.656,212.096 33.783,212.600 34.000 M181.200 36.000 C 180.430 36.422,179.980 36.766,180.200 36.766 C 180.420 36.766,181.230 36.422,182.000 36.000 C 182.770 35.578,183.220 35.234,183.000 35.234 C 182.780 35.234,181.970 35.578,181.200 36.000 M178.300 37.429 C 176.805 38.240,176.896 38.578,178.400 37.800 C 179.060 37.459,179.600 37.094,179.600 36.990 C 179.600 36.732,179.557 36.747,178.300 37.429 M222.600 38.207 C 223.040 38.566,223.760 39.035,224.200 39.251 L 225.000 39.644 224.200 38.993 C 223.760 38.634,223.040 38.165,222.600 37.949 L 221.800 37.556 222.600 38.207 M173.400 40.635 L 172.200 41.666 173.500 40.806 C 174.215 40.333,174.800 39.868,174.800 39.773 C 174.800 39.473,174.631 39.578,173.400 40.635 M228.000 41.908 C 228.990 42.794,229.877 43.445,229.971 43.355 C 230.148 43.186,229.457 42.591,227.400 41.142 C 226.740 40.678,227.010 41.022,228.000 41.908 M170.462 42.840 C 169.726 43.509,169.198 44.131,169.289 44.222 C 169.380 44.314,170.063 43.761,170.806 42.994 C 172.466 41.281,172.272 41.194,170.462 42.840 M232.382 45.800 C 233.560 47.120,235.420 49.370,236.514 50.800 C 237.608 52.230,238.435 53.187,238.352 52.928 C 238.096 52.131,233.345 46.284,231.747 44.800 C 230.801 43.921,231.037 44.293,232.382 45.800 M165.985 47.293 C 165.003 48.424,163.961 49.720,163.668 50.174 C 163.349 50.669,163.485 50.599,164.005 50.000 C 164.484 49.450,165.598 48.225,166.481 47.277 C 167.364 46.329,168.016 45.482,167.929 45.395 C 167.841 45.308,166.967 46.162,165.985 47.293 M160.614 54.635 C 160.241 55.204,160.005 55.738,160.089 55.822 C 160.173 55.907,160.558 55.441,160.944 54.788 C 161.806 53.328,161.548 53.209,160.614 54.635 M239.949 56.369 C 240.741 57.895,241.450 59.083,241.525 59.009 C 241.733 58.801,239.526 54.436,238.986 53.988 C 238.724 53.771,239.158 54.842,239.949 56.369 M157.458 61.304 C 156.528 63.740,156.680 64.204,157.636 61.847 C 158.072 60.773,158.358 59.824,158.272 59.738 C 158.186 59.652,157.820 60.357,157.458 61.304 M156.264 64.700 C 155.769 66.525,155.608 67.768,155.939 67.200 C 156.334 66.525,156.868 64.000,156.617 64.000 C 156.527 64.000,156.369 64.315,156.264 64.700 M243.552 65.287 C 243.737 66.398,243.793 66.455,243.919 65.654 C 244.001 65.133,243.903 64.543,243.701 64.341 C 243.479 64.119,243.421 64.493,243.552 65.287 M244.282 68.421 C 244.408 69.399,244.575 70.275,244.655 70.367 C 244.981 70.742,244.760 67.755,244.421 67.221 C 244.184 66.846,244.135 67.270,244.282 68.421 M155.260 68.850 C 155.227 69.427,155.111 70.508,155.001 71.250 L 154.803 72.600 155.224 71.257 C 155.455 70.519,155.572 69.439,155.482 68.857 L 155.320 67.800 155.260 68.850 M245.355 77.400 C 245.356 80.260,245.420 81.378,245.497 79.883 C 245.574 78.389,245.574 76.049,245.496 74.683 C 245.418 73.318,245.355 74.540,245.355 77.400 M154.551 77.200 C 154.551 79.730,154.616 80.765,154.696 79.500 C 154.775 78.235,154.775 76.165,154.696 74.900 C 154.616 73.635,154.551 74.670,154.551 77.200 M155.082 84.600 C 155.209 85.700,155.377 86.675,155.456 86.767 C 155.755 87.114,155.528 84.164,155.197 83.400 C 154.974 82.885,154.933 83.313,155.082 84.600 M244.464 85.467 C 244.429 86.164,244.296 87.064,244.170 87.467 C 243.953 88.159,243.965 88.160,244.394 87.491 C 244.645 87.102,244.777 86.202,244.689 85.491 L 244.528 84.200 244.464 85.467 M243.654 89.067 C 243.625 89.544,243.496 90.264,243.370 90.667 C 243.152 91.361,243.164 91.362,243.596 90.688 C 243.847 90.297,243.975 89.577,243.881 89.088 C 243.709 88.201,243.709 88.201,243.654 89.067 M237.874 102.100 C 236.805 103.771,236.489 104.453,237.129 103.710 C 238.219 102.446,240.207 99.200,239.891 99.200 C 239.803 99.200,238.895 100.505,237.874 102.100 M161.600 101.915 C 161.600 102.088,162.148 102.853,162.819 103.615 L 164.038 105.000 162.966 103.300 C 161.903 101.614,161.600 101.307,161.600 101.915 M165.556 107.086 C 167.391 109.344,170.586 112.342,172.562 113.659 C 173.243 114.113,172.990 113.807,172.000 112.980 C 171.010 112.153,168.774 110.019,167.031 108.238 C 164.782 105.940,164.353 105.605,165.556 107.086 M232.627 108.713 C 230.571 110.973,230.195 111.496,231.559 110.200 C 233.444 108.409,236.277 105.180,235.934 105.213 C 235.860 105.220,234.372 106.795,232.627 108.713 M227.000 113.632 C 224.496 115.525,224.360 115.907,226.800 114.194 C 228.010 113.345,229.075 112.593,229.167 112.525 C 229.258 112.456,229.168 112.405,228.967 112.411 C 228.765 112.417,227.880 112.967,227.000 113.632 M221.400 117.224 C 218.320 118.944,218.120 119.368,221.113 117.832 C 222.860 116.936,224.863 115.602,224.400 115.643 C 224.290 115.653,222.940 116.365,221.400 117.224 M177.600 116.997 C 177.600 117.268,180.849 118.884,181.030 118.703 C 181.114 118.619,180.376 118.159,179.391 117.681 C 178.406 117.202,177.600 116.894,177.600 116.997 M186.000 120.782 C 186.330 121.005,186.945 121.191,187.367 121.194 C 188.390 121.202,188.071 120.973,186.600 120.644 C 185.724 120.448,185.562 120.485,186.000 120.782 M193.000 122.410 C 193.770 122.731,197.507 122.951,197.167 122.655 C 197.075 122.576,195.920 122.413,194.600 122.293 C 193.151 122.162,192.517 122.208,193.000 122.410 M204.600 122.400 L 202.600 122.674 204.400 122.709 C 205.390 122.728,206.560 122.589,207.000 122.400 C 207.913 122.008,207.462 122.008,204.600 122.400 M197.300 154.697 C 198.785 154.774,201.215 154.774,202.700 154.697 C 204.185 154.620,202.970 154.557,200.000 154.557 C 197.030 154.557,195.815 154.620,197.300 154.697 M189.621 155.579 C 189.246 155.816,189.670 155.865,190.821 155.718 C 191.799 155.592,192.675 155.425,192.767 155.345 C 193.142 155.019,190.155 155.240,189.621 155.579 M208.100 155.476 C 208.485 155.576,209.115 155.576,209.500 155.476 C 209.885 155.375,209.570 155.293,208.800 155.293 C 208.030 155.293,207.715 155.375,208.100 155.476 M169.775 166.100 L 168.600 167.400 169.900 166.225 C 171.112 165.130,171.384 164.800,171.075 164.800 C 171.006 164.800,170.421 165.385,169.775 166.100 M165.775 170.100 L 164.600 171.400 165.900 170.225 C 166.615 169.579,167.200 168.994,167.200 168.925 C 167.200 168.616,166.870 168.888,165.775 170.100 M233.600 169.725 C 233.600 169.794,234.185 170.379,234.900 171.025 L 236.200 172.200 235.025 170.900 C 233.930 169.688,233.600 169.416,233.600 169.725 M155.449 189.815 C 155.312 190.173,155.223 191.036,155.250 191.733 C 155.292 192.787,155.350 192.698,155.599 191.200 C 155.917 189.286,155.859 188.748,155.449 189.815 M245.359 200.000 C 245.359 203.190,245.421 204.495,245.497 202.900 C 245.573 201.305,245.573 198.695,245.497 197.100 C 245.421 195.505,245.359 196.810,245.359 200.000 M154.557 200.000 C 154.557 202.970,154.620 204.185,154.697 202.700 C 154.774 201.215,154.774 198.785,154.697 197.300 C 154.620 195.815,154.557 197.030,154.557 200.000 M155.293 208.800 C 155.293 209.570,155.375 209.885,155.476 209.500 C 155.576 209.115,155.576 208.485,155.476 208.100 C 155.375 207.715,155.293 208.030,155.293 208.800 M234.575 229.300 L 233.400 230.600 234.700 229.425 C 235.415 228.779,236.000 228.194,236.000 228.125 C 236.000 227.816,235.670 228.088,234.575 229.300 M231.978 232.300 L 230.600 233.800 232.100 232.422 C 233.496 231.138,233.784 230.800,233.478 230.800 C 233.412 230.800,232.737 231.475,231.978 232.300 M169.600 233.725 C 169.600 233.794,170.185 234.379,170.900 235.025 L 172.200 236.200 171.025 234.900 C 169.930 233.688,169.600 233.416,169.600 233.725 M228.975 234.900 L 227.800 236.200 229.100 235.025 C 230.312 233.930,230.584 233.600,230.275 233.600 C 230.206 233.600,229.621 234.185,228.975 234.900 M197.100 245.497 C 198.695 245.573,201.305 245.573,202.900 245.497 C 204.495 245.421,203.190 245.359,200.000 245.359 C 196.810 245.359,195.505 245.421,197.100 245.497 " stroke="none" fill="#422c32" fill-rule="evenodd"></path></g></svg>