<svg id="svg" version="1.1" xmlns="http://www.w3.org/2000/svg" xmlns:xlink="http://www.w3.org/1999/xlink" width="400" height="400" viewBox="0, 0, 400,400"><g id="svgg"><path id="path0" d="M118.628 0.288 C 117.614 0.549,116.800 1.388,116.800 2.171 C 116.800 2.517,116.620 2.800,116.400 2.800 C 116.180 2.800,116.000 3.149,116.000 3.576 C 116.000 4.003,115.820 4.464,115.600 4.600 C 115.045 4.943,115.045 395.057,115.600 395.400 C 115.820 395.536,116.000 395.997,116.000 396.424 C 116.000 396.851,116.180 397.200,116.400 397.200 C 116.620 397.200,116.800 397.483,116.800 397.829 C 116.800 399.935,111.092 399.800,200.000 399.800 C 288.908 399.800,283.200 399.935,283.200 397.829 C 283.200 397.483,283.380 397.200,283.600 397.200 C 283.820 397.200,284.000 396.851,284.000 396.424 C 284.000 395.997,284.180 395.536,284.400 395.400 C 284.666 395.236,284.800 329.670,284.800 200.000 C 284.800 70.330,284.666 4.764,284.400 4.600 C 284.180 4.464,284.000 4.003,284.000 3.576 C 284.000 3.149,283.820 2.800,283.600 2.800 C 283.380 2.800,283.200 2.517,283.200 2.171 C 283.200 0.066,288.835 0.205,200.629 0.144 C 155.953 0.114,119.053 0.178,118.628 0.288 M271.000 200.000 L 271.000 387.400 200.000 387.400 L 129.000 387.400 128.898 200.400 C 128.841 97.550,128.881 13.175,128.986 12.899 C 129.137 12.499,143.568 12.418,200.088 12.499 L 271.000 12.600 271.000 200.000 M193.200 20.086 C 191.770 20.292,189.430 20.735,188.000 21.069 C 186.570 21.404,184.813 21.770,184.096 21.883 C 183.379 21.996,182.694 22.249,182.573 22.444 C 182.452 22.640,182.001 22.800,181.571 22.800 C 181.141 22.800,180.477 22.965,180.095 23.166 C 179.713 23.368,178.680 23.833,177.800 24.201 C 163.196 30.299,151.292 42.663,146.026 57.200 C 145.747 57.970,145.378 58.960,145.205 59.400 C 145.033 59.840,144.701 60.920,144.467 61.800 C 144.234 62.680,143.924 63.850,143.779 64.400 C 142.725 68.374,142.207 81.971,142.941 86.400 C 143.809 91.642,145.488 96.878,148.071 102.400 C 151.722 110.206,159.275 119.412,165.527 123.676 C 166.557 124.378,167.460 125.099,167.533 125.277 C 167.607 125.455,167.907 125.600,168.200 125.600 C 168.493 125.600,168.793 125.735,168.867 125.900 C 169.034 126.276,171.164 127.575,172.100 127.871 C 172.485 127.993,172.800 128.252,172.800 128.447 C 172.800 128.641,173.052 128.800,173.359 128.800 C 173.667 128.800,174.882 129.303,176.059 129.917 C 183.838 133.975,198.255 136.223,207.154 134.767 C 210.699 134.187,216.808 132.840,217.800 132.420 C 218.240 132.233,219.230 131.860,220.000 131.591 C 220.770 131.322,222.514 130.584,223.875 129.951 C 225.236 129.318,226.464 128.800,226.603 128.800 C 226.742 128.800,227.641 128.260,228.600 127.600 C 229.559 126.940,230.537 126.400,230.772 126.400 C 231.007 126.400,231.200 126.220,231.200 126.000 C 231.200 125.780,231.436 125.600,231.725 125.600 C 232.013 125.600,232.599 125.285,233.026 124.900 C 233.453 124.515,234.792 123.447,236.002 122.527 C 237.870 121.106,240.768 118.328,244.209 114.662 C 244.653 114.188,245.455 113.170,245.989 112.400 C 246.524 111.630,247.062 110.910,247.184 110.800 C 248.362 109.743,252.768 101.248,254.198 97.277 C 264.644 68.264,249.654 34.363,221.800 24.005 C 221.360 23.841,220.550 23.515,220.000 23.280 C 219.450 23.045,218.280 22.636,217.400 22.371 C 216.520 22.105,215.350 21.747,214.800 21.574 C 213.824 21.268,211.289 20.817,205.967 20.003 C 202.839 19.524,196.826 19.564,193.200 20.086 M205.400 31.598 C 207.160 31.782,209.365 32.128,210.300 32.366 C 211.235 32.605,212.675 32.954,213.500 33.142 C 214.325 33.330,215.720 33.802,216.600 34.190 C 221.761 36.467,222.800 36.972,222.800 37.203 C 222.800 37.343,223.580 37.848,224.533 38.324 C 225.486 38.800,226.611 39.573,227.033 40.042 C 227.455 40.511,228.096 41.008,228.458 41.147 C 229.373 41.499,234.705 46.647,236.397 48.812 C 237.165 49.795,237.930 50.660,238.097 50.733 C 238.264 50.807,238.400 51.062,238.400 51.302 C 238.400 51.541,238.647 52.021,238.948 52.369 C 239.810 53.362,241.600 56.767,241.600 57.414 C 241.600 57.736,241.735 58.001,241.900 58.003 C 242.301 58.007,243.200 59.981,243.200 60.856 C 243.200 61.239,243.380 61.664,243.600 61.800 C 243.820 61.936,244.000 62.476,244.000 63.000 C 244.000 63.524,244.180 64.064,244.400 64.200 C 244.620 64.336,244.800 65.056,244.800 65.800 C 244.800 66.544,244.980 67.264,245.200 67.400 C 245.420 67.536,245.600 68.976,245.600 70.600 C 245.600 72.224,245.780 73.664,246.000 73.800 C 246.221 73.936,246.400 75.730,246.400 77.800 C 246.400 79.870,246.221 81.664,246.000 81.800 C 245.780 81.936,245.600 83.196,245.600 84.600 C 245.600 86.004,245.420 87.264,245.200 87.400 C 244.980 87.536,244.800 88.237,244.800 88.957 C 244.800 89.677,244.677 90.390,244.526 90.541 C 244.135 90.931,243.213 93.674,243.206 94.467 C 243.203 94.833,243.061 95.193,242.891 95.267 C 242.721 95.340,241.894 96.840,241.053 98.600 C 240.212 100.360,239.406 101.890,239.262 102.000 C 238.814 102.342,237.200 104.751,237.200 105.078 C 237.200 105.567,228.264 114.400,227.769 114.400 C 227.524 114.400,226.998 114.760,226.600 115.200 C 226.202 115.640,225.656 116.000,225.387 116.000 C 225.118 116.000,224.661 116.286,224.371 116.635 C 223.639 117.517,217.816 120.402,215.400 121.078 C 209.974 122.598,209.034 122.800,207.404 122.800 C 206.438 122.800,205.536 122.980,205.400 123.200 C 205.072 123.731,194.928 123.731,194.600 123.200 C 194.464 122.980,193.562 122.800,192.596 122.800 C 190.959 122.800,189.756 122.539,184.600 121.067 C 182.427 120.447,176.738 117.630,175.627 116.624 C 175.247 116.281,174.754 116.000,174.530 116.000 C 174.307 116.000,173.798 115.640,173.400 115.200 C 173.002 114.760,172.476 114.400,172.231 114.400 C 171.227 114.400,161.600 103.955,161.600 102.865 C 161.600 102.663,161.340 102.282,161.023 102.019 C 159.678 100.903,155.200 90.504,155.200 88.497 C 155.200 88.030,155.020 87.536,154.800 87.400 C 154.580 87.264,154.400 86.004,154.400 84.600 C 154.400 83.196,154.220 81.936,154.000 81.800 C 153.779 81.664,153.600 79.870,153.600 77.800 C 153.600 75.730,153.779 73.936,154.000 73.800 C 154.220 73.664,154.400 72.224,154.400 70.600 C 154.400 68.976,154.580 67.536,154.800 67.400 C 155.020 67.264,155.200 66.569,155.200 65.856 C 155.200 65.143,155.352 64.389,155.537 64.180 C 155.723 63.971,156.183 62.785,156.560 61.545 C 156.938 60.304,157.500 58.954,157.810 58.545 C 158.121 58.135,158.380 57.485,158.387 57.100 C 158.394 56.715,158.559 56.400,158.753 56.400 C 158.948 56.400,159.222 56.085,159.363 55.700 C 160.579 52.381,169.863 41.200,171.404 41.200 C 171.655 41.200,172.297 40.735,172.830 40.166 C 173.364 39.597,174.554 38.787,175.476 38.367 C 176.397 37.946,177.256 37.434,177.383 37.228 C 177.600 36.876,179.723 35.803,183.400 34.187 C 184.280 33.801,185.675 33.330,186.500 33.142 C 187.325 32.954,188.765 32.601,189.700 32.357 C 193.404 31.392,200.255 31.060,205.400 31.598 M192.600 142.787 C 192.160 142.983,191.152 143.156,190.360 143.172 C 189.568 143.187,188.398 143.359,187.760 143.553 C 187.122 143.748,185.790 144.132,184.800 144.407 C 178.672 146.110,168.339 150.925,166.800 152.796 C 166.690 152.929,165.970 153.473,165.200 154.004 C 162.179 156.087,156.087 162.179,154.004 165.200 C 153.473 165.970,152.929 166.690,152.796 166.800 C 151.118 168.180,146.011 178.819,144.730 183.600 C 144.524 184.370,144.178 185.630,143.961 186.400 C 138.223 206.795,147.945 234.073,165.200 245.994 C 165.970 246.526,166.690 247.067,166.800 247.195 C 169.283 250.097,183.480 255.892,191.000 257.073 C 193.595 257.481,206.413 257.480,209.000 257.072 C 211.211 256.723,216.947 255.305,218.200 254.797 C 218.640 254.619,220.260 253.993,221.800 253.406 C 235.466 248.196,248.196 235.466,253.406 221.800 C 253.993 220.260,254.619 218.640,254.797 218.200 C 257.874 210.604,258.376 194.656,255.830 185.400 C 250.163 164.803,235.262 149.899,214.600 144.165 C 209.652 142.791,194.692 141.855,192.600 142.787 M208.294 154.841 C 212.207 155.745,213.479 156.125,216.600 157.322 C 218.360 157.997,220.430 158.904,221.200 159.338 C 221.970 159.771,222.960 160.327,223.400 160.573 C 229.441 163.952,236.096 170.609,239.424 176.600 C 242.614 182.344,243.680 185.170,245.212 191.946 C 245.817 194.620,245.830 206.824,245.229 207.946 C 244.993 208.387,244.800 209.201,244.800 209.755 C 244.800 210.309,244.643 211.176,244.451 211.681 C 244.259 212.187,243.887 213.320,243.625 214.200 C 241.516 221.266,235.802 229.881,230.043 234.678 C 225.032 238.853,219.252 242.117,214.200 243.625 C 213.320 243.887,212.187 244.259,211.681 244.451 C 211.176 244.643,210.309 244.800,209.755 244.800 C 209.201 244.800,208.387 244.993,207.946 245.229 C 206.824 245.830,194.620 245.817,191.946 245.212 C 185.170 243.680,182.344 242.614,176.600 239.424 C 170.609 236.096,163.952 229.441,160.573 223.400 C 160.327 222.960,159.771 221.970,159.338 221.200 C 158.384 219.505,156.249 214.007,155.688 211.800 C 154.561 207.369,154.400 205.928,154.400 200.294 C 154.400 196.205,154.607 193.278,155.029 191.400 C 155.375 189.860,155.801 187.970,155.975 187.200 C 156.516 184.812,159.485 178.099,160.397 177.200 C 160.509 177.090,160.825 176.595,161.100 176.100 C 161.375 175.605,161.825 174.798,162.100 174.306 C 163.780 171.304,171.304 163.780,174.306 162.100 C 174.798 161.825,175.605 161.375,176.100 161.100 C 176.595 160.825,177.090 160.509,177.200 160.397 C 178.093 159.491,184.789 156.526,187.200 155.969 C 187.970 155.791,189.680 155.389,191.000 155.075 C 193.958 154.371,205.583 154.214,208.294 154.841 M196.000 265.043 C 173.373 266.895,152.128 282.774,146.016 302.400 C 145.708 303.390,145.332 304.380,145.182 304.600 C 145.031 304.820,144.785 305.540,144.636 306.200 C 144.486 306.860,144.181 308.120,143.957 309.000 C 142.146 316.109,142.137 328.984,143.938 336.200 C 144.644 339.024,144.860 339.783,145.193 340.600 C 145.372 341.040,145.740 342.030,146.009 342.800 C 150.549 355.784,161.269 367.602,174.679 374.404 C 176.836 375.498,178.879 376.395,179.220 376.397 C 179.561 376.398,180.011 376.549,180.220 376.730 C 180.429 376.912,181.410 377.293,182.400 377.577 C 183.390 377.861,184.650 378.233,185.200 378.404 C 186.180 378.708,188.168 379.106,193.024 379.969 C 196.143 380.524,203.857 380.524,206.976 379.969 C 211.832 379.106,213.820 378.708,214.800 378.404 C 215.350 378.233,216.610 377.861,217.600 377.577 C 218.590 377.293,219.571 376.912,219.780 376.730 C 219.989 376.549,220.412 376.400,220.719 376.400 C 221.027 376.400,222.836 375.646,224.739 374.724 C 256.778 359.209,267.425 319.836,247.646 290.013 C 244.305 284.975,233.467 274.400,231.645 274.400 C 231.437 274.400,231.207 274.265,231.133 274.100 C 230.966 273.724,228.836 272.425,227.900 272.129 C 227.515 272.007,227.200 271.748,227.200 271.553 C 227.200 271.359,226.935 271.200,226.612 271.200 C 226.289 271.200,225.434 270.868,224.712 270.463 C 218.397 266.916,204.699 264.330,196.000 265.043 M205.400 276.998 C 217.295 278.488,224.641 282.174,233.000 290.850 C 237.054 295.058,241.600 301.459,241.600 302.961 C 241.600 303.224,241.756 303.611,241.946 303.820 C 242.427 304.348,244.216 309.272,245.063 312.400 C 246.653 318.273,245.574 336.180,243.554 337.428 C 243.359 337.549,243.200 337.958,243.200 338.338 C 243.200 342.200,231.323 358.218,227.578 359.407 C 227.150 359.543,226.800 359.810,226.800 360.000 C 226.800 360.190,226.441 360.460,226.002 360.599 C 225.564 360.738,224.964 361.094,224.669 361.388 C 223.909 362.148,217.815 365.166,215.200 366.078 C 202.101 370.643,186.497 368.815,175.340 361.408 C 174.493 360.845,173.457 360.164,173.037 359.893 C 156.193 349.018,148.796 321.418,158.034 303.905 C 158.235 303.523,158.400 303.016,158.400 302.777 C 158.400 302.539,158.940 301.559,159.600 300.600 C 160.260 299.641,160.800 298.732,160.800 298.581 C 160.800 297.887,165.458 292.284,168.466 289.358 C 172.411 285.522,175.669 283.213,180.000 281.183 C 184.096 279.263,185.259 278.800,185.987 278.800 C 186.408 278.800,186.852 278.640,186.973 278.444 C 187.774 277.148,199.347 276.240,205.400 276.998 " stroke="none" fill="#241c24" fill-rule="evenodd"></path><path id="path1" d="M195.600 32.441 C 186.665 33.849,182.359 35.304,176.198 38.999 C 171.176 42.012,162.000 51.037,162.000 52.965 C 162.000 53.125,161.493 54.008,160.872 54.928 C 159.545 56.896,158.000 60.147,158.000 60.972 C 158.000 61.291,157.820 61.664,157.600 61.800 C 157.380 61.936,157.200 62.476,157.200 63.000 C 157.200 63.524,157.040 64.052,156.844 64.173 C 156.483 64.396,156.415 64.696,155.532 70.000 C 154.968 73.390,154.856 81.190,155.328 84.200 C 155.832 87.417,157.159 92.393,157.670 92.980 C 157.851 93.189,158.000 93.605,158.000 93.905 C 158.000 96.307,163.425 104.627,167.995 109.232 C 189.861 131.269,226.168 125.465,240.480 97.645 C 241.316 96.019,242.000 94.472,242.000 94.206 C 242.000 93.940,242.271 93.180,242.602 92.517 C 245.149 87.410,245.840 74.602,243.973 67.100 C 243.163 63.844,242.646 62.183,242.330 61.820 C 242.149 61.611,242.000 61.115,242.000 60.718 C 242.000 58.628,236.291 49.792,232.276 45.667 C 223.160 36.302,207.332 30.594,195.600 32.441 " stroke="none" fill="#fb244b" fill-rule="evenodd"></path><path id="path2" d="M129.700 13.465 C 128.846 13.809,128.979 386.229,129.833 386.557 C 130.660 386.875,269.340 386.875,270.167 386.557 C 271.139 386.184,271.139 13.816,270.167 13.443 C 269.410 13.152,130.420 13.174,129.700 13.465 M208.576 19.642 C 214.732 20.763,219.770 22.263,223.338 24.036 C 224.184 24.456,225.129 24.800,225.438 24.800 C 225.747 24.800,226.000 24.980,226.000 25.200 C 226.000 25.420,226.360 25.600,226.800 25.600 C 227.240 25.600,227.600 25.759,227.600 25.953 C 227.600 26.148,227.915 26.410,228.300 26.536 C 232.294 27.843,242.715 36.756,246.386 42.005 C 246.922 42.772,247.482 43.490,247.629 43.600 C 248.641 44.357,253.189 52.965,254.391 56.400 C 254.660 57.170,255.026 58.160,255.204 58.600 C 258.528 66.823,259.206 81.100,256.742 91.000 C 253.616 103.562,245.816 115.980,236.800 122.745 C 236.030 123.323,235.310 123.900,235.200 124.028 C 234.751 124.549,230.016 127.600,229.655 127.600 C 229.442 127.600,229.207 127.744,229.133 127.919 C 228.973 128.302,223.083 131.143,220.000 132.324 C 204.878 138.118,183.141 136.170,170.928 127.928 C 170.008 127.308,169.136 126.800,168.990 126.800 C 167.916 126.800,160.228 120.338,156.796 116.550 C 152.191 111.468,147.100 103.201,145.617 98.400 C 145.311 97.410,144.912 96.429,144.730 96.220 C 144.549 96.011,144.400 95.437,144.400 94.944 C 144.400 94.451,144.220 93.936,144.000 93.800 C 143.780 93.664,143.600 92.969,143.600 92.256 C 143.600 91.543,143.438 90.789,143.241 90.580 C 141.567 88.808,141.567 65.992,143.241 64.220 C 143.438 64.011,143.600 63.257,143.600 62.544 C 143.600 61.831,143.780 61.136,144.000 61.000 C 144.220 60.864,144.400 60.401,144.400 59.971 C 144.400 59.541,144.580 58.832,144.800 58.395 C 145.020 57.958,145.380 57.242,145.600 56.805 C 145.820 56.368,146.000 55.763,146.000 55.461 C 146.000 54.942,147.967 50.954,149.974 47.400 C 150.827 45.891,154.865 40.304,155.779 39.369 C 156.011 39.132,156.744 38.322,157.409 37.569 C 159.337 35.387,167.145 28.800,167.804 28.800 C 167.943 28.800,168.808 28.289,169.728 27.665 C 170.648 27.041,171.985 26.277,172.700 25.968 C 173.415 25.658,174.000 25.269,174.000 25.102 C 174.000 24.936,174.253 24.800,174.562 24.800 C 174.871 24.800,175.816 24.456,176.662 24.036 C 180.211 22.272,185.770 20.607,191.200 19.680 C 194.341 19.145,205.708 19.119,208.576 19.642 M209.274 142.454 C 209.644 142.644,210.441 142.800,211.045 142.800 C 211.649 142.800,212.696 142.968,213.372 143.173 C 214.047 143.378,215.410 143.759,216.400 144.018 C 217.390 144.278,218.605 144.651,219.100 144.846 C 219.595 145.041,220.405 145.351,220.900 145.536 C 235.804 151.108,248.715 164.021,254.457 179.100 C 254.646 179.595,254.955 180.405,255.145 180.900 C 255.891 182.849,256.400 184.694,256.400 185.448 C 256.400 185.884,256.562 186.411,256.759 186.620 C 258.472 188.433,258.472 211.567,256.759 213.380 C 256.562 213.589,256.400 214.256,256.400 214.861 C 256.400 215.467,256.198 216.466,255.950 217.081 C 255.452 218.321,254.975 219.539,254.457 220.900 C 248.689 236.046,235.644 249.109,221.000 254.404 C 220.560 254.563,219.750 254.875,219.200 255.097 C 218.650 255.319,217.697 255.703,217.081 255.950 C 216.466 256.198,215.467 256.400,214.861 256.400 C 214.256 256.400,213.589 256.562,213.380 256.759 C 212.389 257.695,201.005 258.471,195.300 257.992 C 189.018 257.464,187.074 257.188,186.620 256.759 C 186.411 256.562,185.884 256.400,185.448 256.400 C 184.660 256.400,182.705 255.849,180.800 255.091 C 180.250 254.872,179.440 254.569,179.000 254.419 C 165.071 249.640,151.251 235.794,145.545 220.900 C 145.355 220.405,145.041 219.595,144.846 219.100 C 144.508 218.243,143.952 216.269,143.183 213.200 C 141.284 205.616,141.444 193.702,143.557 185.400 C 143.781 184.520,144.084 183.302,144.230 182.694 C 144.376 182.086,144.654 181.490,144.848 181.370 C 145.041 181.251,145.200 180.801,145.200 180.371 C 145.200 179.941,145.357 179.277,145.549 178.895 C 145.741 178.513,146.814 176.298,147.934 173.973 C 153.269 162.892,162.892 153.269,173.973 147.934 C 176.298 146.814,178.513 145.741,178.895 145.549 C 179.277 145.357,179.941 145.200,180.371 145.200 C 180.801 145.200,181.251 145.041,181.370 144.848 C 181.490 144.654,182.086 144.376,182.694 144.230 C 183.302 144.084,184.520 143.781,185.400 143.557 C 188.678 142.723,191.097 142.321,194.600 142.030 C 198.817 141.680,208.300 141.954,209.274 142.454 M193.200 155.200 C 192.376 155.464,192.341 155.526,193.000 155.554 C 193.440 155.573,194.070 155.413,194.400 155.200 C 195.101 154.747,194.614 154.747,193.200 155.200 M205.600 155.182 C 205.930 155.405,206.545 155.591,206.967 155.594 C 207.990 155.602,207.671 155.373,206.200 155.044 C 205.324 154.848,205.162 154.885,205.600 155.182 M174.495 162.611 C 173.343 163.386,172.400 164.108,172.400 164.215 C 172.400 164.321,173.390 163.751,174.600 162.947 C 176.522 161.671,177.087 161.200,176.695 161.200 C 176.637 161.200,175.647 161.835,174.495 162.611 M224.833 162.530 C 224.925 162.601,225.630 163.067,226.400 163.566 L 227.800 164.473 226.678 163.437 C 226.060 162.867,225.355 162.400,225.111 162.400 C 224.867 162.400,224.742 162.458,224.833 162.530 M168.024 168.024 C 166.251 169.798,164.800 171.410,164.800 171.607 C 164.800 171.804,165.633 171.075,166.651 169.986 C 167.670 168.898,169.286 167.286,170.242 166.404 C 171.199 165.522,171.817 164.800,171.615 164.800 C 171.414 164.800,169.798 166.251,168.024 168.024 M230.065 166.468 C 231.091 167.421,232.684 169.010,233.605 170.000 L 235.279 171.800 233.650 169.756 C 232.753 168.632,231.160 167.043,230.110 166.224 L 228.200 164.736 230.065 166.468 M162.887 174.100 C 161.427 176.256,161.112 176.800,161.320 176.800 C 161.412 176.800,162.144 175.810,162.947 174.600 C 163.751 173.390,164.325 172.400,164.223 172.400 C 164.122 172.400,163.520 173.165,162.887 174.100 M236.399 173.500 C 236.922 174.215,237.413 174.800,237.489 174.800 C 237.793 174.800,236.801 173.300,236.145 172.767 C 235.713 172.416,235.810 172.696,236.399 173.500 M155.246 192.867 C 155.221 193.234,155.096 193.864,154.970 194.267 C 154.752 194.962,154.763 194.963,155.197 194.287 C 155.448 193.896,155.573 193.266,155.473 192.887 C 155.311 192.268,155.288 192.266,155.246 192.867 M155.044 206.200 C 155.373 207.671,155.602 207.990,155.594 206.967 C 155.591 206.545,155.405 205.930,155.182 205.600 C 154.885 205.162,154.848 205.324,155.044 206.200 M244.649 205.815 C 244.512 206.173,244.415 206.766,244.434 207.133 C 244.453 207.500,244.627 207.269,244.821 206.620 C 245.198 205.358,245.065 204.733,244.649 205.815 M238.614 223.035 C 238.241 223.604,238.027 224.161,238.139 224.272 C 238.250 224.383,238.629 223.918,238.981 223.237 C 239.759 221.733,239.544 221.615,238.614 223.035 M162.400 225.111 C 162.400 225.355,162.867 226.060,163.437 226.678 L 164.473 227.800 163.566 226.400 C 162.385 224.577,162.400 224.594,162.400 225.111 M236.399 226.500 C 235.810 227.304,235.713 227.584,236.145 227.233 C 236.801 226.700,237.793 225.200,237.489 225.200 C 237.413 225.200,236.922 225.785,236.399 226.500 M231.607 231.924 C 229.099 234.487,228.547 235.181,229.979 233.972 C 231.830 232.410,236.005 227.953,235.552 228.024 C 235.468 228.037,233.693 229.792,231.607 231.924 M166.224 230.110 C 167.043 231.160,168.632 232.753,169.756 233.650 L 171.800 235.279 170.000 233.605 C 169.010 232.684,167.421 231.091,166.468 230.065 L 164.736 228.200 166.224 230.110 M172.767 236.145 C 173.300 236.801,174.800 237.793,174.800 237.489 C 174.800 237.413,174.215 236.922,173.500 236.399 C 172.696 235.810,172.416 235.713,172.767 236.145 M226.200 236.650 C 225.481 237.262,225.334 237.505,225.833 237.257 C 226.566 236.893,227.941 235.576,227.549 235.614 C 227.467 235.622,226.860 236.088,226.200 236.650 M222.800 238.833 L 221.800 239.648 223.100 239.014 C 223.815 238.665,224.400 238.294,224.400 238.190 C 224.400 237.792,223.763 238.048,222.800 238.833 M205.600 244.818 C 205.162 245.115,205.324 245.152,206.200 244.956 C 207.671 244.627,207.990 244.398,206.967 244.406 C 206.545 244.409,205.930 244.595,205.600 244.818 M206.200 264.642 C 210.329 265.021,217.038 266.563,220.600 267.951 C 224.798 269.586,232.330 273.602,233.674 274.921 C 233.963 275.206,235.010 276.003,236.000 276.694 C 253.377 288.815,262.165 314.913,256.443 337.400 C 256.219 338.280,255.916 339.498,255.770 340.106 C 255.624 340.714,255.346 341.310,255.152 341.430 C 254.959 341.549,254.800 341.999,254.800 342.429 C 254.800 342.859,254.637 343.523,254.438 343.905 C 254.240 344.287,253.455 345.950,252.696 347.600 C 251.388 350.442,248.206 355.969,247.629 356.400 C 247.482 356.510,246.922 357.228,246.386 357.995 C 243.219 362.523,234.755 370.141,230.072 372.679 C 229.262 373.118,227.920 373.865,227.088 374.338 C 226.256 374.812,225.311 375.200,224.988 375.200 C 224.665 375.200,224.400 375.380,224.400 375.600 C 224.400 375.820,224.128 376.000,223.795 376.000 C 223.462 376.000,222.877 376.159,222.495 376.353 C 221.837 376.688,220.728 377.156,218.700 377.954 C 217.157 378.562,212.316 379.761,208.976 380.363 C 205.870 380.923,194.311 380.930,191.531 380.374 C 190.359 380.140,188.410 379.761,187.200 379.532 C 185.990 379.303,184.640 378.980,184.200 378.814 C 183.760 378.647,182.680 378.294,181.800 378.029 C 178.808 377.128,172.223 374.020,169.728 372.332 C 168.808 371.709,167.955 371.200,167.832 371.200 C 167.188 371.200,162.150 367.013,158.966 363.831 C 152.733 357.603,147.636 349.838,145.554 343.400 C 145.270 342.520,144.893 341.629,144.718 341.420 C 144.543 341.211,144.400 340.637,144.400 340.144 C 144.400 339.651,144.220 339.136,144.000 339.000 C 143.780 338.864,143.600 338.169,143.600 337.456 C 143.600 336.743,143.438 335.989,143.241 335.780 C 141.554 333.994,141.554 311.206,143.241 309.420 C 143.438 309.211,143.600 308.457,143.600 307.744 C 143.600 307.031,143.780 306.336,144.000 306.200 C 144.220 306.064,144.400 305.549,144.400 305.056 C 144.400 304.563,144.543 303.989,144.718 303.780 C 144.893 303.571,145.272 302.680,145.559 301.800 C 147.908 294.605,160.447 277.200,163.281 277.200 C 163.572 277.200,164.000 276.879,166.134 275.062 C 168.770 272.818,176.353 268.988,181.200 267.453 C 187.593 265.430,189.813 264.956,195.400 264.424 C 198.923 264.089,200.525 264.121,206.200 264.642 M195.200 277.610 C 165.896 280.524,147.114 311.079,157.711 338.600 C 170.638 372.174,214.990 378.302,236.455 349.480 C 238.559 346.654,242.800 338.739,242.800 337.637 C 242.800 337.391,242.964 336.877,243.164 336.495 C 245.799 331.462,245.828 315.411,243.214 308.600 C 236.120 290.117,222.605 279.369,204.200 277.573 C 200.185 277.181,199.485 277.184,195.200 277.610 " stroke="none" fill="#434541" fill-rule="evenodd"></path><path id="path3" d="M194.673 155.060 C 194.508 155.225,193.434 155.492,192.286 155.653 C 189.634 156.024,188.012 156.373,187.000 156.790 C 186.560 156.971,185.570 157.346,184.800 157.623 C 172.796 161.945,161.945 172.796,157.623 184.800 C 157.346 185.570,156.971 186.560,156.790 187.000 C 156.442 187.844,156.212 188.821,155.519 192.400 C 154.733 196.452,155.105 209.205,156.037 210.180 C 156.237 210.389,156.400 211.154,156.400 211.880 C 156.400 212.606,156.541 213.200,156.713 213.200 C 156.885 213.200,157.276 214.055,157.582 215.100 C 157.887 216.145,158.467 217.590,158.869 218.312 C 159.271 219.034,159.600 219.889,159.600 220.212 C 159.600 220.535,159.759 220.800,159.953 220.800 C 160.148 220.800,160.407 221.115,160.529 221.500 C 160.762 222.237,162.040 224.459,162.426 224.800 C 162.551 224.910,163.212 225.822,163.895 226.827 C 166.884 231.221,175.074 238.304,178.500 239.458 C 178.885 239.587,179.200 239.852,179.200 240.047 C 179.200 240.241,179.453 240.400,179.762 240.400 C 180.071 240.400,181.106 240.786,182.062 241.257 C 183.018 241.728,184.250 242.289,184.800 242.503 C 185.350 242.718,186.113 243.052,186.495 243.247 C 186.877 243.441,187.721 243.600,188.371 243.600 C 189.021 243.600,189.664 243.780,189.800 244.000 C 189.936 244.220,190.926 244.400,192.000 244.400 C 193.074 244.400,194.064 244.580,194.200 244.800 C 194.336 245.020,194.887 245.200,195.424 245.200 C 195.961 245.200,196.400 245.020,196.400 244.800 C 196.400 244.580,196.670 244.400,197.000 244.400 C 197.330 244.400,197.600 244.580,197.600 244.800 C 197.600 245.022,198.667 245.200,200.000 245.200 C 201.333 245.200,202.400 245.022,202.400 244.800 C 202.400 244.222,203.502 244.307,203.701 244.900 C 203.836 245.300,204.148 245.300,205.263 244.900 C 206.030 244.625,207.398 244.400,208.305 244.400 C 209.211 244.400,210.064 244.220,210.200 244.000 C 210.336 243.780,210.979 243.600,211.629 243.600 C 212.279 243.600,213.123 243.441,213.505 243.247 C 214.192 242.897,215.551 242.327,217.300 241.654 C 219.254 240.901,220.672 240.176,222.272 239.112 C 223.192 238.501,224.060 238.000,224.202 238.000 C 225.850 238.000,238.000 225.850,238.000 224.202 C 238.000 224.060,238.501 223.192,239.112 222.272 C 240.333 220.437,240.937 219.176,242.500 215.200 C 242.716 214.650,243.052 213.887,243.247 213.505 C 243.441 213.123,243.600 212.279,243.600 211.629 C 243.600 210.979,243.780 210.336,244.000 210.200 C 244.220 210.064,244.400 209.211,244.400 208.305 C 244.400 207.398,244.625 206.030,244.900 205.263 C 245.300 204.148,245.300 203.836,244.900 203.701 C 244.307 203.502,244.222 202.400,244.800 202.400 C 245.022 202.400,245.200 201.333,245.200 200.000 C 245.200 198.667,245.022 197.600,244.800 197.600 C 244.580 197.600,244.400 197.330,244.400 197.000 C 244.400 196.670,244.580 196.400,244.800 196.400 C 245.020 196.400,245.200 195.961,245.200 195.424 C 245.200 194.887,245.020 194.336,244.800 194.200 C 244.580 194.064,244.400 193.074,244.400 192.000 C 244.400 190.926,244.220 189.936,244.000 189.800 C 243.780 189.664,243.600 189.021,243.600 188.371 C 243.600 187.721,243.441 186.877,243.247 186.495 C 243.052 186.113,242.718 185.350,242.503 184.800 C 242.289 184.250,241.728 183.018,241.257 182.062 C 240.786 181.106,240.400 180.071,240.400 179.762 C 240.400 179.453,240.241 179.200,240.047 179.200 C 239.852 179.200,239.587 178.885,239.458 178.500 C 238.304 175.074,231.221 166.884,226.827 163.895 C 225.822 163.212,224.910 162.551,224.800 162.426 C 224.459 162.040,222.237 160.762,221.500 160.529 C 221.115 160.407,220.800 160.148,220.800 159.953 C 220.800 159.759,220.535 159.600,220.212 159.600 C 219.889 159.600,219.034 159.271,218.312 158.869 C 217.590 158.467,216.145 157.887,215.100 157.582 C 214.055 157.276,213.200 156.885,213.200 156.713 C 213.200 156.541,212.606 156.400,211.880 156.400 C 211.154 156.400,210.389 156.237,210.180 156.037 C 209.414 155.305,195.317 154.417,194.673 155.060 " stroke="none" fill="#544b3b" fill-rule="evenodd"></path><path id="path4" d="M195.001 32.029 C 191.779 32.402,186.662 33.478,185.200 34.090 C 184.650 34.321,183.349 34.828,182.309 35.217 C 180.070 36.055,174.686 39.181,173.038 40.599 C 172.399 41.150,171.745 41.600,171.585 41.600 C 171.143 41.600,164.000 48.865,164.000 49.314 C 164.000 49.530,163.683 49.997,163.295 50.353 C 160.932 52.520,155.600 63.840,155.600 66.691 C 155.600 67.103,155.434 67.611,155.231 67.820 C 153.916 69.175,154.104 82.355,155.523 88.200 C 156.513 92.282,160.151 100.882,161.191 101.600 C 161.350 101.710,161.712 102.239,161.994 102.775 C 163.482 105.596,170.096 112.350,174.018 115.052 C 189.622 125.803,209.881 125.839,225.861 115.143 C 228.583 113.322,236.800 105.499,236.800 104.730 C 236.800 104.530,237.160 103.980,237.600 103.508 C 238.040 103.036,238.400 102.413,238.400 102.125 C 238.400 101.836,238.549 101.600,238.731 101.600 C 239.201 101.600,242.590 94.627,243.398 92.000 C 244.701 87.758,244.890 86.978,245.281 84.200 C 249.488 54.348,224.669 28.595,195.001 32.029 M204.123 32.418 C 218.925 34.566,228.698 40.104,236.550 50.793 C 238.986 54.108,242.000 59.598,242.000 60.718 C 242.000 61.115,242.149 61.611,242.330 61.820 C 242.646 62.183,243.163 63.844,243.973 67.100 C 245.840 74.602,245.149 87.410,242.602 92.517 C 242.271 93.180,242.000 93.940,242.000 94.206 C 242.000 94.472,241.316 96.019,240.480 97.645 C 226.168 125.465,189.861 131.269,167.995 109.232 C 163.425 104.627,158.000 96.307,158.000 93.905 C 158.000 93.605,157.851 93.189,157.670 92.980 C 157.159 92.393,155.832 87.417,155.328 84.200 C 154.856 81.190,154.968 73.390,155.532 70.000 C 156.415 64.696,156.483 64.396,156.844 64.173 C 157.040 64.052,157.200 63.524,157.200 63.000 C 157.200 62.476,157.380 61.936,157.600 61.800 C 157.820 61.664,158.000 61.291,158.000 60.972 C 158.000 60.147,159.545 56.896,160.872 54.928 C 161.493 54.008,162.000 53.125,162.000 52.965 C 162.000 51.843,169.437 43.713,172.598 41.380 C 178.014 37.382,184.966 34.298,191.000 33.218 C 198.294 31.911,199.942 31.811,204.123 32.418 " stroke="none" fill="#ab243c" fill-rule="evenodd"></path><path id="path5" d="M244.400 197.000 C 244.400 197.330,244.580 197.600,244.800 197.600 C 245.020 197.600,245.200 197.330,245.200 197.000 C 245.200 196.670,245.020 196.400,244.800 196.400 C 244.580 196.400,244.400 196.670,244.400 197.000 M244.400 203.000 C 244.400 203.330,244.580 203.600,244.800 203.600 C 245.020 203.600,245.200 203.330,245.200 203.000 C 245.200 202.670,245.020 202.400,244.800 202.400 C 244.580 202.400,244.400 202.670,244.400 203.000 M196.400 244.800 C 196.400 245.020,196.670 245.200,197.000 245.200 C 197.330 245.200,197.600 245.020,197.600 244.800 C 197.600 244.580,197.330 244.400,197.000 244.400 C 196.670 244.400,196.400 244.580,196.400 244.800 M202.400 244.800 C 202.400 245.020,202.670 245.200,203.000 245.200 C 203.330 245.200,203.600 245.020,203.600 244.800 C 203.600 244.580,203.330 244.400,203.000 244.400 C 202.670 244.400,202.400 244.580,202.400 244.800 " stroke="none" fill="#5c4c36" fill-rule="evenodd"></path><path id="path6" d="M128.986 12.899 C 128.881 13.175,128.841 97.550,128.898 200.400 L 129.000 387.400 199.967 387.400 C 262.693 387.400,270.956 387.330,271.132 386.800 C 271.295 386.307,271.222 386.289,270.723 386.701 C 270.240 387.099,255.657 387.181,199.758 387.101 L 129.400 387.000 129.400 200.000 L 129.400 13.000 199.758 12.899 C 255.657 12.819,270.240 12.901,270.723 13.299 C 271.222 13.711,271.295 13.693,271.132 13.200 C 270.859 12.374,129.298 12.075,128.986 12.899 M192.000 20.000 C 190.596 20.450,192.063 20.465,194.200 20.023 L 195.800 19.692 194.400 19.686 C 193.630 19.683,192.550 19.824,192.000 20.000 M205.800 20.023 C 207.937 20.465,209.404 20.450,208.000 20.000 C 207.450 19.824,206.370 19.683,205.600 19.686 L 204.200 19.692 205.800 20.023 M187.400 20.800 C 186.381 21.238,187.432 21.238,188.800 20.800 C 189.604 20.543,189.643 20.477,189.000 20.468 C 188.560 20.462,187.840 20.611,187.400 20.800 M211.200 20.800 C 212.568 21.238,213.619 21.238,212.600 20.800 C 212.160 20.611,211.440 20.462,211.000 20.468 C 210.357 20.477,210.396 20.543,211.200 20.800 M184.200 21.600 L 183.400 21.944 184.200 21.966 C 184.640 21.978,185.270 21.813,185.600 21.600 C 186.395 21.086,185.396 21.086,184.200 21.600 M171.900 26.629 C 170.405 27.440,170.496 27.778,172.000 27.000 C 172.660 26.659,173.200 26.294,173.200 26.190 C 173.200 25.932,173.157 25.947,171.900 26.629 M228.400 26.935 C 228.400 27.035,229.345 27.710,230.500 28.434 C 231.655 29.159,233.725 30.621,235.100 31.683 C 237.453 33.500,238.657 34.018,236.700 32.371 C 235.026 30.962,228.400 26.622,228.400 26.935 M167.596 29.363 C 166.168 30.332,164.370 31.693,163.600 32.387 C 162.830 33.081,163.372 32.779,164.804 31.716 C 166.236 30.654,168.081 29.368,168.904 28.860 C 170.184 28.069,170.701 27.600,170.296 27.600 C 170.238 27.600,169.023 28.393,167.596 29.363 M238.000 33.644 C 238.000 33.949,243.303 39.231,243.455 39.078 C 243.522 39.011,242.322 37.711,240.789 36.189 C 239.255 34.667,238.000 33.522,238.000 33.644 M158.810 36.590 C 157.620 37.795,156.726 38.836,156.823 38.905 C 156.921 38.973,157.974 37.988,159.163 36.715 C 161.906 33.781,161.667 33.697,158.810 36.590 M154.744 41.100 C 153.475 42.632,153.019 43.342,153.481 43.065 C 153.993 42.758,155.769 40.400,155.489 40.400 C 155.398 40.400,155.063 40.715,154.744 41.100 M247.406 44.512 C 247.792 45.124,248.209 45.524,248.332 45.401 C 248.455 45.278,248.139 44.778,247.630 44.289 L 246.704 43.400 247.406 44.512 M150.253 47.591 C 149.674 48.467,149.200 49.317,149.200 49.480 C 149.200 49.644,149.442 49.423,149.739 48.989 C 151.041 47.081,151.678 46.000,151.499 46.000 C 151.393 46.000,150.832 46.716,150.253 47.591 M251.478 51.395 C 251.844 52.162,252.214 52.719,252.301 52.632 C 252.484 52.449,251.270 50.000,250.996 50.000 C 250.895 50.000,251.112 50.628,251.478 51.395 M147.067 53.700 C 146.541 54.855,145.994 56.250,145.853 56.800 L 145.596 57.800 146.074 56.800 C 146.336 56.250,146.907 54.990,147.342 54.000 C 147.777 53.010,148.203 52.065,148.290 51.900 C 148.376 51.735,148.352 51.600,148.235 51.600 C 148.119 51.600,147.593 52.545,147.067 53.700 M144.446 60.467 C 144.421 60.834,144.296 61.464,144.170 61.867 C 143.952 62.562,143.963 62.563,144.397 61.887 C 144.648 61.496,144.773 60.866,144.673 60.487 C 144.511 59.868,144.488 59.866,144.446 60.467 M143.654 63.467 C 143.625 63.944,143.496 64.664,143.370 65.067 C 143.152 65.761,143.164 65.762,143.596 65.088 C 143.847 64.697,143.975 63.977,143.881 63.488 C 143.709 62.601,143.709 62.601,143.654 63.467 M256.828 67.433 C 256.844 68.295,257.009 69.360,257.196 69.800 C 257.408 70.298,257.451 69.769,257.312 68.400 C 257.044 65.765,256.789 65.257,256.828 67.433 M142.859 67.600 C 142.820 68.150,142.689 69.050,142.567 69.600 C 142.376 70.462,142.408 70.502,142.797 69.891 C 143.046 69.502,143.177 68.602,143.089 67.891 C 142.964 66.887,142.913 66.822,142.859 67.600 M257.762 77.400 C 257.762 80.920,257.824 82.306,257.898 80.481 C 257.972 78.656,257.972 75.776,257.897 74.081 C 257.822 72.386,257.761 73.880,257.762 77.400 M142.155 77.400 C 142.156 80.260,142.220 81.378,142.297 79.883 C 142.374 78.389,142.374 76.049,142.296 74.683 C 142.218 73.318,142.155 74.540,142.155 77.400 M142.682 86.200 C 142.809 87.300,142.977 88.275,143.056 88.367 C 143.355 88.714,143.128 85.764,142.797 85.000 C 142.574 84.485,142.533 84.913,142.682 86.200 M257.056 85.284 C 256.921 85.788,256.831 86.830,256.855 87.600 C 256.889 88.669,256.975 88.480,257.218 86.802 C 257.553 84.492,257.472 83.733,257.056 85.284 M143.458 90.400 C 143.775 92.125,144.002 92.451,143.994 91.167 C 143.991 90.635,143.811 89.930,143.594 89.600 C 143.318 89.178,143.277 89.415,143.458 90.400 M144.244 93.400 C 144.573 94.871,144.802 95.190,144.794 94.167 C 144.791 93.745,144.605 93.130,144.382 92.800 C 144.085 92.362,144.048 92.524,144.244 93.400 M254.928 95.073 C 253.998 98.077,253.989 98.177,254.804 96.426 C 255.258 95.450,255.578 94.403,255.515 94.099 C 255.452 93.796,255.187 94.234,254.928 95.073 M252.272 101.819 C 251.332 103.789,251.464 104.124,252.447 102.262 C 252.893 101.416,253.187 100.654,253.101 100.567 C 253.014 100.481,252.641 101.044,252.272 101.819 M147.600 102.147 C 147.600 102.580,149.588 106.400,149.813 106.400 C 149.923 106.400,149.539 105.455,148.959 104.300 C 147.843 102.079,147.600 101.694,147.600 102.147 M250.600 105.200 C 250.259 105.860,250.069 106.400,250.179 106.400 C 250.289 106.400,250.659 105.860,251.000 105.200 C 251.341 104.540,251.531 104.000,251.421 104.000 C 251.311 104.000,250.941 104.540,250.600 105.200 M249.108 107.700 C 248.233 109.049,247.448 110.656,247.887 110.200 C 248.448 109.617,250.098 106.800,249.879 106.800 C 249.776 106.800,249.429 107.205,249.108 107.700 M153.930 112.700 C 154.361 113.305,155.129 114.160,155.637 114.600 C 156.145 115.040,155.872 114.545,155.032 113.500 C 153.374 111.439,152.663 110.922,153.930 112.700 M242.425 116.569 L 241.050 118.200 242.605 116.713 C 243.460 115.896,244.079 115.162,243.980 115.083 C 243.881 115.003,243.181 115.672,242.425 116.569 M159.400 118.705 C 161.160 120.408,163.050 122.158,163.600 122.593 C 164.150 123.029,162.800 121.637,160.600 119.500 C 158.400 117.362,156.510 115.613,156.400 115.611 C 156.290 115.610,157.640 117.002,159.400 118.705 M239.375 119.635 C 238.729 120.314,237.147 121.664,235.860 122.635 C 234.574 123.606,233.657 124.400,233.823 124.400 C 233.989 124.400,234.771 123.907,235.562 123.304 C 237.721 121.659,241.255 118.400,240.879 118.400 C 240.698 118.400,240.021 118.956,239.375 119.635 M164.800 123.349 C 164.800 123.435,165.430 123.986,166.200 124.573 C 166.970 125.160,167.598 125.497,167.595 125.320 C 167.592 125.144,166.962 124.593,166.195 124.096 C 165.428 123.599,164.800 123.263,164.800 123.349 M229.200 127.233 L 228.200 128.048 229.500 127.414 C 230.215 127.065,230.800 126.694,230.800 126.590 C 230.800 126.192,230.163 126.448,229.200 127.233 M184.000 133.182 C 184.330 133.405,184.945 133.591,185.367 133.594 C 186.390 133.602,186.071 133.373,184.600 133.044 C 183.724 132.848,183.562 132.885,184.000 133.182 M215.000 133.200 C 214.496 133.417,214.422 133.544,214.800 133.544 C 215.130 133.544,215.760 133.389,216.200 133.200 C 216.704 132.983,216.778 132.856,216.400 132.856 C 216.070 132.856,215.440 133.011,215.000 133.200 M187.000 134.000 C 187.440 134.189,188.160 134.338,188.600 134.332 C 189.243 134.323,189.204 134.257,188.400 134.000 C 187.032 133.562,185.981 133.562,187.000 134.000 M211.600 134.000 C 210.796 134.257,210.757 134.323,211.400 134.332 C 211.840 134.338,212.560 134.189,213.000 134.000 C 214.019 133.562,212.968 133.562,211.600 134.000 M191.400 134.800 C 192.060 134.968,193.050 135.105,193.600 135.105 C 194.492 135.105,194.470 135.072,193.400 134.800 C 192.740 134.632,191.750 134.495,191.200 134.495 C 190.308 134.495,190.330 134.528,191.400 134.800 M206.600 134.800 L 205.400 135.105 206.600 135.113 C 207.260 135.117,208.250 134.976,208.800 134.800 L 209.800 134.480 208.800 134.487 C 208.250 134.491,207.260 134.632,206.600 134.800 M199.300 135.476 C 199.685 135.576,200.315 135.576,200.700 135.476 C 201.085 135.375,200.770 135.293,200.000 135.293 C 199.230 135.293,198.915 135.375,199.300 135.476 M197.300 142.297 C 198.785 142.374,201.215 142.374,202.700 142.297 C 204.185 142.220,202.970 142.157,200.000 142.157 C 197.030 142.157,195.815 142.220,197.300 142.297 M190.600 142.800 L 189.000 143.086 190.400 143.115 C 191.170 143.131,192.160 142.989,192.600 142.800 C 193.543 142.395,192.862 142.395,190.600 142.800 M207.400 142.780 C 208.161 143.126,211.117 143.364,210.767 143.051 C 210.675 142.969,209.700 142.793,208.600 142.659 C 207.254 142.495,206.861 142.535,207.400 142.780 M212.400 143.582 C 212.730 143.805,213.345 143.991,213.767 143.994 C 214.790 144.002,214.471 143.773,213.000 143.444 C 212.124 143.248,211.962 143.285,212.400 143.582 M183.600 144.400 C 182.776 144.664,182.741 144.726,183.400 144.754 C 183.840 144.773,184.470 144.613,184.800 144.400 C 185.501 143.947,185.014 143.947,183.600 144.400 M217.400 145.012 C 219.473 145.758,220.194 145.740,218.454 144.984 C 217.714 144.663,216.814 144.408,216.454 144.418 C 216.094 144.427,216.520 144.695,217.400 145.012 M176.400 147.000 C 174.039 148.264,174.548 148.266,177.260 147.004 C 178.437 146.456,179.130 146.014,178.800 146.022 C 178.470 146.030,177.390 146.470,176.400 147.000 M221.946 146.616 C 222.686 146.937,223.406 147.194,223.546 147.186 C 224.066 147.157,221.776 146.028,221.200 146.030 C 220.870 146.031,221.206 146.294,221.946 146.616 M173.000 148.627 C 172.340 148.970,171.620 149.435,171.400 149.661 C 171.180 149.887,171.765 149.677,172.700 149.195 C 173.635 148.713,174.400 148.247,174.400 148.160 C 174.400 147.920,174.300 147.953,173.000 148.627 M226.800 148.820 C 228.187 149.761,228.978 150.035,228.000 149.236 C 227.450 148.786,226.820 148.417,226.600 148.415 C 226.380 148.413,226.470 148.596,226.800 148.820 M168.900 151.026 C 167.965 151.587,167.200 152.140,167.200 152.255 C 167.200 152.471,169.899 150.938,170.580 150.336 C 171.267 149.728,170.627 149.991,168.900 151.026 M229.420 150.336 C 230.048 150.892,232.800 152.479,232.800 152.286 C 232.800 152.045,229.694 150.000,229.329 150.000 C 229.170 150.000,229.211 150.151,229.420 150.336 M233.344 152.709 C 233.660 153.221,236.000 154.953,236.000 154.675 C 236.000 154.576,235.339 153.991,234.532 153.375 C 233.724 152.759,233.189 152.459,233.344 152.709 M191.000 155.075 C 189.680 155.389,187.970 155.791,187.200 155.969 C 184.789 156.526,178.093 159.491,177.200 160.397 C 177.090 160.509,176.595 160.825,176.100 161.100 C 175.605 161.375,174.798 161.825,174.306 162.100 C 171.304 163.780,163.780 171.304,162.100 174.306 C 161.825 174.798,161.375 175.605,161.100 176.100 C 160.825 176.595,160.509 177.090,160.397 177.200 C 159.485 178.099,156.516 184.812,155.975 187.200 C 155.801 187.970,155.375 189.860,155.029 191.400 C 154.607 193.278,154.400 196.205,154.400 200.294 C 154.400 205.928,154.561 207.369,155.688 211.800 C 156.249 214.007,158.384 219.505,159.338 221.200 C 159.771 221.970,160.327 222.960,160.573 223.400 C 163.952 229.441,170.609 236.096,176.600 239.424 C 182.344 242.614,185.170 243.680,191.946 245.212 C 194.620 245.817,206.824 245.830,207.946 245.229 C 208.387 244.993,209.201 244.800,209.755 244.800 C 210.309 244.800,211.176 244.643,211.681 244.451 C 212.187 244.259,213.320 243.887,214.200 243.625 C 217.549 242.625,221.841 240.517,225.800 237.927 C 231.034 234.502,236.295 228.843,239.674 223.000 C 241.250 220.276,242.925 216.546,243.625 214.200 C 243.887 213.320,244.259 212.187,244.451 211.681 C 244.643 211.176,244.800 210.309,244.800 209.755 C 244.800 209.201,244.993 208.387,245.229 207.946 C 245.830 206.824,245.817 194.620,245.212 191.946 C 243.680 185.170,242.614 182.344,239.424 176.600 C 236.096 170.609,229.441 163.952,223.400 160.573 C 222.960 160.327,221.970 159.771,221.200 159.338 C 219.505 158.384,214.007 156.249,211.800 155.688 C 207.340 154.554,205.895 154.404,199.894 154.452 C 195.836 154.485,192.500 154.718,191.000 155.075 M159.070 159.070 C 156.723 161.416,154.876 163.409,154.965 163.499 C 155.054 163.588,155.909 162.802,156.864 161.753 C 157.819 160.703,158.880 159.565,159.222 159.222 C 159.565 158.880,160.703 157.819,161.753 156.864 C 162.802 155.909,163.588 155.054,163.499 154.965 C 163.409 154.876,161.416 156.723,159.070 159.070 M207.280 155.216 C 214.081 156.550,216.966 157.618,223.526 161.226 C 226.396 162.805,232.015 167.622,234.696 170.803 C 238.355 175.142,241.678 181.144,243.222 186.200 C 243.491 187.080,243.850 188.160,244.020 188.600 C 245.622 192.746,245.576 205.710,243.939 211.800 C 243.490 213.470,243.435 213.624,242.000 217.200 C 237.639 228.070,228.070 237.639,217.200 242.000 C 213.624 243.435,213.470 243.490,211.800 243.939 C 205.710 245.576,192.746 245.622,188.600 244.020 C 188.160 243.850,187.080 243.491,186.200 243.222 C 181.144 241.678,175.142 238.355,170.803 234.696 C 167.622 232.015,162.805 226.396,161.226 223.526 C 154.462 211.230,153.137 201.427,156.372 187.600 C 157.028 184.796,158.607 181.217,161.334 176.356 C 163.994 171.614,171.933 163.684,176.448 161.259 C 179.412 159.667,181.736 158.505,183.200 157.882 C 185.849 156.754,185.905 156.738,191.800 155.428 C 194.728 154.778,204.373 154.646,207.280 155.216 M238.509 156.949 C 239.779 158.177,241.824 160.221,243.055 161.491 L 245.291 163.800 243.193 161.400 C 242.038 160.080,239.993 158.036,238.647 156.858 L 236.200 154.716 238.509 156.949 M245.991 165.188 C 246.457 165.841,247.042 166.502,247.291 166.656 C 247.541 166.811,247.241 166.276,246.625 165.468 C 245.288 163.715,244.784 163.492,245.991 165.188 M151.508 168.100 C 150.633 169.449,149.848 171.056,150.287 170.600 C 150.848 170.017,152.498 167.200,152.279 167.200 C 152.176 167.200,151.829 167.605,151.508 168.100 M149.116 172.100 C 148.478 173.096,147.943 174.400,148.172 174.400 C 148.253 174.400,148.695 173.680,149.153 172.800 C 150.060 171.060,150.039 170.658,149.116 172.100 M146.875 176.619 C 146.394 177.611,146.002 178.642,146.004 178.911 C 146.006 179.180,146.460 178.429,147.012 177.242 C 147.565 176.055,147.957 175.024,147.884 174.951 C 147.811 174.877,147.357 175.628,146.875 176.619 M252.814 176.454 C 252.806 176.594,253.063 177.314,253.384 178.054 C 253.706 178.794,253.969 179.130,253.970 178.800 C 253.972 178.224,252.843 175.934,252.814 176.454 M254.425 180.516 C 254.411 180.690,254.745 181.950,255.166 183.316 C 255.588 184.682,256.046 186.316,256.186 186.947 C 256.325 187.578,256.520 188.014,256.618 187.915 C 256.717 187.817,256.460 186.490,256.047 184.968 C 255.292 182.180,254.472 179.930,254.425 180.516 M144.446 183.267 C 144.421 183.634,144.296 184.264,144.170 184.667 C 143.952 185.362,143.963 185.363,144.397 184.687 C 144.648 184.296,144.773 183.666,144.673 183.287 C 144.511 182.668,144.488 182.666,144.446 183.267 M256.840 190.033 C 256.862 190.785,257.030 191.850,257.213 192.400 C 257.429 193.046,257.466 192.620,257.319 191.200 C 257.059 188.683,256.781 188.007,256.840 190.033 M142.859 190.200 C 142.820 190.860,142.696 191.850,142.583 192.400 L 142.377 193.400 142.808 192.414 C 143.044 191.872,143.168 190.882,143.083 190.214 L 142.928 189.000 142.859 190.200 M257.761 200.000 C 257.761 203.410,257.822 204.805,257.897 203.100 C 257.972 201.395,257.972 198.605,257.897 196.900 C 257.822 195.195,257.761 196.590,257.761 200.000 M142.157 200.000 C 142.157 202.970,142.220 204.185,142.297 202.700 C 142.374 201.215,142.374 198.785,142.297 197.300 C 142.220 195.815,142.157 197.030,142.157 200.000 M142.659 208.600 C 142.793 209.700,142.969 210.675,143.051 210.767 C 143.364 211.117,143.126 208.161,142.780 207.400 C 142.535 206.861,142.495 207.254,142.659 208.600 M257.053 208.036 C 256.914 208.731,256.821 209.773,256.847 210.350 C 256.872 210.928,257.055 210.427,257.252 209.239 C 257.637 206.921,257.473 205.934,257.053 208.036 M143.444 213.000 C 143.773 214.471,144.002 214.790,143.994 213.767 C 143.991 213.345,143.805 212.730,143.582 212.400 C 143.285 211.962,143.248 212.124,143.444 213.000 M255.631 215.231 C 255.347 216.340,255.190 217.323,255.283 217.417 C 255.376 217.510,255.685 216.678,255.969 215.569 C 256.253 214.460,256.410 213.477,256.317 213.383 C 256.224 213.290,255.915 214.122,255.631 215.231 M144.418 216.454 C 144.408 216.814,144.663 217.714,144.984 218.454 C 145.740 220.194,145.758 219.473,145.012 217.400 C 144.695 216.520,144.427 216.094,144.418 216.454 M146.022 221.200 C 146.036 221.796,147.947 225.638,147.982 225.140 C 147.992 224.997,147.552 223.917,147.004 222.740 C 146.456 221.563,146.014 220.870,146.022 221.200 M253.113 222.581 C 252.742 223.581,252.517 224.400,252.614 224.400 C 252.893 224.400,254.031 221.494,253.903 221.109 C 253.839 220.918,253.484 221.580,253.113 222.581 M148.415 226.600 C 148.417 226.820,148.786 227.450,149.236 228.000 C 149.779 228.664,149.915 228.731,149.640 228.200 C 148.966 226.895,148.412 226.172,148.415 226.600 M249.786 229.300 L 249.152 230.600 249.967 229.600 C 250.752 228.637,251.008 228.000,250.610 228.000 C 250.506 228.000,250.135 228.585,249.786 229.300 M150.817 230.710 C 151.335 231.651,152.262 233.001,152.876 233.710 C 153.491 234.420,153.167 233.740,152.156 232.200 C 149.965 228.861,149.535 228.383,150.817 230.710 M246.744 233.900 C 245.475 235.432,245.019 236.142,245.481 235.865 C 245.993 235.558,247.769 233.200,247.489 233.200 C 247.398 233.200,247.063 233.515,246.744 233.900 M156.812 238.700 C 159.703 241.825,159.804 241.922,159.160 240.951 C 158.388 239.789,155.241 236.400,154.934 236.400 C 154.796 236.400,155.642 237.435,156.812 238.700 M240.600 240.924 C 237.582 243.995,236.979 244.734,238.679 243.279 C 240.737 241.517,245.613 236.343,245.140 236.424 C 245.063 236.437,243.020 238.462,240.600 240.924 M161.575 243.292 C 162.551 244.332,163.436 245.097,163.542 244.992 C 163.647 244.886,163.656 244.755,163.561 244.700 C 163.465 244.645,162.580 243.880,161.594 243.000 L 159.800 241.401 161.575 243.292 M234.385 246.432 L 233.000 247.663 234.288 246.813 C 235.430 246.059,236.293 245.200,235.908 245.200 C 235.832 245.200,235.147 245.754,234.385 246.432 M167.800 248.196 C 168.694 248.939,171.228 250.309,170.600 249.710 C 170.380 249.500,169.480 248.924,168.600 248.430 C 167.720 247.935,167.360 247.830,167.800 248.196 M229.100 249.829 C 228.495 250.157,228.000 250.510,228.000 250.613 C 228.000 250.999,228.632 250.757,229.600 250.000 C 230.789 249.070,230.611 249.009,229.100 249.829 M176.400 253.000 C 177.390 253.530,178.470 253.970,178.800 253.978 C 179.130 253.986,178.437 253.544,177.260 252.996 C 174.548 251.734,174.039 251.736,176.400 253.000 M222.400 253.200 C 221.410 253.615,220.803 253.965,221.051 253.978 C 221.618 254.006,224.400 252.857,224.400 252.595 C 224.400 252.348,224.512 252.314,222.400 253.200 M181.200 254.874 C 182.746 255.529,187.714 256.819,187.915 256.618 C 188.014 256.520,187.578 256.325,186.947 256.186 C 186.316 256.046,184.682 255.588,183.316 255.166 C 180.630 254.337,179.595 254.195,181.200 254.874 M214.600 255.811 C 213.720 256.101,213.270 256.350,213.600 256.363 C 213.930 256.377,215.010 256.133,216.000 255.821 C 216.990 255.509,217.440 255.260,217.000 255.269 C 216.560 255.277,215.480 255.521,214.600 255.811 M188.833 256.946 C 188.925 257.026,189.990 257.194,191.200 257.319 C 192.620 257.466,193.046 257.429,192.400 257.213 C 191.409 256.883,188.513 256.665,188.833 256.946 M207.600 257.213 C 206.954 257.429,207.380 257.466,208.800 257.319 C 210.010 257.194,211.075 257.026,211.167 256.946 C 211.487 256.665,208.591 256.883,207.600 257.213 M196.900 257.897 C 198.605 257.972,201.395 257.972,203.100 257.897 C 204.805 257.822,203.410 257.761,200.000 257.761 C 196.590 257.761,195.195 257.822,196.900 257.897 M191.600 265.184 C 191.050 265.351,192.130 265.399,194.000 265.290 C 195.870 265.182,197.475 265.027,197.567 264.946 C 197.882 264.670,192.599 264.880,191.600 265.184 M202.433 264.946 C 202.525 265.027,204.130 265.182,206.000 265.290 C 207.870 265.399,208.950 265.351,208.400 265.184 C 207.401 264.880,202.118 264.670,202.433 264.946 M187.200 265.995 C 186.791 266.255,187.110 266.299,188.200 266.132 C 190.177 265.829,190.514 265.598,188.967 265.606 C 188.325 265.609,187.530 265.784,187.200 265.995 M210.033 265.743 C 210.125 265.822,210.920 265.997,211.800 266.132 C 212.890 266.299,213.209 266.255,212.800 265.995 C 212.253 265.646,209.645 265.409,210.033 265.743 M184.200 266.800 C 183.181 267.238,184.232 267.238,185.600 266.800 C 186.404 266.543,186.443 266.477,185.800 266.468 C 185.360 266.462,184.640 266.611,184.200 266.800 M214.400 266.800 C 215.768 267.238,216.819 267.238,215.800 266.800 C 215.360 266.611,214.640 266.462,214.200 266.468 C 213.557 266.477,213.596 266.543,214.400 266.800 M167.704 274.427 C 166.335 275.321,165.101 276.236,164.963 276.460 C 164.738 276.824,169.243 273.950,170.180 273.132 C 171.050 272.372,170.039 272.901,167.704 274.427 M232.544 274.709 C 232.860 275.221,235.200 276.953,235.200 276.675 C 235.200 276.576,234.539 275.991,233.732 275.375 C 232.924 274.759,232.389 274.459,232.544 274.709 M194.200 277.026 C 189.886 277.580,188.253 277.885,187.000 278.370 C 186.560 278.541,185.570 278.906,184.800 279.183 C 181.742 280.281,180.804 280.663,180.553 280.914 C 180.189 281.277,182.495 280.591,183.570 280.016 C 187.239 278.052,198.006 276.594,204.100 277.235 C 217.852 278.681,228.192 284.519,237.330 296.000 C 238.398 297.342,238.395 297.325,237.254 295.600 C 228.634 282.569,210.831 274.889,194.200 277.026 M160.256 280.450 C 158.117 282.457,156.422 284.155,156.490 284.223 C 156.558 284.291,158.396 282.649,160.575 280.573 C 162.754 278.498,164.449 276.800,164.341 276.800 C 164.233 276.800,162.394 278.442,160.256 280.450 M240.768 281.900 C 242.436 283.605,243.880 284.950,243.978 284.888 C 244.193 284.754,238.325 278.800,237.978 278.800 C 237.845 278.800,239.101 280.195,240.768 281.900 M177.723 282.307 C 176.801 282.908,175.276 283.850,174.335 284.400 C 171.032 286.331,160.800 297.051,160.800 298.581 C 160.800 298.732,160.260 299.641,159.600 300.600 C 158.940 301.559,158.400 302.539,158.400 302.777 C 158.400 303.016,158.235 303.523,158.034 303.905 C 155.853 308.039,153.946 315.852,154.057 320.200 C 154.095 321.680,154.201 321.264,154.468 318.600 C 154.829 314.997,156.320 308.617,157.354 306.255 C 161.421 296.966,167.654 289.029,174.000 285.059 C 174.990 284.439,176.784 283.318,177.987 282.566 C 179.189 281.815,179.999 281.203,179.787 281.207 C 179.574 281.211,178.645 281.706,177.723 282.307 M155.155 285.900 C 153.810 287.387,153.060 288.400,153.303 288.400 C 153.413 288.400,154.167 287.590,154.979 286.600 C 156.606 284.614,156.717 284.172,155.155 285.900 M247.774 290.200 C 249.167 292.252,249.452 292.495,248.677 290.971 C 248.334 290.295,247.749 289.490,247.378 289.182 C 247.007 288.874,247.185 289.332,247.774 290.200 M251.082 295.789 C 251.673 296.993,252.223 297.911,252.305 297.829 C 252.484 297.649,250.467 293.600,250.198 293.600 C 250.094 293.600,250.492 294.585,251.082 295.789 M239.257 299.200 C 240.856 302.101,241.085 302.547,241.513 303.600 C 241.736 304.150,242.185 305.230,242.511 306.000 C 243.060 307.297,243.944 310.008,244.598 312.400 C 244.748 312.950,245.119 315.380,245.422 317.800 L 245.973 322.200 245.788 318.465 C 245.554 313.719,243.365 305.378,241.946 303.820 C 241.756 303.611,241.600 303.228,241.600 302.968 C 241.600 302.501,239.089 298.124,238.547 297.648 C 238.392 297.512,238.711 298.210,239.257 299.200 M254.030 302.015 C 254.013 302.134,254.354 303.214,254.786 304.415 C 255.218 305.617,255.564 306.240,255.556 305.800 C 255.542 305.077,254.100 301.502,254.030 302.015 M144.446 305.667 C 144.421 306.034,144.296 306.664,144.170 307.067 C 143.952 307.762,143.963 307.763,144.397 307.087 C 144.648 306.696,144.773 306.066,144.673 305.687 C 144.511 305.068,144.488 305.066,144.446 305.667 M143.654 308.667 C 143.625 309.144,143.496 309.864,143.370 310.267 C 143.152 310.961,143.164 310.962,143.596 310.288 C 143.847 309.897,143.975 309.177,143.881 308.688 C 143.709 307.801,143.709 307.801,143.654 308.667 M256.828 312.633 C 256.844 313.495,257.009 314.560,257.196 315.000 C 257.408 315.498,257.451 314.969,257.312 313.600 C 257.044 310.965,256.789 310.457,256.828 312.633 M142.854 312.800 C 142.819 313.350,142.696 314.250,142.583 314.800 L 142.377 315.800 142.807 314.815 C 143.043 314.274,143.165 313.374,143.078 312.815 L 142.920 311.800 142.854 312.800 M257.762 322.600 C 257.762 326.120,257.824 327.506,257.898 325.681 C 257.972 323.856,257.972 320.976,257.897 319.281 C 257.822 317.586,257.761 319.080,257.762 322.600 M142.155 322.600 C 142.156 325.460,142.220 326.578,142.297 325.083 C 142.374 323.589,142.374 321.249,142.296 319.883 C 142.218 318.518,142.155 319.740,142.155 322.600 M154.030 324.833 C 154.046 326.245,154.205 328.210,154.384 329.200 C 154.596 330.375,154.635 329.542,154.499 326.800 C 154.263 322.085,153.984 320.916,154.030 324.833 M245.592 324.900 C 245.574 329.643,243.808 336.871,241.619 341.162 C 240.625 343.112,239.955 344.800,240.175 344.800 C 240.467 344.800,243.200 338.995,243.200 338.376 C 243.200 338.037,243.367 337.589,243.571 337.380 C 244.671 336.252,246.784 322.800,245.860 322.800 C 245.717 322.800,245.596 323.745,245.592 324.900 M142.650 331.200 C 142.975 333.441,143.202 333.760,143.194 331.967 C 143.191 331.215,143.008 330.330,142.788 330.000 C 142.509 329.581,142.467 329.942,142.650 331.200 M257.056 330.484 C 256.921 330.988,256.831 332.030,256.855 332.800 C 256.889 333.869,256.975 333.680,257.218 332.002 C 257.553 329.692,257.472 328.933,257.056 330.484 M154.856 331.800 C 154.856 332.240,155.011 332.960,155.200 333.400 L 155.544 334.200 155.544 333.400 C 155.544 332.960,155.389 332.240,155.200 331.800 L 154.856 331.000 154.856 331.800 M143.458 335.600 C 143.775 337.325,144.002 337.651,143.994 336.367 C 143.991 335.835,143.811 335.130,143.594 334.800 C 143.318 334.378,143.277 334.615,143.458 335.600 M155.754 335.200 C 157.099 342.655,165.971 355.331,173.037 359.893 C 173.457 360.164,174.494 360.846,175.343 361.410 C 177.362 362.750,183.040 365.600,183.691 365.600 C 183.971 365.600,182.482 364.741,180.381 363.691 C 168.497 357.748,161.639 349.937,156.422 336.400 C 155.955 335.190,155.655 334.650,155.754 335.200 M144.244 338.600 C 144.573 340.071,144.802 340.390,144.794 339.367 C 144.791 338.945,144.605 338.330,144.382 338.000 C 144.085 337.562,144.048 337.724,144.244 338.600 M254.928 340.273 C 253.998 343.277,253.989 343.377,254.804 341.626 C 255.258 340.650,255.578 339.603,255.515 339.299 C 255.452 338.996,255.187 339.434,254.928 340.273 M146.509 345.100 C 146.595 345.265,146.974 346.075,147.352 346.900 C 147.729 347.725,148.130 348.400,148.242 348.400 C 148.355 348.400,148.377 348.265,148.291 348.100 C 148.205 347.935,147.826 347.125,147.448 346.300 C 147.071 345.475,146.670 344.800,146.558 344.800 C 146.445 344.800,146.423 344.935,146.509 345.100 M238.013 347.872 C 237.055 349.330,235.130 351.732,233.735 353.210 C 232.341 354.688,231.200 356.026,231.200 356.184 C 231.200 357.129,238.186 348.934,239.506 346.440 C 240.531 344.505,239.708 345.294,238.013 347.872 M251.082 349.411 C 250.492 350.615,250.094 351.600,250.198 351.600 C 250.467 351.600,252.484 347.551,252.305 347.371 C 252.223 347.289,251.673 348.207,251.082 349.411 M149.200 350.520 C 149.200 350.904,151.245 354.000,151.499 354.000 C 151.678 354.000,151.041 352.919,149.739 351.011 C 149.442 350.577,149.200 350.356,149.200 350.520 M248.287 354.200 C 247.501 355.410,246.982 356.400,247.133 356.400 C 247.284 356.400,247.596 356.085,247.827 355.700 C 248.058 355.315,248.656 354.325,249.156 353.500 C 250.556 351.191,249.894 351.724,248.287 354.200 M229.819 357.180 C 227.078 360.208,214.565 366.662,211.076 366.846 C 210.390 366.883,210.353 366.933,210.906 367.077 C 212.368 367.458,222.989 363.068,224.668 361.389 C 224.963 361.094,225.564 360.738,226.002 360.599 C 226.441 360.460,226.800 360.190,226.800 360.000 C 226.800 359.810,227.115 359.550,227.500 359.423 C 228.393 359.129,230.986 356.852,230.725 356.592 C 230.617 356.484,230.209 356.748,229.819 357.180 M153.940 357.916 C 154.433 358.609,155.044 359.304,155.297 359.460 C 155.550 359.617,155.354 359.177,154.860 358.484 C 154.367 357.791,153.756 357.096,153.503 356.940 C 153.250 356.783,153.446 357.223,153.940 357.916 M240.809 363.351 L 237.818 366.600 241.109 363.409 C 242.919 361.655,244.400 360.170,244.400 360.109 C 244.400 359.637,243.378 360.560,240.809 363.351 M158.600 363.200 C 159.906 364.520,161.054 365.600,161.151 365.600 C 161.491 365.600,156.995 360.890,156.613 360.845 C 156.399 360.820,157.294 361.880,158.600 363.200 M185.598 366.237 C 186.366 366.592,187.626 366.957,188.398 367.049 C 189.667 367.199,189.630 367.161,188.000 366.646 C 184.963 365.685,184.074 365.534,185.598 366.237 M236.413 367.384 C 236.147 367.705,234.235 369.082,232.164 370.444 C 230.094 371.806,228.400 372.994,228.400 373.084 C 228.400 373.301,228.868 373.020,232.400 370.678 C 235.803 368.421,237.843 366.800,237.280 366.800 C 237.070 366.800,236.680 367.063,236.413 367.384 M190.153 367.487 C 191.493 368.827,208.507 368.827,209.847 367.487 C 209.991 367.343,209.139 367.354,207.954 367.512 C 206.769 367.671,203.190 367.800,200.000 367.800 C 196.810 367.800,193.231 367.671,192.046 367.512 C 190.861 367.354,190.009 367.343,190.153 367.487 M164.635 368.456 C 164.958 368.979,170.370 372.573,172.000 373.347 C 172.770 373.712,173.054 373.784,172.632 373.506 C 165.761 368.983,164.447 368.153,164.635 368.456 M226.493 373.780 C 225.239 374.472,224.862 374.901,225.812 374.555 C 226.798 374.195,228.314 373.186,227.789 373.239 C 227.575 373.261,226.992 373.504,226.493 373.780 M214.800 378.418 C 214.362 378.715,214.524 378.752,215.400 378.556 C 216.871 378.227,217.190 377.998,216.167 378.006 C 215.745 378.009,215.130 378.195,214.800 378.418 M187.200 379.200 C 188.568 379.638,189.619 379.638,188.600 379.200 C 188.160 379.011,187.440 378.862,187.000 378.868 C 186.357 378.877,186.396 378.943,187.200 379.200 M211.400 379.200 L 210.600 379.544 211.400 379.544 C 211.840 379.544,212.560 379.389,213.000 379.200 L 213.800 378.856 213.000 378.856 C 212.560 378.856,211.840 379.011,211.400 379.200 M191.800 380.000 C 193.492 380.431,194.944 380.431,193.600 380.000 C 193.050 379.824,192.150 379.683,191.600 379.687 C 190.702 379.694,190.722 379.726,191.800 380.000 M206.400 380.000 C 205.056 380.431,206.508 380.431,208.200 380.000 C 209.278 379.726,209.298 379.694,208.400 379.687 C 207.850 379.683,206.950 379.824,206.400 380.000 " stroke="none" fill="#342c2c" fill-rule="evenodd"></path><path id="path7" d="M194.636 31.656 C 193.115 31.851,191.315 32.188,190.636 32.404 L 189.400 32.797 190.800 32.587 C 204.071 30.597,213.597 32.335,224.430 38.721 C 229.612 41.777,237.150 49.597,239.666 54.528 C 240.100 55.380,240.536 55.997,240.635 55.898 C 240.937 55.597,239.662 53.497,236.569 49.200 C 235.179 47.270,229.117 41.200,228.579 41.200 C 228.337 41.200,227.706 40.738,227.176 40.174 C 226.646 39.610,225.579 38.860,224.806 38.507 C 224.033 38.154,223.094 37.606,222.719 37.288 C 221.795 36.504,218.388 34.800,217.744 34.800 C 217.458 34.800,216.583 34.440,215.800 34.000 C 215.017 33.560,213.943 33.200,213.414 33.200 C 212.885 33.200,211.945 33.006,211.326 32.769 C 208.146 31.553,199.784 30.995,194.636 31.656 M186.862 33.092 C 186.126 33.182,184.906 33.604,184.150 34.028 C 183.394 34.453,182.606 34.800,182.400 34.800 C 181.773 34.800,177.663 36.774,177.399 37.202 C 177.263 37.422,176.397 37.946,175.476 38.367 C 174.554 38.787,173.364 39.597,172.830 40.166 C 172.297 40.735,171.663 41.200,171.422 41.200 C 170.904 41.200,164.000 48.054,164.000 48.569 C 164.000 48.763,165.641 47.275,167.647 45.261 C 169.653 43.247,171.425 41.600,171.585 41.600 C 171.745 41.600,172.399 41.150,173.038 40.599 C 176.166 37.906,182.721 34.691,188.000 33.261 C 189.461 32.865,189.123 32.815,186.862 33.092 M162.771 50.304 C 161.574 51.655,160.678 53.211,160.943 53.476 C 161.052 53.585,161.451 53.073,161.830 52.337 C 162.208 51.602,162.881 50.684,163.323 50.297 C 163.766 49.911,164.041 49.508,163.935 49.402 C 163.829 49.295,163.305 49.701,162.771 50.304 M159.990 54.613 C 159.139 55.637,156.800 60.508,156.800 61.253 C 156.800 61.638,156.620 62.064,156.400 62.200 C 156.180 62.336,156.000 62.876,156.000 63.400 C 156.000 63.924,155.820 64.464,155.600 64.600 C 155.380 64.736,155.200 65.431,155.200 66.144 C 155.200 66.857,155.034 67.611,154.831 67.820 C 153.693 68.993,153.695 85.799,154.834 86.980 C 155.035 87.189,155.200 87.943,155.200 88.656 C 155.200 89.369,155.380 90.064,155.600 90.200 C 155.820 90.336,156.000 90.876,156.000 91.400 C 156.000 91.924,156.180 92.464,156.400 92.600 C 156.620 92.736,156.800 93.150,156.800 93.521 C 156.800 94.402,160.277 101.400,161.023 102.019 C 161.340 102.282,161.600 102.718,161.600 102.987 C 161.600 103.256,161.960 103.802,162.400 104.200 C 162.840 104.598,163.200 105.124,163.200 105.369 C 163.200 105.856,171.630 114.400,172.111 114.400 C 172.274 114.400,173.290 115.020,174.367 115.777 C 177.864 118.235,185.290 121.644,185.874 121.059 C 185.995 120.938,185.578 120.717,184.947 120.569 C 181.212 119.690,173.447 115.072,169.623 111.456 C 166.151 108.174,162.876 104.447,161.994 102.775 C 161.712 102.239,161.350 101.710,161.191 101.600 C 160.151 100.882,156.513 92.282,155.523 88.200 C 154.104 82.355,153.916 69.175,155.231 67.820 C 155.434 67.611,155.600 67.103,155.600 66.691 C 155.600 65.387,157.601 59.912,159.178 56.900 C 160.739 53.918,160.868 53.554,159.990 54.613 M241.600 58.156 C 241.600 58.242,241.956 59.097,242.391 60.056 C 242.826 61.015,243.186 61.513,243.191 61.161 C 243.200 60.504,242.075 58.000,241.771 58.000 C 241.677 58.000,241.600 58.070,241.600 58.156 M244.497 66.111 C 244.709 67.040,245.015 69.060,245.177 70.600 L 245.471 73.400 245.535 70.524 C 245.571 68.942,245.420 67.536,245.200 67.400 C 244.980 67.264,244.800 66.634,244.800 66.000 C 244.800 65.366,244.645 64.751,244.456 64.634 C 244.266 64.517,244.285 65.182,244.497 66.111 M245.743 77.519 C 245.711 79.654,245.530 82.697,245.340 84.283 C 245.150 85.868,245.116 87.038,245.264 86.883 C 245.826 86.292,246.620 74.460,246.130 73.969 C 245.948 73.787,245.774 75.385,245.743 77.519 M244.460 88.326 C 244.427 88.836,244.245 89.556,244.055 89.926 C 243.443 91.123,243.133 92.889,243.584 92.610 C 243.813 92.468,244.000 91.949,244.000 91.456 C 244.000 90.963,244.194 90.366,244.431 90.129 C 244.668 89.892,244.785 89.181,244.691 88.549 C 244.554 87.628,244.508 87.584,244.460 88.326 M242.301 94.886 C 241.916 95.793,241.676 96.609,241.767 96.700 C 242.017 96.950,243.297 94.088,243.138 93.634 C 243.062 93.415,242.685 93.979,242.301 94.886 M239.743 100.150 C 239.363 100.948,238.905 101.600,238.726 101.600 C 238.547 101.600,238.400 101.802,238.400 102.049 C 238.400 102.764,239.497 101.690,240.193 100.293 C 240.529 99.620,240.720 98.987,240.619 98.886 C 240.517 98.784,240.123 99.353,239.743 100.150 M237.479 103.617 C 237.105 104.052,236.800 104.563,236.800 104.751 C 236.800 106.621,225.502 115.857,219.881 118.582 C 218.165 119.414,216.841 120.174,216.939 120.272 C 217.244 120.577,225.477 116.197,226.729 115.064 C 227.133 114.699,227.632 114.400,227.838 114.400 C 228.329 114.400,236.356 106.191,237.548 104.469 C 238.578 102.981,238.530 102.389,237.479 103.617 M214.600 120.800 C 214.096 121.017,214.022 121.144,214.400 121.144 C 214.730 121.144,215.360 120.989,215.800 120.800 C 216.304 120.583,216.378 120.456,216.000 120.456 C 215.670 120.456,215.040 120.611,214.600 120.800 M186.800 121.600 C 187.130 121.813,187.850 121.973,188.400 121.954 L 189.400 121.920 188.400 121.600 C 186.858 121.106,186.036 121.106,186.800 121.600 M211.600 121.600 L 210.600 121.920 211.600 121.954 C 212.150 121.973,212.870 121.813,213.200 121.600 C 213.964 121.106,213.142 121.106,211.600 121.600 M190.021 122.421 C 190.555 122.760,193.542 122.981,193.167 122.655 C 193.075 122.575,192.199 122.408,191.221 122.282 C 190.070 122.135,189.646 122.184,190.021 122.421 M208.400 122.400 C 207.016 122.691,207.014 122.695,208.200 122.741 C 208.860 122.767,209.670 122.613,210.000 122.400 C 210.666 121.970,210.445 121.970,208.400 122.400 M194.938 123.294 C 195.547 123.682,205.099 123.687,205.338 123.300 C 205.440 123.135,203.038 123.000,200.000 123.000 C 196.962 123.000,194.684 123.132,194.938 123.294 " stroke="none" fill="#4c2424" fill-rule="evenodd"></path><path id="path8" d="M129.462 13.100 C 129.360 13.265,160.714 13.350,199.138 13.289 C 237.562 13.229,269.405 13.277,269.900 13.397 L 270.800 13.615 270.800 200.000 L 270.800 386.385 269.900 386.603 C 269.405 386.723,237.562 386.771,199.138 386.711 C 160.714 386.650,129.360 386.735,129.462 386.900 C 129.798 387.445,270.174 387.266,270.720 386.720 C 271.420 386.020,271.420 13.980,270.720 13.280 C 270.174 12.734,129.798 12.555,129.462 13.100 M200.600 19.639 C 209.544 19.977,214.071 20.714,218.950 22.626 C 219.802 22.960,220.571 23.162,220.659 23.074 C 221.095 22.639,214.066 20.642,208.576 19.642 C 207.243 19.399,203.193 19.234,199.576 19.276 L 193.000 19.352 200.600 19.639 M190.000 19.893 C 186.271 20.332,175.600 23.852,175.600 24.642 C 175.600 24.755,175.735 24.783,175.900 24.705 C 180.012 22.752,184.177 21.488,191.200 20.062 C 193.054 19.685,192.467 19.602,190.000 19.893 M170.400 27.236 C 169.736 27.779,169.669 27.915,170.200 27.640 C 171.505 26.966,172.228 26.412,171.800 26.415 C 171.580 26.417,170.950 26.786,170.400 27.236 M230.844 28.177 C 230.941 28.274,231.736 28.819,232.610 29.387 L 234.200 30.419 232.815 29.210 C 231.734 28.265,230.050 27.383,230.844 28.177 M166.562 29.662 L 165.800 30.524 166.900 29.816 C 168.034 29.086,168.249 28.800,167.662 28.800 C 167.476 28.800,166.981 29.188,166.562 29.662 M161.973 33.271 C 160.145 34.851,158.099 36.772,157.425 37.541 C 156.751 38.309,156.020 39.138,155.800 39.382 C 153.581 41.841,154.594 41.012,158.006 37.578 C 160.313 35.257,163.010 32.700,164.000 31.896 C 164.990 31.093,165.687 30.428,165.548 30.418 C 165.409 30.408,163.801 31.692,161.973 33.271 M240.027 35.600 C 244.012 39.569,248.400 44.721,248.400 45.432 C 248.400 45.555,248.902 46.408,249.515 47.328 C 250.128 48.248,250.975 49.668,251.397 50.484 C 251.819 51.301,252.242 51.892,252.336 51.798 C 252.541 51.592,248.855 45.047,247.989 44.081 C 247.653 43.707,246.935 42.772,246.394 42.005 C 244.653 39.536,239.317 34.047,236.603 31.932 C 235.945 31.420,237.486 33.070,240.027 35.600 M151.772 44.618 C 150.744 46.059,149.984 47.317,150.083 47.416 C 150.181 47.515,151.097 46.336,152.118 44.798 C 154.460 41.269,154.243 41.156,151.772 44.618 M255.634 60.800 C 255.646 61.130,255.811 61.760,256.000 62.200 L 256.344 63.000 256.366 62.200 C 256.378 61.760,256.213 61.130,256.000 60.800 C 255.655 60.267,255.615 60.267,255.634 60.800 M143.867 61.067 C 143.720 61.213,143.611 61.708,143.625 62.167 C 143.649 62.933,143.682 62.923,144.034 62.042 C 144.426 61.063,144.344 60.589,143.867 61.067 M256.434 64.000 C 256.446 64.330,256.611 64.960,256.800 65.400 L 257.144 66.200 257.166 65.400 C 257.178 64.960,257.013 64.330,256.800 64.000 C 256.455 63.467,256.415 63.467,256.434 64.000 M143.067 64.267 C 142.920 64.413,142.818 65.088,142.841 65.767 L 142.882 67.000 143.210 65.603 C 143.553 64.147,143.517 63.816,143.067 64.267 M142.256 68.484 C 142.121 68.988,142.030 70.120,142.054 71.000 C 142.092 72.378,142.146 72.271,142.443 70.228 C 142.798 67.799,142.695 66.846,142.256 68.484 M257.253 68.200 C 257.276 68.640,257.432 69.540,257.600 70.200 L 257.905 71.400 257.947 70.000 C 257.969 69.230,257.813 68.330,257.600 68.000 C 257.281 67.506,257.220 67.542,257.253 68.200 M258.131 77.400 C 258.133 78.940,258.205 79.521,258.292 78.691 C 258.379 77.861,258.377 76.601,258.289 75.891 C 258.200 75.181,258.129 75.860,258.131 77.400 M141.714 77.400 C 141.717 78.500,141.795 78.903,141.887 78.295 C 141.979 77.686,141.977 76.786,141.882 76.295 C 141.787 75.803,141.711 76.300,141.714 77.400 M142.028 84.033 C 142.044 85.005,142.214 86.160,142.408 86.600 C 142.631 87.108,142.674 86.524,142.524 85.000 C 142.240 82.099,141.990 81.612,142.028 84.033 M257.447 85.337 C 257.278 86.402,257.232 87.365,257.344 87.478 C 257.636 87.769,258.105 85.024,257.914 84.140 C 257.827 83.733,257.616 84.271,257.447 85.337 M142.800 89.310 C 142.800 89.883,142.987 90.468,143.216 90.610 C 143.489 90.779,143.538 90.477,143.360 89.734 C 142.992 88.201,142.800 88.056,142.800 89.310 M256.629 89.829 C 256.481 90.415,256.451 90.984,256.561 91.094 C 256.671 91.204,256.881 90.815,257.029 90.229 C 257.176 89.642,257.206 89.073,257.096 88.963 C 256.986 88.853,256.776 89.242,256.629 89.829 M143.628 92.676 C 143.613 93.158,143.780 93.664,144.000 93.800 C 144.473 94.092,144.473 93.701,144.000 92.600 C 143.669 91.829,143.655 91.831,143.628 92.676 M255.829 93.029 C 255.681 93.615,255.651 94.184,255.761 94.294 C 255.871 94.404,256.081 94.015,256.229 93.429 C 256.376 92.842,256.406 92.273,256.296 92.163 C 256.186 92.053,255.976 92.442,255.829 93.029 M253.199 100.602 C 252.966 101.214,252.681 101.869,252.564 102.058 C 252.448 102.246,252.449 102.400,252.566 102.400 C 252.915 102.400,254.078 99.944,253.841 99.707 C 253.721 99.587,253.432 99.990,253.199 100.602 M251.093 104.924 C 249.299 108.349,246.961 111.718,244.000 115.144 C 242.460 116.926,241.200 118.506,241.200 118.653 C 241.200 118.801,241.574 118.490,242.031 117.961 C 242.488 117.433,243.436 116.370,244.137 115.600 C 247.145 112.297,252.853 103.520,252.332 102.999 C 252.249 102.916,251.691 103.782,251.093 104.924 M149.646 106.900 C 150.237 108.023,151.600 109.799,151.600 109.445 C 151.600 109.115,149.550 106.000,149.333 106.000 C 149.244 106.000,149.385 106.405,149.646 106.900 M152.575 111.332 C 153.191 112.139,153.776 112.800,153.875 112.800 C 154.153 112.800,152.421 110.460,151.909 110.144 C 151.659 109.989,151.959 110.524,152.575 111.332 M154.601 113.984 C 158.728 119.066,168.280 127.453,169.057 126.676 C 169.173 126.560,168.848 126.243,168.334 125.971 C 166.088 124.784,162.283 121.585,158.201 117.453 C 155.781 115.004,154.161 113.443,154.601 113.984 M238.000 121.298 C 236.570 122.624,235.780 123.459,236.244 123.154 C 237.514 122.319,240.931 119.196,240.754 119.032 C 240.670 118.952,239.430 119.972,238.000 121.298 M232.239 125.647 C 228.873 128.027,229.084 128.244,232.522 125.938 C 235.484 123.951,235.375 124.038,235.167 123.847 C 235.075 123.764,233.757 124.574,232.239 125.647 M170.400 127.543 C 171.953 128.846,177.528 131.526,180.573 132.436 C 182.275 132.944,181.290 132.261,179.400 131.623 C 177.652 131.032,172.508 128.581,170.600 127.430 L 169.400 126.705 170.400 127.543 M227.800 128.437 C 227.140 128.895,226.870 129.164,227.200 129.035 C 227.530 128.906,228.115 128.689,228.500 128.554 C 228.885 128.418,229.200 128.148,229.200 127.953 C 229.200 127.476,229.172 127.486,227.800 128.437 M224.500 130.026 C 223.565 130.465,222.800 130.919,222.800 131.035 C 222.800 131.152,222.935 131.177,223.100 131.091 C 223.265 131.005,224.075 130.626,224.900 130.248 C 225.725 129.871,226.400 129.481,226.400 129.381 C 226.400 129.133,226.416 129.128,224.500 130.026 M220.400 131.675 C 218.709 132.387,217.848 132.724,216.600 133.166 L 215.400 133.591 216.722 133.359 C 218.250 133.091,222.897 131.229,222.000 131.244 C 221.670 131.250,220.950 131.444,220.400 131.675 M182.033 132.944 C 182.125 133.023,182.740 133.208,183.400 133.356 C 184.276 133.552,184.438 133.515,184.000 133.218 C 183.460 132.853,181.632 132.598,182.033 132.944 M185.600 134.000 C 186.968 134.438,188.019 134.438,187.000 134.000 C 186.560 133.811,185.840 133.662,185.400 133.668 C 184.757 133.677,184.796 133.743,185.600 134.000 M213.000 134.000 C 211.981 134.438,213.032 134.438,214.400 134.000 C 215.204 133.743,215.243 133.677,214.600 133.668 C 214.160 133.662,213.440 133.811,213.000 134.000 M189.400 134.823 C 191.426 135.242,193.063 135.223,191.400 134.800 C 190.740 134.632,189.660 134.494,189.000 134.493 C 187.991 134.492,188.055 134.545,189.400 134.823 M208.800 134.820 C 208.126 135.049,208.451 135.084,209.800 134.928 C 210.900 134.801,211.875 134.631,211.967 134.549 C 212.282 134.268,209.799 134.480,208.800 134.820 M196.300 135.635 C 198.335 135.792,201.665 135.792,203.700 135.635 C 206.771 135.398,206.142 135.350,200.000 135.350 C 193.858 135.350,193.229 135.398,196.300 135.635 M198.900 141.887 C 199.505 141.978,200.495 141.978,201.100 141.887 C 201.705 141.795,201.210 141.720,200.000 141.720 C 198.790 141.720,198.295 141.795,198.900 141.887 M190.800 142.416 C 190.382 142.697,190.867 142.739,192.400 142.555 C 193.610 142.410,194.675 142.226,194.767 142.146 C 195.170 141.793,191.338 142.054,190.800 142.416 M205.233 142.144 C 205.325 142.223,206.390 142.399,207.600 142.534 C 209.070 142.698,209.601 142.652,209.200 142.396 C 208.656 142.048,204.842 141.806,205.233 142.144 M186.800 143.200 C 186.036 143.694,186.858 143.694,188.400 143.200 L 189.400 142.880 188.400 142.846 C 187.850 142.827,187.130 142.987,186.800 143.200 M210.833 142.943 C 210.925 143.021,211.630 143.201,212.400 143.342 C 213.385 143.523,213.622 143.482,213.200 143.206 C 212.658 142.850,210.437 142.603,210.833 142.943 M183.600 144.000 C 182.805 144.514,183.804 144.514,185.000 144.000 L 185.800 143.656 185.000 143.634 C 184.560 143.622,183.930 143.787,183.600 144.000 M215.000 144.000 C 216.196 144.514,217.195 144.514,216.400 144.000 C 216.070 143.787,215.440 143.622,215.000 143.634 L 214.200 143.656 215.000 144.000 M224.000 147.200 C 225.210 147.839,226.380 148.362,226.600 148.362 C 226.820 148.362,226.010 147.839,224.800 147.200 C 223.590 146.561,222.420 146.038,222.200 146.038 C 221.980 146.038,222.790 146.561,224.000 147.200 M174.400 147.600 C 173.630 148.022,173.180 148.366,173.400 148.366 C 173.620 148.366,174.430 148.022,175.200 147.600 C 175.970 147.178,176.420 146.834,176.200 146.834 C 175.980 146.834,175.170 147.178,174.400 147.600 M169.682 150.177 C 163.188 154.180,156.880 160.015,152.755 165.834 C 150.340 169.240,148.188 172.800,148.543 172.800 C 148.663 172.800,149.420 171.675,150.224 170.300 C 152.429 166.530,155.549 162.555,159.052 159.052 C 162.555 155.549,166.530 152.429,170.300 150.224 C 172.438 148.973,173.187 148.400,172.682 148.400 C 172.616 148.400,171.266 149.199,169.682 150.177 M228.000 149.167 C 228.963 149.952,229.600 150.208,229.600 149.810 C 229.600 149.706,229.015 149.335,228.300 148.986 L 227.000 148.352 228.000 149.167 M230.790 150.673 C 236.500 154.867,238.237 156.293,240.972 159.028 C 243.707 161.763,245.133 163.500,249.327 169.210 C 249.853 169.927,249.830 169.813,249.244 168.800 C 245.678 162.637,237.363 154.322,231.200 150.756 C 230.187 150.170,230.073 150.147,230.790 150.673 M250.009 170.700 C 250.014 170.865,250.385 171.450,250.833 172.000 L 251.648 173.000 251.014 171.700 C 250.411 170.465,249.989 170.045,250.009 170.700 M147.472 174.619 C 146.532 176.589,146.664 176.924,147.647 175.062 C 148.093 174.216,148.387 173.454,148.301 173.367 C 148.214 173.281,147.841 173.844,147.472 174.619 M252.434 175.000 C 252.434 175.220,252.778 176.030,253.200 176.800 C 253.622 177.570,253.966 178.020,253.966 177.800 C 253.966 177.580,253.622 176.770,253.200 176.000 C 252.778 175.230,252.434 174.780,252.434 175.000 M143.873 183.753 C 143.723 184.145,143.611 184.766,143.625 185.133 C 143.642 185.575,143.781 185.474,144.037 184.834 C 144.249 184.303,144.361 183.682,144.285 183.454 C 144.209 183.227,144.024 183.361,143.873 183.753 M143.049 187.015 C 142.912 187.373,142.816 188.056,142.836 188.533 C 142.862 189.147,142.985 189.008,143.259 188.056 C 143.657 186.672,143.494 185.858,143.049 187.015 M256.640 187.466 C 257.008 188.999,257.200 189.144,257.200 187.890 C 257.200 187.317,257.013 186.732,256.784 186.590 C 256.511 186.421,256.462 186.723,256.640 187.466 M257.459 191.800 C 257.593 192.900,257.769 193.875,257.851 193.967 C 258.164 194.317,257.926 191.361,257.580 190.600 C 257.335 190.061,257.295 190.454,257.459 191.800 M142.249 191.015 C 142.112 191.373,142.021 192.416,142.047 193.333 C 142.093 194.984,142.097 194.979,142.452 192.839 C 142.812 190.670,142.715 189.801,142.249 191.015 M258.128 200.000 C 258.128 201.430,258.201 202.015,258.289 201.300 C 258.378 200.585,258.378 199.415,258.289 198.700 C 258.201 197.985,258.128 198.570,258.128 200.000 M141.720 200.000 C 141.720 201.210,141.795 201.705,141.887 201.100 C 141.978 200.495,141.978 199.505,141.887 198.900 C 141.795 198.295,141.720 198.790,141.720 200.000 M142.006 206.833 C 142.009 207.805,142.185 208.870,142.396 209.200 C 142.652 209.601,142.698 209.070,142.534 207.600 C 142.227 204.852,141.998 204.520,142.006 206.833 M257.664 206.650 C 257.629 207.118,257.505 208.107,257.389 208.850 C 257.196 210.086,257.215 210.117,257.608 209.214 C 257.845 208.672,257.968 207.682,257.883 207.014 C 257.791 206.297,257.702 206.148,257.664 206.650 M142.806 211.633 C 142.809 212.165,142.989 212.870,143.206 213.200 C 143.482 213.622,143.523 213.385,143.342 212.400 C 143.025 210.675,142.798 210.349,142.806 211.633 M256.854 211.667 C 256.825 212.034,256.684 212.664,256.541 213.067 C 256.341 213.633,256.395 213.696,256.775 213.346 C 257.046 213.097,257.187 212.467,257.088 211.946 C 256.990 211.426,256.884 211.300,256.854 211.667 M143.634 215.000 C 143.622 215.440,143.787 216.070,144.000 216.400 C 144.514 217.195,144.514 216.196,144.000 215.000 L 143.656 214.200 143.634 215.000 M255.829 215.829 C 255.681 216.415,255.651 216.984,255.761 217.094 C 255.871 217.204,256.081 216.815,256.229 216.229 C 256.376 215.642,256.406 215.073,256.296 214.963 C 256.186 214.853,255.976 215.242,255.829 215.829 M146.038 222.200 C 146.038 222.420,146.561 223.590,147.200 224.800 C 147.839 226.010,148.362 226.820,148.362 226.600 C 148.362 226.380,147.839 225.210,147.200 224.000 C 146.561 222.790,146.038 221.980,146.038 222.200 M148.950 228.200 C 149.274 228.860,149.831 229.760,150.189 230.200 C 150.797 230.948,150.801 230.922,150.250 229.800 C 149.926 229.140,149.369 228.240,149.011 227.800 C 148.403 227.052,148.399 227.078,148.950 228.200 M248.747 231.495 C 247.786 232.977,245.693 235.765,244.095 237.690 C 241.002 241.417,235.912 245.884,231.495 248.747 C 230.013 249.708,228.800 250.573,228.800 250.671 C 228.800 250.891,229.164 250.676,232.400 248.545 C 239.290 244.007,245.941 236.954,250.546 229.300 C 250.712 229.025,250.768 228.800,250.671 228.800 C 250.573 228.800,249.708 230.013,248.747 231.495 M151.391 232.200 C 154.255 236.855,160.771 243.639,165.842 247.245 C 169.229 249.652,172.800 251.814,172.800 251.457 C 172.800 251.337,171.675 250.580,170.300 249.776 C 164.380 246.313,157.855 240.433,153.681 234.800 C 151.175 231.417,150.297 230.420,151.391 232.200 M175.200 252.800 C 176.410 253.439,177.580 253.962,177.800 253.962 C 178.020 253.962,177.210 253.439,176.000 252.800 C 174.790 252.161,173.620 251.638,173.400 251.638 C 173.180 251.638,173.990 252.161,175.200 252.800 M215.400 256.000 L 214.600 256.344 215.400 256.366 C 215.840 256.378,216.470 256.213,216.800 256.000 C 217.595 255.486,216.596 255.486,215.400 256.000 M186.590 256.784 C 186.732 257.013,187.317 257.200,187.890 257.200 C 189.144 257.200,188.999 257.008,187.466 256.640 C 186.723 256.462,186.421 256.511,186.590 256.784 M212.000 256.800 L 211.000 257.120 212.076 257.160 C 212.668 257.182,213.264 257.020,213.400 256.800 C 213.681 256.345,213.420 256.345,212.000 256.800 M190.600 257.580 C 191.361 257.926,194.317 258.164,193.967 257.851 C 193.875 257.769,192.900 257.593,191.800 257.459 C 190.454 257.295,190.061 257.335,190.600 257.580 M207.200 257.600 L 205.800 257.895 207.200 257.919 C 207.970 257.933,208.960 257.789,209.400 257.600 L 210.200 257.256 209.400 257.281 C 208.960 257.294,207.970 257.438,207.200 257.600 M198.700 258.289 C 199.415 258.378,200.585 258.378,201.300 258.289 C 202.015 258.201,201.430 258.128,200.000 258.128 C 198.570 258.128,197.985 258.201,198.700 258.289 M196.400 264.403 C 194.453 264.597,195.349 264.679,199.967 264.731 C 203.358 264.769,206.058 264.735,205.967 264.656 C 205.601 264.338,198.841 264.160,196.400 264.403 M189.600 265.200 L 188.600 265.520 189.600 265.520 C 190.150 265.520,191.050 265.376,191.600 265.200 L 192.600 264.880 191.600 264.880 C 191.050 264.880,190.150 265.024,189.600 265.200 M208.400 265.200 C 208.950 265.376,209.850 265.520,210.400 265.520 L 211.400 265.520 210.400 265.200 C 209.850 265.024,208.950 264.880,208.400 264.880 L 207.400 264.880 208.400 265.200 M186.000 266.000 C 185.467 266.345,185.467 266.388,186.000 266.388 C 186.330 266.388,186.870 266.213,187.200 266.000 C 187.733 265.655,187.733 265.612,187.200 265.612 C 186.870 265.612,186.330 265.787,186.000 266.000 M212.800 266.000 C 213.130 266.213,213.670 266.388,214.000 266.388 C 214.533 266.388,214.533 266.345,214.000 266.000 C 213.670 265.787,213.130 265.612,212.800 265.612 C 212.267 265.612,212.267 265.655,212.800 266.000 M183.000 266.800 C 182.496 267.017,182.422 267.144,182.800 267.144 C 183.130 267.144,183.760 266.989,184.200 266.800 C 184.704 266.583,184.778 266.456,184.400 266.456 C 184.070 266.456,183.440 266.611,183.000 266.800 M217.345 267.250 C 218.635 267.686,219.778 267.956,219.885 267.849 C 220.093 267.640,216.140 266.381,215.427 266.429 C 215.192 266.444,216.055 266.814,217.345 267.250 M175.800 269.509 C 172.073 271.257,166.000 274.817,166.000 275.253 C 166.000 275.419,166.945 274.930,168.100 274.167 C 170.840 272.356,177.760 268.800,178.542 268.800 C 178.878 268.800,179.264 268.620,179.400 268.400 C 179.811 267.735,179.146 267.940,175.800 269.509 M221.958 268.837 C 222.925 269.266,223.788 269.545,223.875 269.458 C 224.048 269.286,220.965 267.982,220.492 268.028 C 220.331 268.044,220.991 268.408,221.958 268.837 M226.203 270.805 C 226.337 271.022,226.613 271.200,226.816 271.200 C 227.180 271.200,230.765 273.351,232.900 274.851 C 233.505 275.276,234.000 275.473,234.000 275.288 C 234.000 275.104,232.519 274.063,230.709 272.976 C 227.084 270.800,225.825 270.193,226.203 270.805 M235.600 276.666 C 241.684 281.495,247.794 288.947,251.942 296.600 C 252.181 297.040,252.381 297.211,252.388 296.979 C 252.472 294.068,241.297 280.275,236.000 276.752 C 234.320 275.635,234.293 275.629,235.600 276.666 M199.100 277.082 C 199.595 277.178,200.405 277.178,200.900 277.082 C 201.395 276.987,200.990 276.909,200.000 276.909 C 199.010 276.909,198.605 276.987,199.100 277.082 M159.303 280.900 C 157.285 282.935,155.249 285.140,154.778 285.800 C 154.307 286.460,155.000 285.830,156.319 284.400 C 157.637 282.970,159.856 280.765,161.249 279.500 C 162.643 278.235,163.600 277.200,163.377 277.200 C 163.154 277.200,161.320 278.865,159.303 280.900 M195.305 277.487 C 195.914 277.579,196.814 277.577,197.305 277.482 C 197.797 277.387,197.300 277.311,196.200 277.314 C 195.100 277.317,194.697 277.395,195.305 277.487 M202.905 277.487 C 203.514 277.579,204.414 277.577,204.905 277.482 C 205.397 277.387,204.900 277.311,203.800 277.314 C 202.700 277.317,202.297 277.395,202.905 277.487 M190.400 278.000 C 189.056 278.431,190.508 278.431,192.200 278.000 C 193.278 277.726,193.298 277.694,192.400 277.687 C 191.850 277.683,190.950 277.824,190.400 278.000 M207.800 278.000 C 209.492 278.431,210.944 278.431,209.600 278.000 C 209.050 277.824,208.150 277.683,207.600 277.687 C 206.702 277.694,206.722 277.726,207.800 278.000 M187.400 278.800 C 186.896 279.017,186.822 279.144,187.200 279.144 C 187.530 279.144,188.160 278.989,188.600 278.800 C 189.104 278.583,189.178 278.456,188.800 278.456 C 188.470 278.456,187.840 278.611,187.400 278.800 M211.400 278.800 C 211.840 278.989,212.470 279.144,212.800 279.144 C 213.178 279.144,213.104 279.017,212.600 278.800 C 212.160 278.611,211.530 278.456,211.200 278.456 C 210.822 278.456,210.896 278.583,211.400 278.800 M183.600 280.000 C 181.765 281.005,182.250 281.010,184.456 280.009 C 185.415 279.574,185.930 279.221,185.600 279.226 C 185.270 279.230,184.370 279.578,183.600 280.000 M215.146 279.816 C 215.886 280.137,216.606 280.394,216.746 280.386 C 217.266 280.357,214.976 279.228,214.400 279.230 C 214.070 279.231,214.406 279.494,215.146 279.816 M219.590 281.626 C 221.014 282.300,222.443 283.064,222.766 283.325 C 223.228 283.698,223.288 283.691,223.048 283.291 C 222.696 282.706,218.279 280.400,217.511 280.400 C 217.230 280.400,218.165 280.952,219.590 281.626 M179.526 281.614 C 178.715 282.042,177.916 282.619,177.749 282.896 C 177.510 283.295,177.572 283.299,178.046 282.915 C 178.376 282.648,179.446 282.067,180.423 281.624 C 181.400 281.180,181.930 280.822,181.600 280.826 C 181.270 280.831,180.337 281.186,179.526 281.614 M175.800 283.876 C 173.669 285.020,170.273 287.855,167.200 291.057 L 164.200 294.183 167.801 290.791 C 171.879 286.950,173.088 285.968,175.500 284.534 C 176.435 283.979,177.200 283.451,177.200 283.362 C 177.200 283.134,177.143 283.155,175.800 283.876 M223.600 283.719 C 223.600 283.799,224.545 284.475,225.700 285.220 C 228.879 287.271,235.009 293.400,237.269 296.787 C 239.625 300.317,239.959 300.707,238.993 298.800 C 236.777 294.425,223.600 281.515,223.600 283.719 M152.575 288.668 C 151.959 289.476,151.659 290.011,151.909 289.856 C 152.421 289.540,154.153 287.200,153.875 287.200 C 153.776 287.200,153.191 287.861,152.575 288.668 M150.716 291.288 C 149.851 292.622,149.148 294.000,149.333 294.000 C 149.625 294.000,151.664 290.730,151.484 290.551 C 151.387 290.454,151.042 290.786,150.716 291.288 M162.629 296.413 C 161.784 297.521,161.181 298.514,161.288 298.622 C 161.451 298.784,162.756 297.072,164.120 294.908 C 164.864 293.727,164.053 294.546,162.629 296.413 M159.768 301.018 C 159.182 302.018,158.770 302.904,158.853 302.986 C 158.935 303.068,159.497 302.250,160.101 301.168 C 161.483 298.693,161.205 298.567,159.768 301.018 M157.265 306.445 C 156.482 308.535,156.445 309.298,157.208 307.642 C 157.653 306.675,157.928 305.795,157.820 305.686 C 157.711 305.578,157.461 305.919,157.265 306.445 M255.634 306.000 C 255.646 306.330,255.811 306.960,256.000 307.400 L 256.344 308.200 256.366 307.400 C 256.378 306.960,256.213 306.330,256.000 306.000 C 255.655 305.467,255.615 305.467,255.634 306.000 M143.867 306.267 C 143.720 306.413,143.611 306.908,143.625 307.367 C 143.649 308.133,143.682 308.123,144.034 307.242 C 144.426 306.263,144.344 305.789,143.867 306.267 M256.434 309.200 C 256.446 309.530,256.611 310.160,256.800 310.600 L 257.144 311.400 257.166 310.600 C 257.178 310.160,257.013 309.530,256.800 309.200 C 256.455 308.667,256.415 308.667,256.434 309.200 M143.067 309.467 C 142.920 309.613,142.818 310.288,142.841 310.967 L 142.882 312.200 143.210 310.803 C 143.553 309.347,143.517 309.016,143.067 309.467 M155.850 310.850 C 155.517 312.517,155.840 312.840,156.200 311.200 C 156.352 310.509,156.393 309.859,156.291 309.758 C 156.189 309.656,155.991 310.147,155.850 310.850 M243.656 310.200 C 243.656 310.640,243.811 311.360,244.000 311.800 L 244.344 312.600 244.344 311.800 C 244.344 311.360,244.189 310.640,244.000 310.200 L 243.656 309.400 243.656 310.200 M257.275 313.200 C 257.286 313.750,257.432 314.740,257.600 315.400 L 257.905 316.600 257.925 315.200 C 257.935 314.430,257.789 313.440,257.600 313.000 C 257.288 312.274,257.258 312.293,257.275 313.200 M142.256 313.684 C 142.121 314.188,142.030 315.320,142.054 316.200 C 142.092 317.578,142.146 317.471,142.443 315.428 C 142.798 312.999,142.695 312.046,142.256 313.684 M154.982 314.582 C 154.829 315.602,154.794 316.527,154.904 316.637 C 155.014 316.747,155.229 316.002,155.382 314.982 C 155.535 313.961,155.570 313.037,155.460 312.927 C 155.350 312.817,155.135 313.561,154.982 314.582 M244.659 314.600 C 244.793 315.700,244.969 316.675,245.051 316.767 C 245.364 317.117,245.126 314.161,244.780 313.400 C 244.535 312.861,244.495 313.254,244.659 314.600 M154.336 319.900 C 154.261 321.165,154.303 323.550,154.428 325.200 C 154.621 327.740,154.667 327.387,154.728 322.900 C 154.802 317.479,154.579 315.774,154.336 319.900 M245.339 322.800 C 245.339 326.911,245.394 327.493,245.569 325.237 C 245.696 323.607,245.697 321.177,245.570 319.837 C 245.421 318.257,245.340 319.299,245.339 322.800 M258.131 322.600 C 258.133 324.140,258.205 324.721,258.292 323.891 C 258.379 323.061,258.377 321.801,258.289 321.091 C 258.200 320.381,258.129 321.060,258.131 322.600 M141.720 322.800 C 141.720 324.010,141.795 324.505,141.887 323.900 C 141.978 323.295,141.978 322.305,141.887 321.700 C 141.795 321.095,141.720 321.590,141.720 322.800 M142.028 329.233 C 142.044 330.205,142.214 331.360,142.408 331.800 C 142.631 332.308,142.674 331.724,142.524 330.200 C 142.240 327.299,141.990 326.812,142.028 329.233 M154.875 329.600 C 154.865 330.370,155.011 331.360,155.200 331.800 C 155.657 332.864,155.657 331.197,155.200 329.400 L 154.895 328.200 154.875 329.600 M244.846 329.416 C 244.821 329.865,244.525 331.289,244.188 332.581 C 243.852 333.872,243.642 335.125,243.721 335.363 C 243.954 336.061,245.290 330.137,245.082 329.331 C 244.915 328.688,244.887 328.698,244.846 329.416 M257.664 329.250 C 257.629 329.608,257.498 330.507,257.373 331.250 C 257.188 332.355,257.229 332.471,257.598 331.891 C 257.846 331.502,257.977 330.602,257.889 329.891 C 257.800 329.181,257.699 328.893,257.664 329.250 M155.656 333.400 C 155.656 333.840,155.811 334.560,156.000 335.000 L 156.344 335.800 156.344 335.000 C 156.344 334.560,156.189 333.840,156.000 333.400 L 155.656 332.600 155.656 333.400 M142.800 334.310 C 142.800 334.993,142.977 335.662,143.194 335.796 C 143.440 335.948,143.494 335.545,143.337 334.720 C 143.000 332.951,142.800 332.799,142.800 334.310 M256.629 335.029 C 256.481 335.615,256.451 336.184,256.561 336.294 C 256.671 336.404,256.881 336.015,257.029 335.429 C 257.176 334.842,257.206 334.273,257.096 334.163 C 256.986 334.053,256.776 334.442,256.629 335.029 M143.628 337.876 C 143.613 338.358,143.780 338.864,144.000 339.000 C 144.473 339.292,144.473 338.901,144.000 337.800 C 143.669 337.029,143.655 337.031,143.628 337.876 M255.829 338.229 C 255.681 338.815,255.651 339.384,255.761 339.494 C 255.871 339.604,256.081 339.215,256.229 338.629 C 256.376 338.042,256.406 337.473,256.296 337.363 C 256.186 337.253,255.976 337.642,255.829 338.229 M239.382 345.104 C 237.819 348.045,234.067 352.674,230.573 355.972 C 228.608 357.826,227.540 358.971,228.200 358.516 C 231.825 356.015,241.187 344.653,240.329 343.796 C 240.239 343.705,239.813 344.294,239.382 345.104 M160.987 346.375 C 161.321 347.021,161.776 347.661,161.998 347.799 C 162.220 347.936,162.023 347.407,161.561 346.624 C 160.548 344.907,160.135 344.728,160.987 346.375 M251.904 348.474 C 251.366 349.643,250.177 351.818,249.263 353.307 C 248.348 354.796,247.603 356.146,247.608 356.307 C 247.618 356.725,249.860 353.107,251.713 349.679 C 252.581 348.073,253.200 346.666,253.087 346.554 C 252.974 346.441,252.442 347.305,251.904 348.474 M147.600 348.220 C 147.600 348.672,148.866 350.867,149.031 350.702 C 149.220 350.514,148.047 348.000,147.771 348.000 C 147.677 348.000,147.600 348.099,147.600 348.220 M163.250 349.600 C 164.347 351.298,170.135 357.344,171.800 358.532 C 172.460 359.002,171.095 357.500,168.768 355.194 C 166.440 352.887,164.043 350.370,163.441 349.600 L 162.346 348.200 163.250 349.600 M150.000 352.507 C 150.000 352.879,153.254 357.586,153.702 357.863 C 153.902 357.987,153.301 356.943,152.365 355.544 C 150.483 352.729,150.000 352.109,150.000 352.507 M245.800 358.144 C 244.427 360.039,244.005 360.860,244.849 359.993 C 245.727 359.091,247.306 356.771,247.144 356.621 C 247.065 356.548,246.460 357.233,245.800 358.144 M154.625 359.271 C 155.837 360.947,162.424 367.347,164.200 368.575 C 165.738 369.638,165.730 369.622,164.000 368.162 C 163.010 367.326,160.321 364.743,158.025 362.421 C 155.728 360.100,154.198 358.682,154.625 359.271 M239.600 364.917 C 235.498 368.902,235.403 369.217,239.391 365.603 C 241.315 363.860,244.246 360.781,243.947 360.818 C 243.866 360.828,241.910 362.672,239.600 364.917 M180.000 363.396 C 180.000 363.670,182.449 364.884,182.632 364.701 C 182.719 364.614,182.162 364.244,181.395 363.878 C 180.628 363.512,180.000 363.295,180.000 363.396 M218.400 364.000 C 217.630 364.422,217.180 364.766,217.400 364.766 C 217.620 364.766,218.430 364.422,219.200 364.000 C 219.970 363.578,220.420 363.234,220.200 363.234 C 219.980 363.234,219.170 363.578,218.400 364.000 M213.400 365.820 C 211.860 366.337,210.880 366.769,211.222 366.780 C 211.925 366.803,216.800 365.215,216.800 364.963 C 216.800 364.711,216.410 364.809,213.400 365.820 M186.600 366.214 C 187.260 366.517,188.160 366.760,188.600 366.755 C 189.040 366.750,188.590 366.491,187.600 366.179 C 185.379 365.480,185.022 365.492,186.600 366.214 M191.700 367.476 C 192.085 367.576,192.715 367.576,193.100 367.476 C 193.485 367.375,193.170 367.293,192.400 367.293 C 191.630 367.293,191.315 367.375,191.700 367.476 M206.900 367.476 C 207.285 367.576,207.915 367.576,208.300 367.476 C 208.685 367.375,208.370 367.293,207.600 367.293 C 206.830 367.293,206.515 367.375,206.900 367.476 M232.302 370.702 C 230.818 371.711,229.679 372.612,229.771 372.704 C 229.972 372.905,234.644 369.775,234.999 369.202 C 235.349 368.635,235.302 368.661,232.302 370.702 M166.689 370.430 C 167.178 370.939,167.678 371.255,167.801 371.132 C 167.924 371.009,167.524 370.592,166.912 370.206 L 165.800 369.504 166.689 370.430 M227.900 373.429 C 227.295 373.757,226.800 374.110,226.800 374.213 C 226.800 374.599,227.432 374.357,228.400 373.600 C 229.589 372.670,229.411 372.609,227.900 373.429 M172.400 373.796 C 172.400 374.070,174.849 375.284,175.032 375.101 C 175.119 375.014,174.562 374.644,173.795 374.278 C 173.028 373.912,172.400 373.695,172.400 373.796 M179.341 377.074 C 179.726 377.459,182.477 378.390,183.200 378.380 C 183.530 378.375,182.817 378.018,181.615 377.586 C 179.235 376.730,178.927 376.660,179.341 377.074 M218.600 377.517 C 217.338 377.938,216.874 378.238,217.342 378.330 C 217.751 378.410,218.282 378.278,218.522 378.038 C 218.763 377.797,219.273 377.600,219.656 377.600 C 220.039 377.600,220.464 377.420,220.600 377.200 C 220.736 376.980,220.792 376.811,220.724 376.825 C 220.656 376.838,219.700 377.150,218.600 377.517 M184.190 378.784 C 184.332 379.013,184.917 379.200,185.490 379.200 C 186.744 379.200,186.599 379.008,185.066 378.640 C 184.323 378.462,184.021 378.511,184.190 378.784 M214.400 378.800 L 213.400 379.120 214.400 379.154 C 214.950 379.173,215.670 379.013,216.000 378.800 C 216.764 378.306,215.942 378.306,214.400 378.800 M187.400 379.597 C 188.164 379.928,191.114 380.155,190.767 379.856 C 190.675 379.777,189.700 379.609,188.600 379.482 C 187.313 379.333,186.885 379.374,187.400 379.597 M210.400 379.675 C 209.190 379.881,206.400 380.201,204.200 380.387 L 200.200 380.724 204.400 380.580 C 208.770 380.430,212.592 379.941,213.061 379.472 C 213.368 379.165,213.404 379.163,210.400 379.675 M192.000 380.426 C 192.962 380.709,200.217 380.880,199.400 380.600 C 199.180 380.524,197.200 380.388,195.000 380.297 C 192.800 380.206,191.450 380.264,192.000 380.426 " stroke="none" fill="#342c34" fill-rule="evenodd"></path></g></svg>