<svg id="svg" version="1.1" xmlns="http://www.w3.org/2000/svg" xmlns:xlink="http://www.w3.org/1999/xlink" width="400" height="400" viewBox="0, 0, 400,400"><g id="svgg"><path id="path0" d="M130.000 200.000 L 130.000 386.400 200.000 386.400 L 270.000 386.400 270.000 200.000 L 270.000 13.600 200.000 13.600 L 130.000 13.600 130.000 200.000 M206.000 19.219 C 211.297 19.703,213.338 20.024,213.780 20.441 C 213.989 20.638,214.754 20.800,215.480 20.800 C 216.206 20.800,216.800 20.980,216.800 21.200 C 216.800 21.420,217.340 21.600,218.000 21.600 C 218.660 21.600,219.200 21.780,219.200 22.000 C 219.200 22.220,219.650 22.400,220.200 22.400 C 220.750 22.400,221.200 22.580,221.200 22.800 C 221.200 23.020,221.639 23.200,222.176 23.200 C 222.713 23.200,223.264 23.380,223.400 23.600 C 223.536 23.820,223.997 24.000,224.424 24.000 C 224.851 24.000,225.200 24.180,225.200 24.400 C 225.200 24.620,225.560 24.800,226.000 24.800 C 226.440 24.800,226.800 24.980,226.800 25.200 C 226.800 25.420,227.160 25.600,227.600 25.600 C 228.040 25.600,228.400 25.752,228.400 25.937 C 228.400 26.123,229.255 26.707,230.300 27.237 C 231.345 27.766,232.380 28.334,232.600 28.499 C 237.538 32.197,239.553 33.910,242.300 36.742 C 244.115 38.613,245.600 40.315,245.600 40.525 C 245.600 40.735,245.924 41.197,246.319 41.553 C 246.714 41.909,247.471 42.830,248.000 43.600 C 248.529 44.370,249.060 45.090,249.181 45.200 C 249.301 45.310,249.625 45.805,249.900 46.300 C 250.175 46.795,250.625 47.605,250.900 48.100 C 251.175 48.595,251.490 49.090,251.600 49.200 C 251.809 49.409,254.293 54.814,254.817 56.200 C 257.917 64.401,259.254 74.041,258.466 82.506 C 258.054 86.925,256.516 94.551,255.623 96.600 C 255.431 97.040,255.007 98.120,254.680 99.000 C 253.575 101.974,252.613 104.000,252.306 104.000 C 252.138 104.000,252.000 104.360,252.000 104.800 C 252.000 105.240,251.841 105.600,251.647 105.600 C 251.452 105.600,251.193 105.915,251.071 106.300 C 250.802 107.149,249.586 109.174,248.900 109.916 C 248.625 110.214,248.400 110.605,248.400 110.786 C 248.400 110.967,247.860 111.693,247.200 112.400 C 246.540 113.107,246.000 113.832,246.000 114.013 C 246.000 114.605,237.774 122.642,235.764 124.013 C 234.684 124.750,233.740 125.499,233.667 125.677 C 233.593 125.855,233.278 126.000,232.967 126.000 C 232.655 126.000,232.400 126.159,232.400 126.353 C 232.400 126.548,232.085 126.807,231.700 126.929 C 230.764 127.225,228.634 128.524,228.467 128.900 C 228.393 129.065,227.988 129.200,227.567 129.200 C 227.145 129.200,226.800 129.380,226.800 129.600 C 226.800 129.820,226.440 130.000,226.000 130.000 C 225.560 130.000,225.200 130.180,225.200 130.400 C 225.200 130.620,224.840 130.800,224.400 130.800 C 223.960 130.800,223.600 130.980,223.600 131.200 C 223.600 131.420,223.251 131.600,222.824 131.600 C 222.397 131.600,221.936 131.780,221.800 132.000 C 221.664 132.220,221.113 132.400,220.576 132.400 C 220.039 132.400,219.600 132.580,219.600 132.800 C 219.600 133.020,219.161 133.200,218.624 133.200 C 218.087 133.200,217.536 133.380,217.400 133.600 C 217.264 133.820,216.544 134.000,215.800 134.000 C 215.056 134.000,214.348 134.161,214.226 134.358 C 214.105 134.555,213.239 134.828,212.303 134.965 C 211.366 135.102,209.160 135.422,207.400 135.675 C 203.239 136.275,197.072 136.279,192.800 135.685 C 186.464 134.804,185.995 134.716,185.774 134.358 C 185.652 134.161,184.933 134.000,184.176 134.000 C 183.419 134.000,182.800 133.820,182.800 133.600 C 182.800 133.380,182.361 133.200,181.824 133.200 C 181.287 133.200,180.736 133.020,180.600 132.800 C 180.464 132.580,179.924 132.400,179.400 132.400 C 178.876 132.400,178.336 132.220,178.200 132.000 C 178.064 131.780,177.603 131.600,177.176 131.600 C 176.749 131.600,176.400 131.420,176.400 131.200 C 176.400 130.980,176.040 130.800,175.600 130.800 C 175.160 130.800,174.800 130.620,174.800 130.400 C 174.800 130.180,174.440 130.000,174.000 130.000 C 173.560 130.000,173.200 129.820,173.200 129.600 C 173.200 129.380,172.840 129.200,172.400 129.200 C 171.960 129.200,171.600 129.020,171.600 128.800 C 171.600 128.580,171.364 128.400,171.075 128.400 C 170.787 128.400,170.164 128.040,169.692 127.600 C 169.220 127.160,168.556 126.800,168.217 126.800 C 167.878 126.800,167.600 126.662,167.600 126.494 C 167.600 126.326,166.880 125.744,166.000 125.200 C 165.120 124.656,164.400 124.074,164.400 123.906 C 164.400 123.738,164.215 123.600,163.989 123.600 C 163.212 123.600,156.523 117.181,154.564 114.555 C 153.926 113.700,153.292 112.910,153.154 112.800 C 153.016 112.690,151.982 111.160,150.856 109.400 C 149.730 107.640,148.626 105.983,148.404 105.717 C 148.182 105.451,148.000 105.052,148.000 104.829 C 148.000 104.606,147.617 103.744,147.148 102.912 C 145.890 100.677,143.600 94.139,143.600 92.780 C 143.600 92.131,143.420 91.600,143.200 91.600 C 142.980 91.600,142.800 90.891,142.800 90.024 C 142.800 89.157,142.620 88.336,142.400 88.200 C 142.180 88.064,142.000 86.559,142.000 84.856 C 142.000 83.153,141.807 81.567,141.570 81.330 C 140.975 80.735,141.757 67.711,142.430 67.020 C 142.634 66.811,142.800 65.866,142.800 64.920 C 142.800 63.974,142.980 63.200,143.200 63.200 C 143.420 63.200,143.600 62.662,143.600 62.005 C 143.600 58.360,150.487 44.373,153.670 41.553 C 154.071 41.197,154.400 40.735,154.400 40.525 C 154.400 38.814,165.441 29.421,170.500 26.829 C 171.105 26.519,171.600 26.115,171.600 25.932 C 171.600 25.750,171.960 25.600,172.400 25.600 C 172.840 25.600,173.200 25.420,173.200 25.200 C 173.200 24.980,173.560 24.800,174.000 24.800 C 174.440 24.800,174.800 24.620,174.800 24.400 C 174.800 24.180,175.149 24.000,175.576 24.000 C 176.003 24.000,176.464 23.820,176.600 23.600 C 176.736 23.380,177.287 23.200,177.824 23.200 C 178.361 23.200,178.800 23.020,178.800 22.800 C 178.800 22.580,179.239 22.400,179.776 22.400 C 180.313 22.400,180.864 22.220,181.000 22.000 C 181.136 21.780,181.687 21.600,182.224 21.600 C 182.761 21.600,183.200 21.420,183.200 21.200 C 183.200 20.980,183.794 20.800,184.520 20.800 C 185.246 20.800,186.011 20.638,186.220 20.441 C 186.687 20.000,188.944 19.668,194.299 19.253 C 196.553 19.079,198.533 18.798,198.699 18.631 C 198.864 18.463,199.720 18.448,200.600 18.598 C 201.480 18.748,203.910 19.028,206.000 19.219 M204.200 141.600 C 204.336 141.820,205.787 142.000,207.424 142.000 C 209.141 142.000,210.400 142.169,210.400 142.400 C 210.400 142.620,211.199 142.800,212.176 142.800 C 213.153 142.800,214.064 142.980,214.200 143.200 C 214.336 143.420,214.983 143.600,215.639 143.600 C 217.741 143.600,230.800 149.176,230.800 150.073 C 230.800 150.253,230.993 150.400,231.228 150.400 C 231.632 150.400,234.463 152.228,236.155 153.582 C 237.871 154.955,245.476 162.692,246.395 164.000 C 246.936 164.770,247.669 165.718,248.025 166.107 C 248.381 166.495,248.926 167.305,249.235 167.907 C 249.545 168.508,249.889 169.090,249.999 169.200 C 250.719 169.918,253.332 175.129,254.713 178.600 C 259.916 191.682,259.959 208.114,254.824 221.200 C 253.573 224.389,250.299 230.800,249.922 230.800 C 249.745 230.800,249.600 230.993,249.600 231.228 C 249.600 231.630,247.787 234.440,246.418 236.158 C 245.614 237.167,237.167 245.614,236.158 246.418 C 234.440 247.787,231.630 249.600,231.228 249.600 C 230.993 249.600,230.800 249.745,230.800 249.922 C 230.800 250.299,224.389 253.573,221.200 254.824 C 208.114 259.959,191.682 259.916,178.600 254.713 C 175.129 253.332,169.918 250.719,169.200 249.999 C 169.090 249.889,168.505 249.544,167.900 249.232 C 167.295 248.920,166.800 248.515,166.800 248.332 C 166.800 248.150,166.607 248.000,166.371 248.000 C 166.136 248.000,165.706 247.775,165.416 247.500 C 164.462 246.595,163.194 245.600,162.994 245.600 C 162.704 245.600,154.400 237.296,154.400 237.005 C 154.400 236.868,153.861 236.181,153.202 235.478 C 152.543 234.775,152.003 233.975,152.002 233.700 C 152.001 233.425,151.850 233.200,151.668 233.200 C 151.485 233.200,151.086 232.705,150.782 232.100 C 150.478 231.495,149.885 230.491,149.465 229.869 C 147.419 226.838,143.600 217.573,143.600 215.639 C 143.600 214.983,143.420 214.336,143.200 214.200 C 142.980 214.064,142.800 213.153,142.800 212.176 C 142.800 211.199,142.620 210.400,142.400 210.400 C 142.170 210.400,142.000 209.160,142.000 207.480 C 142.000 205.874,141.807 204.367,141.571 204.131 C 140.955 203.515,141.778 189.600,142.430 189.600 C 142.634 189.600,142.800 188.801,142.800 187.824 C 142.800 186.847,142.980 185.936,143.200 185.800 C 143.420 185.664,143.600 185.020,143.600 184.368 C 143.600 182.355,148.534 170.662,150.001 169.200 C 150.111 169.090,150.455 168.508,150.765 167.907 C 151.074 167.305,151.619 166.495,151.975 166.107 C 152.331 165.718,153.066 164.770,153.608 164.000 C 154.885 162.187,162.187 154.885,164.000 153.608 C 164.770 153.066,165.718 152.331,166.107 151.975 C 166.495 151.619,167.305 151.081,167.907 150.778 C 168.508 150.476,169.509 149.885,170.131 149.465 C 173.094 147.464,182.474 143.600,184.368 143.600 C 185.020 143.600,185.664 143.420,185.800 143.200 C 185.936 142.980,186.847 142.800,187.824 142.800 C 188.801 142.800,189.600 142.620,189.600 142.400 C 189.600 142.171,190.837 141.997,192.500 141.994 C 194.095 141.991,195.670 141.813,196.000 141.600 C 196.794 141.087,203.883 141.087,204.200 141.600 M207.600 264.413 C 211.431 264.851,213.198 265.168,214.200 265.597 C 214.946 265.917,215.740 266.115,218.500 266.670 C 219.105 266.791,219.600 267.050,219.600 267.245 C 219.600 267.440,220.039 267.600,220.576 267.600 C 221.113 267.600,221.664 267.780,221.800 268.000 C 221.936 268.220,222.397 268.400,222.824 268.400 C 223.251 268.400,223.600 268.580,223.600 268.800 C 223.600 269.020,223.960 269.200,224.400 269.200 C 224.840 269.200,225.200 269.380,225.200 269.600 C 225.200 269.820,225.560 270.000,226.000 270.000 C 226.440 270.000,226.800 270.180,226.800 270.400 C 226.800 270.620,227.160 270.800,227.600 270.800 C 228.040 270.800,228.400 270.959,228.400 271.153 C 228.400 271.348,228.715 271.607,229.100 271.729 C 229.941 271.995,231.971 273.211,232.702 273.886 C 232.992 274.153,233.763 274.687,234.415 275.072 C 235.067 275.457,235.600 275.914,235.600 276.086 C 235.600 276.259,235.785 276.400,236.011 276.400 C 236.793 276.400,244.021 283.342,245.590 285.600 C 246.124 286.370,246.842 287.270,247.184 287.600 C 247.526 287.930,248.060 288.695,248.370 289.300 C 248.681 289.905,249.085 290.400,249.268 290.400 C 249.450 290.400,249.600 290.678,249.600 291.017 C 249.600 291.356,249.960 292.020,250.400 292.492 C 250.840 292.964,251.200 293.587,251.200 293.875 C 251.200 294.164,251.380 294.400,251.600 294.400 C 251.820 294.400,252.000 294.760,252.000 295.200 C 252.000 295.640,252.180 296.000,252.400 296.000 C 252.620 296.000,252.800 296.253,252.800 296.562 C 252.800 296.871,253.186 297.906,253.657 298.862 C 256.027 303.670,257.767 310.385,258.440 317.323 C 259.279 325.980,257.579 338.139,254.753 343.695 C 254.559 344.077,254.400 344.564,254.400 344.777 C 254.400 345.432,251.912 350.504,250.724 352.272 C 250.106 353.192,249.600 354.137,249.600 354.372 C 249.600 354.607,249.450 354.800,249.268 354.800 C 249.085 354.800,248.680 355.295,248.368 355.900 C 248.055 356.505,247.305 357.477,246.700 358.060 C 246.095 358.644,245.600 359.312,245.600 359.545 C 245.600 360.885,234.560 370.607,230.600 372.755 C 229.720 373.232,228.460 373.964,227.800 374.382 C 227.140 374.800,226.285 375.155,225.900 375.171 C 225.515 375.187,225.200 375.380,225.200 375.600 C 225.200 375.820,224.840 376.000,224.400 376.000 C 223.960 376.000,223.600 376.180,223.600 376.400 C 223.600 376.620,223.060 376.800,222.400 376.800 C 221.740 376.800,221.200 376.980,221.200 377.200 C 221.200 377.420,220.750 377.600,220.200 377.600 C 219.650 377.600,219.200 377.780,219.200 378.000 C 219.200 378.220,218.660 378.400,218.000 378.400 C 217.340 378.400,216.800 378.580,216.800 378.800 C 216.800 379.020,216.181 379.200,215.424 379.200 C 214.667 379.200,213.936 379.380,213.800 379.600 C 213.664 379.820,212.879 380.000,212.056 380.000 C 211.233 380.000,210.389 380.168,210.180 380.373 C 209.121 381.411,191.304 381.404,190.220 380.364 C 190.011 380.164,189.077 380.000,188.144 380.000 C 187.211 380.000,186.336 379.820,186.200 379.600 C 186.064 379.380,185.333 379.200,184.576 379.200 C 183.819 379.200,183.200 379.020,183.200 378.800 C 183.200 378.580,182.761 378.400,182.224 378.400 C 181.687 378.400,181.136 378.220,181.000 378.000 C 180.864 377.780,180.313 377.600,179.776 377.600 C 179.239 377.600,178.800 377.420,178.800 377.200 C 178.800 376.980,178.457 376.800,178.038 376.800 C 177.619 376.800,176.494 376.414,175.538 375.943 C 174.582 375.472,173.350 374.887,172.800 374.643 C 172.250 374.399,171.620 374.059,171.400 373.887 C 171.180 373.714,169.920 372.936,168.600 372.157 C 164.151 369.531,154.400 360.839,154.400 359.499 C 154.400 359.276,154.072 358.803,153.672 358.447 C 152.736 357.616,149.600 352.975,149.600 352.422 C 149.600 352.190,149.448 352.000,149.263 352.000 C 148.424 352.000,143.600 340.050,143.600 337.973 C 143.600 337.328,143.420 336.800,143.200 336.800 C 142.980 336.800,142.800 335.990,142.800 335.000 C 142.800 334.010,142.633 333.200,142.429 333.200 C 142.226 333.200,141.954 331.625,141.825 329.700 C 141.172 319.908,141.153 319.087,141.570 318.670 C 141.807 318.433,142.000 316.847,142.000 315.144 C 142.000 313.441,142.180 311.936,142.400 311.800 C 142.620 311.664,142.800 310.843,142.800 309.976 C 142.800 309.109,142.980 308.400,143.200 308.400 C 143.420 308.400,143.600 307.864,143.600 307.209 C 143.600 305.940,146.037 299.074,147.264 296.888 C 147.669 296.166,148.000 295.311,148.000 294.988 C 148.000 294.665,148.158 294.400,148.351 294.400 C 148.545 294.400,148.927 293.860,149.200 293.200 C 149.473 292.540,149.855 292.000,150.049 292.000 C 150.242 292.000,150.400 291.640,150.400 291.200 C 150.400 290.760,150.541 290.400,150.714 290.400 C 150.886 290.400,151.343 289.867,151.728 289.215 C 152.113 288.563,152.647 287.798,152.914 287.515 C 153.181 287.232,153.895 286.337,154.500 285.527 C 156.750 282.513,162.097 277.532,166.000 274.814 C 166.770 274.277,167.490 273.740,167.600 273.619 C 167.953 273.232,170.177 271.958,170.900 271.729 C 171.285 271.607,171.600 271.348,171.600 271.153 C 171.600 270.959,171.960 270.800,172.400 270.800 C 172.840 270.800,173.200 270.620,173.200 270.400 C 173.200 270.180,173.560 270.000,174.000 270.000 C 174.440 270.000,174.800 269.820,174.800 269.600 C 174.800 269.380,175.160 269.200,175.600 269.200 C 176.040 269.200,176.400 269.020,176.400 268.800 C 176.400 268.580,176.749 268.400,177.176 268.400 C 177.603 268.400,178.064 268.220,178.200 268.000 C 178.336 267.780,178.876 267.600,179.400 267.600 C 179.924 267.600,180.464 267.420,180.600 267.200 C 180.736 266.980,181.276 266.800,181.800 266.800 C 182.324 266.800,182.864 266.620,183.000 266.400 C 183.136 266.180,183.766 266.000,184.400 266.000 C 185.034 266.000,185.652 265.839,185.774 265.642 C 186.023 265.239,187.690 264.960,193.200 264.397 C 195.290 264.184,197.270 263.928,197.600 263.828 C 198.284 263.620,203.166 263.906,207.600 264.413 " stroke="none" fill="#444343" fill-rule="evenodd"></path><path id="path1" d="M195.600 32.441 C 186.665 33.849,182.359 35.304,176.198 38.999 C 171.176 42.012,162.000 51.037,162.000 52.965 C 162.000 53.125,161.493 54.008,160.872 54.928 C 159.545 56.896,158.000 60.147,158.000 60.972 C 158.000 61.291,157.820 61.664,157.600 61.800 C 157.380 61.936,157.200 62.476,157.200 63.000 C 157.200 63.524,157.040 64.052,156.844 64.173 C 156.483 64.396,156.415 64.696,155.532 70.000 C 154.968 73.390,154.856 81.190,155.328 84.200 C 155.832 87.417,157.159 92.393,157.670 92.980 C 157.851 93.189,158.000 93.605,158.000 93.905 C 158.000 96.307,163.425 104.627,167.995 109.232 C 189.861 131.269,226.168 125.465,240.480 97.645 C 241.316 96.019,242.000 94.472,242.000 94.206 C 242.000 93.940,242.271 93.180,242.602 92.517 C 245.149 87.410,245.840 74.602,243.973 67.100 C 243.163 63.844,242.646 62.183,242.330 61.820 C 242.149 61.611,242.000 61.115,242.000 60.718 C 242.000 58.628,236.291 49.792,232.276 45.667 C 223.160 36.302,207.332 30.594,195.600 32.441 " stroke="none" fill="#fb244b" fill-rule="evenodd"></path><path id="path2" d="M194.600 155.441 C 192.164 155.794,186.188 157.290,185.820 157.639 C 185.611 157.838,185.114 158.000,184.715 158.000 C 184.316 158.000,183.677 158.160,183.295 158.356 C 182.913 158.552,181.700 159.131,180.600 159.642 C 172.444 163.431,163.431 172.444,159.642 180.600 C 159.131 181.700,158.552 182.913,158.356 183.295 C 158.160 183.677,158.000 184.316,158.000 184.715 C 158.000 185.114,157.839 185.611,157.643 185.820 C 155.778 187.802,154.682 202.369,155.944 208.400 C 158.527 220.748,165.137 230.521,175.607 237.472 C 178.720 239.540,183.550 242.000,184.495 242.000 C 184.795 242.000,185.211 242.153,185.420 242.341 C 185.629 242.529,186.700 242.901,187.800 243.169 C 188.900 243.437,190.610 243.868,191.600 244.128 C 194.035 244.766,206.043 244.747,208.500 244.100 C 209.545 243.825,211.255 243.393,212.300 243.141 C 213.345 242.889,214.371 242.529,214.580 242.341 C 214.789 242.153,215.205 242.000,215.505 242.000 C 216.480 242.000,224.600 237.816,225.600 236.799 C 225.710 236.687,226.520 236.066,227.400 235.418 C 229.459 233.903,233.903 229.459,235.418 227.400 C 236.066 226.520,236.687 225.710,236.799 225.600 C 237.816 224.600,242.000 216.480,242.000 215.505 C 242.000 215.205,242.153 214.789,242.341 214.580 C 242.529 214.371,242.889 213.345,243.141 212.300 C 243.393 211.255,243.825 209.545,244.100 208.500 C 244.785 205.898,244.765 194.026,244.072 191.400 C 243.782 190.300,243.350 188.590,243.113 187.600 C 242.876 186.610,242.529 185.629,242.341 185.420 C 242.153 185.211,242.000 184.795,242.000 184.495 C 242.000 183.550,239.540 178.720,237.472 175.607 C 230.650 165.332,221.231 158.842,209.200 156.127 C 206.653 155.553,196.972 155.098,194.600 155.441 " stroke="none" fill="#835b2c" fill-rule="evenodd"></path><path id="path3" d="M118.628 0.288 C 117.614 0.549,116.800 1.388,116.800 2.171 C 116.800 2.517,116.620 2.800,116.400 2.800 C 116.180 2.800,116.000 3.149,116.000 3.576 C 116.000 4.003,115.820 4.464,115.600 4.600 C 115.045 4.943,115.045 395.057,115.600 395.400 C 115.820 395.536,116.000 395.997,116.000 396.424 C 116.000 396.851,116.180 397.200,116.400 397.200 C 116.620 397.200,116.800 397.483,116.800 397.829 C 116.800 399.935,111.092 399.800,200.000 399.800 C 288.908 399.800,283.200 399.935,283.200 397.829 C 283.200 397.483,283.380 397.200,283.600 397.200 C 283.820 397.200,284.000 396.851,284.000 396.424 C 284.000 395.997,284.180 395.536,284.400 395.400 C 284.666 395.236,284.800 329.670,284.800 200.000 C 284.800 70.330,284.666 4.764,284.400 4.600 C 284.180 4.464,284.000 4.003,284.000 3.576 C 284.000 3.149,283.820 2.800,283.600 2.800 C 283.380 2.800,283.200 2.517,283.200 2.171 C 283.200 0.066,288.835 0.205,200.629 0.144 C 155.953 0.114,119.053 0.178,118.628 0.288 M271.000 200.000 L 271.000 387.000 200.224 387.101 C 143.868 387.182,129.384 387.100,129.130 386.701 C 128.763 386.123,128.676 14.388,129.043 13.432 C 129.264 12.856,135.789 12.807,200.143 12.899 L 271.000 13.000 271.000 200.000 M191.800 20.074 C 175.307 23.074,162.650 30.674,153.407 43.128 C 121.231 86.483,162.201 146.926,214.600 133.406 C 257.591 122.314,272.438 68.362,241.177 36.827 C 231.868 27.437,222.246 22.598,207.776 20.030 C 204.922 19.524,194.670 19.552,191.800 20.074 M206.400 31.966 C 210.341 32.512,214.432 33.447,216.207 34.205 C 221.064 36.281,225.780 38.874,227.295 40.300 C 227.821 40.795,228.416 41.200,228.618 41.200 C 229.139 41.200,236.000 48.094,236.000 48.617 C 236.000 48.855,236.540 49.568,237.200 50.200 C 237.860 50.832,238.400 51.564,238.400 51.826 C 238.400 52.088,238.660 52.518,238.977 52.781 C 239.723 53.400,243.200 60.398,243.200 61.279 C 243.200 61.650,243.380 62.064,243.600 62.200 C 243.820 62.336,244.000 62.876,244.000 63.400 C 244.000 63.924,244.180 64.464,244.400 64.600 C 244.620 64.736,244.800 65.431,244.800 66.144 C 244.800 66.857,244.966 67.611,245.169 67.820 C 245.847 68.519,246.626 80.734,246.031 81.329 C 245.794 81.566,245.600 82.883,245.600 84.256 C 245.600 85.629,245.420 86.864,245.200 87.000 C 244.980 87.136,244.800 87.856,244.800 88.600 C 244.800 89.344,244.620 90.064,244.400 90.200 C 244.180 90.336,244.000 90.876,244.000 91.400 C 244.000 91.924,243.820 92.464,243.600 92.600 C 243.380 92.736,243.200 93.150,243.200 93.521 C 243.200 94.402,239.723 101.400,238.977 102.019 C 238.660 102.282,238.400 102.718,238.400 102.987 C 238.400 103.256,238.040 103.802,237.600 104.200 C 237.160 104.598,236.800 105.111,236.800 105.340 C 236.800 105.940,228.012 114.400,227.389 114.400 C 227.102 114.400,226.807 114.545,226.733 114.723 C 226.053 116.373,216.956 120.735,211.400 122.075 C 206.335 123.297,196.541 123.996,195.021 123.245 C 194.570 123.021,193.300 122.757,192.200 122.658 C 189.995 122.458,188.223 122.106,187.000 121.625 C 186.560 121.452,185.480 121.095,184.600 120.831 C 182.439 120.182,175.600 116.772,175.600 116.343 C 175.600 116.154,175.364 116.000,175.075 116.000 C 174.787 116.000,174.164 115.640,173.692 115.200 C 173.220 114.760,172.661 114.400,172.451 114.400 C 170.998 114.400,160.000 101.743,160.000 100.071 C 160.000 99.812,159.820 99.600,159.600 99.600 C 159.380 99.600,159.200 99.240,159.200 98.800 C 159.200 98.360,159.020 98.000,158.800 98.000 C 158.580 98.000,158.396 97.685,158.391 97.300 C 158.386 96.915,158.030 96.150,157.600 95.600 C 157.170 95.050,156.811 94.330,156.803 94.000 C 156.784 93.247,155.841 90.508,155.474 90.141 C 155.323 89.990,155.200 89.277,155.200 88.557 C 155.200 87.837,155.020 87.136,154.800 87.000 C 154.580 86.864,154.400 85.604,154.400 84.200 C 154.400 82.796,154.220 81.536,154.000 81.400 C 153.780 81.264,153.600 79.644,153.600 77.800 C 153.600 75.956,153.780 74.336,154.000 74.200 C 154.220 74.064,154.400 72.624,154.400 71.000 C 154.400 69.376,154.580 67.936,154.800 67.800 C 155.020 67.664,155.200 66.944,155.200 66.200 C 155.200 65.456,155.380 64.736,155.600 64.600 C 155.820 64.464,156.000 63.924,156.000 63.400 C 156.000 62.876,156.180 62.336,156.400 62.200 C 156.620 62.064,156.800 61.638,156.800 61.253 C 156.800 60.471,159.201 55.527,160.091 54.478 C 160.407 54.105,160.954 53.167,161.307 52.394 C 161.660 51.621,162.410 50.554,162.974 50.024 C 163.538 49.494,164.000 48.853,164.000 48.599 C 164.000 47.979,171.145 41.200,171.799 41.200 C 172.082 41.200,172.412 40.945,172.532 40.632 C 172.898 39.680,178.602 36.424,183.793 34.205 C 185.727 33.378,189.975 32.453,193.938 31.996 C 195.554 31.810,196.994 31.536,197.138 31.388 C 197.425 31.093,202.294 31.396,206.400 31.966 M196.000 142.263 C 162.146 144.577,137.186 176.369,142.976 209.800 C 148.956 244.321,184.737 265.991,217.800 255.114 C 222.783 253.475,230.830 249.516,233.088 247.594 C 233.480 247.261,234.430 246.548,235.200 246.010 C 237.287 244.551,240.462 241.527,244.613 237.046 C 244.840 236.801,245.464 235.970,246.000 235.200 C 246.536 234.430,247.204 233.563,247.485 233.274 C 254.840 225.697,259.596 204.038,257.031 189.807 C 255.778 182.859,250.536 169.683,248.700 168.867 C 248.535 168.793,248.400 168.563,248.400 168.355 C 248.400 167.917,244.894 163.323,242.818 161.041 C 240.069 158.019,236.598 154.958,233.600 152.912 C 232.390 152.086,231.310 151.318,231.200 151.205 C 226.456 146.334,207.373 141.486,196.000 142.263 M208.200 155.135 C 212.663 156.061,213.824 156.382,216.000 157.290 C 216.550 157.519,217.360 157.843,217.800 158.010 C 220.027 158.854,224.719 161.397,225.200 162.021 C 225.310 162.163,225.606 162.352,225.858 162.440 C 229.957 163.871,239.189 175.172,242.000 182.200 C 242.220 182.750,242.562 183.605,242.760 184.100 C 243.503 185.961,243.954 187.460,244.351 189.400 C 244.577 190.500,244.964 192.390,245.212 193.600 C 246.014 197.512,245.366 207.519,244.008 212.200 C 243.753 213.080,243.445 214.208,243.324 214.706 C 243.203 215.204,242.946 215.710,242.752 215.830 C 242.559 215.949,242.400 216.309,242.400 216.628 C 242.400 218.803,237.232 227.024,233.023 231.542 C 228.990 235.872,219.133 242.400,216.628 242.400 C 216.309 242.400,215.949 242.559,215.830 242.752 C 215.710 242.946,215.204 243.203,214.706 243.324 C 214.208 243.445,213.080 243.753,212.200 244.008 C 207.497 245.372,196.599 245.854,192.000 244.902 C 187.383 243.945,186.296 243.651,184.100 242.764 C 183.605 242.564,182.795 242.244,182.300 242.054 C 175.486 239.430,163.872 229.959,162.440 225.858 C 162.352 225.606,162.163 225.310,162.021 225.200 C 161.397 224.719,158.854 220.027,158.010 217.800 C 157.843 217.360,157.519 216.550,157.290 216.000 C 156.372 213.801,156.074 212.711,155.099 208.000 C 154.520 205.204,154.507 194.890,155.078 192.000 C 155.612 189.303,156.687 185.280,157.163 184.200 C 158.667 180.786,161.483 175.315,162.001 174.800 C 162.112 174.690,162.742 173.801,163.401 172.824 C 164.947 170.534,170.534 164.947,172.824 163.401 C 173.801 162.742,174.690 162.112,174.800 162.001 C 175.315 161.483,180.786 158.667,184.200 157.163 C 185.481 156.598,189.618 155.541,191.937 155.186 C 193.113 155.006,194.190 154.743,194.331 154.602 C 194.710 154.223,205.874 154.652,208.200 155.135 M191.600 265.267 C 183.372 266.961,179.683 268.112,174.800 270.507 C 133.482 290.776,130.979 348.654,170.400 372.270 C 177.040 376.247,181.808 377.954,191.931 379.975 C 194.703 380.528,205.068 380.523,208.176 379.966 C 211.392 379.390,217.198 378.026,218.200 377.612 C 218.640 377.430,219.630 377.052,220.400 376.772 C 264.414 360.763,271.088 300.128,231.694 274.166 C 220.424 266.739,203.112 262.896,191.600 265.267 M208.000 277.518 C 210.385 277.936,214.516 279.009,215.800 279.543 C 223.064 282.568,227.354 285.458,232.644 290.892 C 236.411 294.761,241.200 301.323,241.200 302.616 C 241.200 302.756,241.730 304.016,242.379 305.417 C 243.027 306.817,243.758 308.916,244.003 310.082 C 244.248 311.247,244.634 313.100,244.861 314.200 C 246.294 321.154,245.633 330.084,243.116 337.800 C 238.755 351.167,225.146 363.645,211.400 366.879 C 205.703 368.220,197.863 368.744,194.400 368.015 C 193.190 367.760,191.210 367.359,190.000 367.122 C 178.474 364.870,165.930 355.592,160.295 345.150 C 155.995 337.181,154.643 331.788,154.643 322.600 C 154.643 317.089,154.860 315.079,155.940 310.600 C 158.777 298.834,168.717 286.847,180.111 281.451 C 182.648 280.250,184.532 279.550,189.428 277.991 C 190.104 277.776,191.274 277.587,192.028 277.572 C 192.783 277.556,193.760 277.382,194.200 277.185 C 195.174 276.748,204.953 276.984,208.000 277.518 " stroke="none" fill="#241c24" fill-rule="evenodd"></path><path id="path4" d="M193.000 278.188 C 160.246 283.894,144.482 320.162,162.743 347.800 C 173.689 364.366,195.502 371.679,214.507 365.154 C 221.649 362.702,227.177 359.182,232.444 353.735 C 262.101 323.056,234.867 270.896,193.000 278.188 " stroke="none" fill="#445b34" fill-rule="evenodd"></path><path id="path5" d="M129.700 13.529 C 129.300 13.784,129.219 51.387,129.300 200.224 L 129.400 386.600 200.000 386.600 L 270.600 386.600 270.600 200.000 L 270.600 13.400 200.400 13.305 C 161.790 13.253,129.975 13.354,129.700 13.529 M270.000 200.000 L 270.000 386.400 200.000 386.400 L 130.000 386.400 130.000 200.000 L 130.000 13.600 200.000 13.600 L 270.000 13.600 270.000 200.000 M198.000 18.800 C 197.311 19.021,197.932 19.120,200.000 19.120 C 202.068 19.120,202.689 19.021,202.000 18.800 C 201.450 18.624,200.550 18.480,200.000 18.480 C 199.450 18.480,198.550 18.624,198.000 18.800 M190.000 19.623 C 189.574 19.914,189.980 19.955,191.400 19.765 C 192.500 19.618,193.475 19.431,193.567 19.349 C 193.968 18.990,190.539 19.254,190.000 19.623 M206.433 19.349 C 206.525 19.431,207.500 19.618,208.600 19.765 C 210.020 19.955,210.426 19.914,210.000 19.623 C 209.461 19.254,206.032 18.990,206.433 19.349 M186.200 20.400 C 185.916 20.860,186.564 20.860,188.000 20.400 C 188.955 20.094,188.943 20.078,187.724 20.040 C 187.022 20.018,186.336 20.180,186.200 20.400 M211.233 20.143 C 211.676 20.522,214.017 20.751,213.796 20.394 C 213.662 20.177,212.993 20.000,212.310 20.000 C 211.626 20.000,211.142 20.064,211.233 20.143 M183.200 21.200 C 183.200 21.669,183.507 21.669,184.600 21.200 C 185.309 20.895,185.275 20.853,184.300 20.828 C 183.695 20.813,183.200 20.980,183.200 21.200 M215.400 21.200 C 216.493 21.669,216.800 21.669,216.800 21.200 C 216.800 20.980,216.305 20.813,215.700 20.828 C 214.725 20.853,214.691 20.895,215.400 21.200 M167.000 28.863 C 162.560 31.862,154.400 39.411,154.400 40.519 C 154.400 40.726,155.975 39.289,157.900 37.326 C 162.166 32.976,163.551 31.776,166.844 29.573 C 169.830 27.576,170.310 27.192,169.780 27.221 C 169.571 27.232,168.320 27.971,167.000 28.863 M230.800 27.962 C 231.880 28.848,232.400 29.006,232.400 28.447 C 232.400 28.252,232.085 27.982,231.700 27.846 C 231.315 27.711,230.730 27.496,230.400 27.370 C 230.070 27.244,230.250 27.510,230.800 27.962 M233.648 29.713 C 234.225 30.201,235.725 31.404,236.982 32.387 C 238.239 33.369,240.692 35.685,242.434 37.533 C 244.175 39.380,245.600 40.724,245.600 40.518 C 245.600 39.855,239.092 33.411,236.059 31.070 C 233.198 28.862,231.542 27.930,233.648 29.713 M153.379 41.740 C 150.617 44.755,143.812 57.705,145.557 56.626 C 145.801 56.476,146.000 56.123,146.000 55.843 C 146.000 54.568,150.627 46.033,152.918 43.082 C 154.005 41.681,154.348 40.683,153.379 41.740 M246.000 41.414 C 246.000 41.563,246.505 42.341,247.123 43.142 C 249.226 45.872,251.908 50.592,253.406 54.200 C 255.493 59.225,255.509 59.266,255.788 60.547 C 255.926 61.178,256.143 61.590,256.271 61.463 C 256.482 61.251,255.640 58.152,254.842 56.200 C 254.090 54.362,251.785 49.385,251.600 49.200 C 251.490 49.090,251.175 48.595,250.900 48.100 C 250.625 47.605,250.175 46.795,249.900 46.300 C 249.625 45.805,249.301 45.310,249.181 45.200 C 249.060 45.090,248.526 44.370,247.994 43.600 C 246.877 41.984,246.000 41.023,246.000 41.414 M144.200 59.200 C 143.825 60.329,143.604 61.337,143.708 61.441 C 143.812 61.546,144.201 60.704,144.571 59.571 C 144.942 58.439,145.163 57.430,145.063 57.330 C 144.963 57.230,144.575 58.071,144.200 59.200 M256.428 62.876 C 256.413 63.468,256.580 64.064,256.800 64.200 C 257.278 64.495,257.278 63.711,256.800 62.600 C 256.493 61.886,256.453 61.915,256.428 62.876 M142.806 64.100 C 142.811 64.828,142.886 64.885,143.200 64.400 C 143.701 63.624,143.701 63.200,143.200 63.200 C 142.980 63.200,142.803 63.605,142.806 64.100 M257.275 66.000 C 257.265 66.770,257.411 67.760,257.600 68.200 C 258.057 69.264,258.057 67.597,257.600 65.800 L 257.295 64.600 257.275 66.000 M142.292 67.042 C 142.131 67.202,142.011 67.798,142.025 68.367 L 142.051 69.400 142.437 68.434 C 142.853 67.394,142.767 66.567,142.292 67.042 M258.164 77.600 C 258.161 85.236,258.186 85.518,258.523 81.700 C 258.738 79.267,258.740 75.933,258.527 73.500 C 258.193 69.683,258.168 69.967,258.164 77.600 M141.443 73.833 C 141.067 74.813,141.156 81.126,141.550 81.369 C 141.743 81.488,141.900 79.699,141.900 77.393 C 141.900 73.078,141.858 72.751,141.443 73.833 M142.028 86.676 C 142.013 87.378,142.180 88.064,142.400 88.200 C 142.880 88.496,142.880 87.316,142.400 86.200 C 142.110 85.526,142.052 85.600,142.028 86.676 M257.489 86.800 C 257.336 87.350,257.227 88.340,257.246 89.000 C 257.277 90.092,257.314 90.058,257.652 88.611 C 258.075 86.806,257.931 85.211,257.489 86.800 M142.806 90.700 C 142.803 91.195,142.980 91.600,143.200 91.600 C 143.701 91.600,143.701 91.176,143.200 90.400 C 142.886 89.915,142.811 89.972,142.806 90.700 M256.673 90.953 C 256.523 91.345,256.411 91.966,256.425 92.333 C 256.442 92.775,256.581 92.674,256.837 92.034 C 257.049 91.503,257.161 90.882,257.085 90.654 C 257.009 90.427,256.824 90.561,256.673 90.953 M143.634 93.600 C 143.646 93.930,143.811 94.560,144.000 95.000 L 144.344 95.800 144.366 95.000 C 144.378 94.560,144.213 93.930,144.000 93.600 C 143.655 93.067,143.615 93.067,143.634 93.600 M255.802 94.500 C 255.663 94.995,255.399 95.760,255.214 96.200 C 255.029 96.640,254.471 98.080,253.974 99.400 C 253.476 100.720,252.947 101.980,252.797 102.200 C 252.306 102.921,252.019 104.000,252.318 104.000 C 252.617 104.000,253.616 101.878,254.673 99.000 C 254.996 98.120,255.404 97.124,255.579 96.787 C 256.011 95.957,256.514 93.600,256.259 93.600 C 256.146 93.600,255.940 94.005,255.802 94.500 M144.400 96.129 C 144.400 96.617,146.457 101.678,147.176 102.957 C 147.629 103.764,148.000 104.606,148.000 104.829 C 148.000 105.052,148.182 105.451,148.404 105.717 C 148.626 105.983,149.730 107.640,150.856 109.400 C 151.982 111.160,153.016 112.690,153.154 112.800 C 153.292 112.910,153.926 113.700,154.564 114.555 C 156.623 117.314,163.482 123.851,163.891 123.442 C 164.018 123.315,163.600 122.809,162.961 122.318 C 156.419 117.288,146.000 102.994,146.000 99.049 C 146.000 98.718,145.820 98.336,145.600 98.200 C 145.380 98.064,145.200 97.614,145.200 97.200 C 145.200 96.786,145.020 96.336,144.800 96.200 C 144.580 96.064,144.400 96.032,144.400 96.129 M250.830 106.071 C 250.307 107.022,249.087 108.925,248.119 110.300 C 247.151 111.675,246.483 112.800,246.633 112.800 C 246.986 112.800,248.400 111.173,248.400 110.767 C 248.400 110.597,248.625 110.212,248.900 109.913 C 249.368 109.403,249.645 108.960,250.900 106.700 C 251.175 106.205,251.557 105.686,251.749 105.546 C 251.941 105.407,252.026 105.078,251.939 104.817 C 251.852 104.555,251.353 105.119,250.830 106.071 M243.875 115.800 C 241.196 118.796,241.198 119.332,243.877 116.500 C 245.448 114.840,246.659 113.200,246.314 113.200 C 246.251 113.200,245.154 114.370,243.875 115.800 M239.381 120.429 C 238.512 121.325,236.663 122.873,235.273 123.869 C 233.883 124.864,232.858 125.791,232.995 125.928 C 233.132 126.065,233.369 125.990,233.522 125.762 C 233.675 125.534,234.610 124.794,235.600 124.118 C 237.702 122.683,241.893 118.800,241.341 118.800 C 241.133 118.800,240.251 119.533,239.381 120.429 M164.405 123.896 C 164.408 124.063,165.038 124.607,165.805 125.104 C 166.572 125.601,167.198 125.871,167.195 125.704 C 167.192 125.537,166.562 124.993,165.795 124.496 C 165.028 123.999,164.402 123.729,164.405 123.896 M169.200 127.095 C 169.200 127.484,170.814 128.519,171.051 128.282 C 171.147 128.186,170.769 127.810,170.212 127.445 C 169.656 127.080,169.200 126.922,169.200 127.095 M229.900 127.429 C 229.295 127.757,228.800 128.110,228.800 128.213 C 228.800 128.599,229.432 128.357,230.400 127.600 C 231.589 126.670,231.411 126.609,229.900 127.429 M176.400 131.200 C 176.400 131.420,176.749 131.600,177.176 131.600 C 177.603 131.600,178.064 131.780,178.200 132.000 C 178.336 132.220,178.842 132.387,179.324 132.370 C 179.991 132.348,179.818 132.164,178.600 131.600 C 176.707 130.724,176.400 130.668,176.400 131.200 M220.600 132.000 C 219.829 132.331,219.831 132.345,220.676 132.372 C 221.158 132.387,221.664 132.220,221.800 132.000 C 222.092 131.527,221.701 131.527,220.600 132.000 M218.400 132.800 C 217.915 133.114,217.972 133.189,218.700 133.194 C 219.195 133.197,219.600 133.020,219.600 132.800 C 219.600 132.299,219.176 132.299,218.400 132.800 M182.800 133.592 C 182.800 133.817,183.370 134.000,184.067 134.000 C 185.523 134.000,185.470 133.825,183.900 133.449 C 183.247 133.292,182.800 133.350,182.800 133.592 M215.600 133.600 C 214.645 133.906,214.657 133.922,215.876 133.960 C 216.578 133.982,217.264 133.820,217.400 133.600 C 217.684 133.140,217.036 133.140,215.600 133.600 M185.747 134.315 C 185.884 134.535,186.761 134.833,187.697 134.976 C 189.618 135.269,194.350 135.628,192.800 135.363 C 190.054 134.893,186.920 134.296,186.250 134.116 C 185.810 133.998,185.602 134.080,185.747 134.315 M212.000 134.470 C 211.010 134.680,209.300 135.008,208.200 135.198 L 206.200 135.543 208.400 135.390 C 211.715 135.158,213.979 134.757,214.226 134.358 C 214.478 133.950,214.439 133.952,212.000 134.470 M195.400 136.016 C 196.993 136.400,203.537 136.400,204.800 136.017 C 205.359 135.847,203.240 135.716,200.000 135.720 C 196.761 135.724,194.730 135.855,195.400 136.016 M196.067 141.550 C 195.758 141.746,197.396 141.888,199.956 141.888 C 202.388 141.888,204.282 141.733,204.165 141.544 C 203.891 141.100,196.768 141.105,196.067 141.550 M189.600 142.408 C 189.600 142.650,190.047 142.708,190.700 142.551 C 192.270 142.175,192.323 142.000,190.867 142.000 C 190.170 142.000,189.600 142.183,189.600 142.408 M209.000 142.400 C 210.093 142.869,210.400 142.869,210.400 142.400 C 210.400 142.180,209.905 142.013,209.300 142.028 C 208.325 142.053,208.291 142.095,209.000 142.400 M185.800 143.200 C 185.664 143.420,185.823 143.600,186.153 143.600 C 186.483 143.600,186.864 143.420,187.000 143.200 C 187.136 142.980,186.977 142.800,186.647 142.800 C 186.317 142.800,185.936 142.980,185.800 143.200 M180.314 144.697 C 178.837 145.283,177.699 145.832,177.784 145.918 C 177.979 146.112,180.865 145.149,181.380 144.718 C 181.589 144.543,182.163 144.400,182.656 144.400 C 183.149 144.400,183.664 144.220,183.800 144.000 C 184.197 143.357,183.185 143.560,180.314 144.697 M216.800 144.033 C 217.350 144.280,218.113 144.644,218.495 144.841 C 218.877 145.039,219.507 145.185,219.895 145.167 C 220.759 145.127,218.629 144.146,216.956 143.813 C 215.814 143.586,215.812 143.589,216.800 144.033 M173.924 147.380 C 172.452 148.112,170.742 149.053,170.124 149.470 C 169.506 149.887,168.508 150.476,167.907 150.778 C 167.305 151.081,166.495 151.619,166.107 151.975 C 165.718 152.331,164.770 153.064,164.000 153.605 C 162.389 154.737,159.051 157.984,159.271 158.204 C 159.353 158.286,160.325 157.479,161.433 156.411 C 164.064 153.875,170.639 149.432,174.300 147.716 C 176.921 146.487,177.738 145.956,176.900 146.025 C 176.735 146.038,175.396 146.648,173.924 147.380 M222.800 146.178 C 222.800 146.277,224.143 146.986,225.785 147.755 C 229.601 149.542,234.945 153.060,237.784 155.655 C 239.003 156.769,240.000 157.514,240.000 157.312 C 240.000 157.109,239.171 156.236,238.158 155.372 C 237.145 154.507,236.110 153.611,235.858 153.381 C 234.927 152.530,231.643 150.400,231.261 150.400 C 231.044 150.400,230.807 150.234,230.733 150.031 C 230.515 149.428,222.800 145.681,222.800 146.178 M199.300 154.676 C 199.685 154.776,200.315 154.776,200.700 154.676 C 201.085 154.575,200.770 154.493,200.000 154.493 C 199.230 154.493,198.915 154.575,199.300 154.676 M156.195 160.929 C 155.312 161.848,154.147 163.230,153.606 164.000 C 153.065 164.770,152.331 165.718,151.975 166.107 C 151.619 166.495,151.074 167.305,150.765 167.907 C 150.455 168.508,150.111 169.090,150.001 169.200 C 149.288 169.910,145.900 176.834,146.146 177.079 C 146.246 177.179,146.946 175.943,147.702 174.331 C 148.850 171.881,153.899 163.897,154.747 163.189 C 155.783 162.326,158.490 159.206,158.183 159.229 C 157.972 159.245,157.078 160.010,156.195 160.929 M244.064 161.900 C 245.039 162.945,246.627 164.922,247.592 166.293 C 248.558 167.664,249.424 168.709,249.517 168.616 C 249.674 168.460,248.148 166.059,247.600 165.600 C 247.469 165.490,246.923 164.770,246.387 164.000 C 245.295 162.430,242.969 160.000,242.559 160.000 C 242.411 160.000,243.089 160.855,244.064 161.900 M167.781 168.100 L 166.200 169.800 167.900 168.219 C 169.481 166.748,169.784 166.400,169.481 166.400 C 169.416 166.400,168.651 167.165,167.781 168.100 M251.921 173.700 C 254.385 178.658,254.479 178.879,255.431 181.900 C 256.124 184.103,256.672 184.789,256.228 182.900 C 255.818 181.151,253.549 175.603,252.262 173.200 C 251.613 171.990,250.884 170.596,250.641 170.103 C 250.399 169.610,250.084 169.205,249.943 169.203 C 249.801 169.201,250.692 171.225,251.921 173.700 M144.681 180.406 C 143.526 183.376,143.361 184.195,144.000 183.800 C 144.220 183.664,144.400 183.149,144.400 182.656 C 144.400 182.163,144.543 181.589,144.718 181.380 C 145.150 180.865,146.112 177.979,145.918 177.784 C 145.832 177.698,145.275 178.878,144.681 180.406 M256.446 185.200 C 256.427 185.750,256.587 186.470,256.800 186.800 C 257.294 187.564,257.294 186.742,256.800 185.200 L 256.480 184.200 256.446 185.200 M143.092 185.842 C 142.931 186.002,142.800 186.409,142.800 186.747 C 142.800 187.197,142.918 187.242,143.245 186.915 C 143.490 186.670,143.621 186.263,143.537 186.010 C 143.452 185.757,143.252 185.681,143.092 185.842 M257.275 188.800 C 257.265 189.570,257.411 190.560,257.600 191.000 C 258.057 192.064,258.057 190.397,257.600 188.600 L 257.295 187.400 257.275 188.800 M142.000 190.867 C 142.000 192.323,142.175 192.270,142.551 190.700 C 142.708 190.047,142.650 189.600,142.408 189.600 C 142.183 189.600,142.000 190.170,142.000 190.867 M258.176 200.000 C 258.176 207.683,258.199 207.941,258.543 204.100 C 258.765 201.617,258.765 198.383,258.543 195.900 C 258.199 192.059,258.176 192.317,258.176 200.000 M141.443 196.233 C 141.069 197.206,141.155 203.925,141.544 204.165 C 141.733 204.282,141.888 202.403,141.888 199.989 C 141.888 195.457,141.853 195.163,141.443 196.233 M245.331 200.600 C 245.333 202.140,245.405 202.721,245.492 201.891 C 245.579 201.061,245.577 199.801,245.489 199.091 C 245.400 198.381,245.329 199.060,245.331 200.600 M154.493 200.000 C 154.493 200.770,154.575 201.085,154.676 200.700 C 154.776 200.315,154.776 199.685,154.676 199.300 C 154.575 198.915,154.493 199.230,154.493 200.000 M142.028 209.300 C 142.013 209.905,142.180 210.400,142.400 210.400 C 142.869 210.400,142.869 210.093,142.400 209.000 C 142.095 208.291,142.053 208.325,142.028 209.300 M257.489 209.200 C 257.336 209.750,257.227 210.740,257.246 211.400 C 257.277 212.492,257.314 212.458,257.652 211.011 C 258.075 209.206,257.931 207.611,257.489 209.200 M256.688 213.333 C 256.530 213.736,256.411 214.456,256.425 214.933 C 256.449 215.756,256.471 215.750,256.840 214.825 C 257.054 214.289,257.173 213.569,257.103 213.225 C 256.999 212.711,256.925 212.730,256.688 213.333 M143.813 216.956 C 144.146 218.629,145.127 220.759,145.167 219.895 C 145.185 219.507,145.039 218.877,144.841 218.495 C 144.644 218.113,144.280 217.350,144.033 216.800 C 143.589 215.812,143.586 215.814,143.813 216.956 M255.431 218.100 C 254.479 221.121,254.385 221.342,251.921 226.300 C 250.692 228.775,249.811 230.800,249.965 230.800 C 250.617 230.800,255.597 219.944,256.196 217.220 C 256.625 215.267,256.152 215.811,255.431 218.100 M146.000 222.989 C 146.000 223.363,148.729 228.779,149.472 229.878 C 149.888 230.495,150.478 231.495,150.782 232.100 C 151.086 232.705,151.485 233.200,151.668 233.200 C 151.850 233.200,152.006 233.425,152.013 233.700 C 152.026 234.211,153.784 236.400,154.181 236.400 C 154.302 236.400,153.236 234.719,151.813 232.663 C 150.390 230.608,148.580 227.548,147.791 225.863 C 146.536 223.182,146.000 222.323,146.000 222.989 M248.353 232.679 C 247.375 234.266,243.358 239.184,242.623 239.694 C 242.327 239.900,242.329 239.990,242.628 239.994 C 242.864 239.997,243.764 239.171,244.628 238.158 C 245.493 237.145,246.389 236.110,246.619 235.858 C 247.576 234.811,249.663 231.529,249.484 231.351 C 249.378 231.245,248.869 231.842,248.353 232.679 M154.400 236.934 C 154.400 237.367,157.985 240.948,158.202 240.732 C 158.301 240.633,157.486 239.669,156.391 238.591 C 155.296 237.512,154.400 236.767,154.400 236.934 M159.200 241.732 C 159.200 242.202,162.836 245.697,163.076 245.458 C 163.196 245.337,163.038 245.005,162.724 244.719 C 162.410 244.434,161.488 243.580,160.676 242.822 C 159.864 242.063,159.200 241.573,159.200 241.732 M239.542 242.694 C 239.321 243.229,234.376 247.307,232.679 248.353 C 231.842 248.869,231.245 249.378,231.351 249.484 C 231.534 249.667,234.522 247.749,236.128 246.418 C 238.484 244.465,240.134 242.801,239.924 242.591 C 239.792 242.458,239.620 242.505,239.542 242.694 M199.091 245.489 C 199.801 245.577,201.061 245.579,201.891 245.492 C 202.721 245.405,202.140 245.333,200.600 245.331 C 199.060 245.329,198.381 245.400,199.091 245.489 M163.600 245.885 C 163.600 246.094,164.050 246.506,164.600 246.800 C 165.150 247.094,165.600 247.485,165.600 247.668 C 165.600 247.850,165.870 248.000,166.200 248.000 C 166.530 248.000,166.800 248.150,166.800 248.332 C 166.800 248.515,167.295 248.920,167.900 249.232 C 168.505 249.544,169.090 249.889,169.200 249.999 C 170.386 251.190,179.941 255.534,182.900 256.228 C 184.789 256.672,184.103 256.124,181.900 255.431 C 179.395 254.641,179.183 254.554,174.689 252.453 C 171.338 250.886,167.989 248.853,164.984 246.561 C 164.223 245.980,163.600 245.676,163.600 245.885 M226.200 251.921 C 221.363 254.376,221.135 254.475,218.100 255.431 C 215.811 256.152,215.267 256.625,217.220 256.196 C 220.052 255.574,230.800 250.608,230.800 249.922 C 230.800 249.745,230.755 249.620,230.700 249.644 C 230.645 249.668,228.620 250.693,226.200 251.921 M185.200 256.800 C 186.742 257.294,187.564 257.294,186.800 256.800 C 186.470 256.587,185.750 256.427,185.200 256.446 L 184.200 256.480 185.200 256.800 M213.200 256.800 C 212.413 257.309,213.816 257.309,215.000 256.800 C 215.733 256.485,215.716 256.454,214.800 256.434 C 214.250 256.422,213.530 256.587,213.200 256.800 M188.600 257.600 C 190.397 258.057,192.064 258.057,191.000 257.600 C 190.560 257.411,189.570 257.265,188.800 257.275 L 187.400 257.295 188.600 257.600 M209.000 257.600 C 207.936 258.057,209.603 258.057,211.400 257.600 L 212.600 257.295 211.200 257.275 C 210.430 257.265,209.440 257.411,209.000 257.600 M195.900 258.543 C 198.383 258.765,201.617 258.765,204.100 258.543 C 207.941 258.199,207.683 258.176,200.000 258.176 C 192.317 258.176,192.059 258.199,195.900 258.543 M197.600 263.828 C 197.270 263.928,195.290 264.184,193.200 264.397 C 187.690 264.960,186.023 265.239,185.774 265.642 C 185.652 265.839,185.034 266.000,184.400 266.000 C 183.766 266.000,183.124 266.199,182.974 266.443 C 182.798 266.727,182.968 266.814,183.450 266.686 C 183.862 266.576,185.010 266.297,186.000 266.067 C 186.990 265.837,188.250 265.538,188.800 265.402 C 191.541 264.724,200.175 264.185,203.834 264.465 C 208.751 264.840,215.772 266.217,218.909 267.420 C 219.289 267.566,219.600 267.507,219.600 267.288 C 219.600 267.070,219.105 266.791,218.500 266.670 C 215.740 266.115,214.946 265.917,214.200 265.597 C 212.190 264.736,199.177 263.349,197.600 263.828 M180.600 267.200 C 180.464 267.420,179.924 267.600,179.400 267.600 C 178.876 267.600,178.336 267.780,178.200 268.000 C 178.064 268.220,177.603 268.400,177.176 268.400 C 176.749 268.400,176.400 268.569,176.400 268.776 C 176.400 268.982,177.705 268.688,179.300 268.121 C 182.595 266.952,182.869 266.800,181.690 266.800 C 181.227 266.800,180.736 266.980,180.600 267.200 M220.033 267.735 C 220.661 268.243,223.600 269.118,223.600 268.797 C 223.600 268.579,223.251 268.400,222.824 268.400 C 222.397 268.400,221.936 268.220,221.800 268.000 C 221.664 267.780,221.173 267.600,220.710 267.600 C 220.246 267.600,219.942 267.661,220.033 267.735 M169.600 272.400 C 169.050 272.830,168.375 273.186,168.100 273.191 C 167.825 273.196,167.600 273.385,167.600 273.610 C 167.600 273.850,168.058 273.779,168.700 273.441 C 170.190 272.655,171.491 271.626,171.000 271.622 C 170.780 271.620,170.150 271.970,169.600 272.400 M229.600 272.400 C 230.150 272.830,230.780 273.182,231.000 273.182 C 231.220 273.182,230.950 272.830,230.400 272.400 C 229.850 271.970,229.220 271.618,229.000 271.618 C 228.780 271.618,229.050 271.970,229.600 272.400 M165.705 274.925 C 163.954 276.109,164.037 276.643,165.795 275.504 C 166.562 275.007,167.192 274.465,167.195 274.300 C 167.201 273.910,167.216 273.904,165.705 274.925 M232.969 274.349 C 233.359 274.982,235.601 276.499,235.595 276.127 C 235.592 275.947,234.943 275.381,234.152 274.868 C 233.360 274.355,232.828 274.122,232.969 274.349 M161.557 278.289 C 158.589 280.922,155.810 283.773,154.500 285.527 C 153.895 286.337,153.181 287.232,152.914 287.515 C 152.647 287.798,152.113 288.563,151.728 289.215 C 151.343 289.867,150.886 290.400,150.714 290.400 C 150.541 290.400,150.400 290.760,150.400 291.200 C 150.400 291.640,150.242 292.000,150.049 292.000 C 149.855 292.000,149.473 292.540,149.200 293.200 C 148.927 293.860,148.545 294.400,148.351 294.400 C 148.158 294.400,148.000 294.628,148.000 294.906 C 148.000 295.184,147.481 296.489,146.846 297.806 C 145.401 300.805,144.954 302.199,145.557 301.826 C 145.801 301.676,146.000 301.294,146.000 300.977 C 146.000 300.232,148.649 294.884,150.545 291.800 C 153.564 286.890,158.950 280.765,162.961 277.682 C 163.600 277.191,164.030 276.696,163.917 276.583 C 163.804 276.470,162.742 277.238,161.557 278.289 M236.000 276.800 C 236.000 277.020,236.165 277.200,236.368 277.200 C 236.570 277.200,237.720 278.100,238.924 279.200 C 240.127 280.300,241.241 281.200,241.398 281.200 C 241.674 281.200,240.958 280.492,237.863 277.700 C 236.332 276.319,236.000 276.159,236.000 276.800 M192.600 277.684 C 188.240 278.500,181.653 280.586,182.082 281.015 C 182.188 281.122,183.068 280.918,184.038 280.564 C 220.222 267.323,255.125 301.536,242.382 337.756 C 237.887 350.534,227.578 360.666,214.507 365.154 C 189.225 373.834,161.908 358.430,156.068 332.200 C 151.656 312.381,162.198 290.540,180.200 282.208 C 181.080 281.800,181.595 281.399,181.345 281.315 C 180.910 281.170,180.203 281.515,176.600 283.631 C 168.071 288.639,160.015 298.683,156.894 308.200 C 154.936 314.173,154.649 316.017,154.653 322.600 C 154.660 331.977,156.140 337.278,161.354 346.600 C 163.563 350.548,169.874 357.140,174.238 360.056 C 209.354 383.523,254.135 352.060,244.058 311.000 C 241.129 299.062,230.812 286.625,219.546 281.447 C 211.536 277.766,200.442 276.217,192.600 277.684 M242.822 283.092 C 243.580 283.912,244.307 284.677,244.438 284.792 C 244.569 284.906,245.784 286.501,247.138 288.335 C 248.492 290.169,249.600 291.384,249.600 291.035 C 249.600 290.686,249.450 290.400,249.268 290.400 C 249.085 290.400,248.681 289.905,248.370 289.300 C 248.060 288.695,247.526 287.930,247.184 287.600 C 246.842 287.270,246.124 286.370,245.588 285.600 C 244.467 283.990,242.165 281.600,241.735 281.600 C 241.574 281.600,242.063 282.271,242.822 283.092 M249.908 292.500 C 250.653 293.417,253.030 298.170,253.960 300.600 C 254.465 301.920,255.026 303.360,255.208 303.800 C 255.389 304.240,255.651 305.116,255.788 305.747 C 255.926 306.378,256.143 306.790,256.271 306.663 C 256.650 306.283,255.238 302.069,253.657 298.862 C 253.186 297.906,252.800 296.871,252.800 296.562 C 252.800 296.253,252.620 296.000,252.400 296.000 C 252.180 296.000,252.000 295.640,252.000 295.200 C 252.000 294.760,251.864 294.400,251.698 294.400 C 251.531 294.400,251.156 293.860,250.864 293.200 C 250.572 292.540,250.146 292.000,249.917 292.000 C 249.635 292.000,249.632 292.160,249.908 292.500 M143.829 305.429 C 143.681 306.015,143.651 306.584,143.761 306.694 C 143.871 306.804,144.081 306.415,144.229 305.829 C 144.376 305.242,144.406 304.673,144.296 304.563 C 144.186 304.453,143.976 304.842,143.829 305.429 M256.589 308.200 C 256.973 310.895,257.584 313.716,257.835 313.951 C 258.231 314.320,257.640 310.676,256.986 308.706 C 256.580 307.486,256.467 307.342,256.589 308.200 M142.806 309.300 C 142.811 310.028,142.886 310.085,143.200 309.600 C 143.701 308.824,143.701 308.400,143.200 308.400 C 142.980 308.400,142.803 308.805,142.806 309.300 M142.300 311.831 C 142.135 311.997,142.011 312.688,142.025 313.367 C 142.050 314.573,142.059 314.579,142.440 313.625 C 142.869 312.552,142.775 311.352,142.300 311.831 M258.167 322.600 C 258.166 330.158,258.186 330.371,258.529 326.463 C 258.745 323.992,258.746 320.771,258.529 318.463 C 258.197 314.911,258.167 315.244,258.167 322.600 M141.467 318.667 C 141.084 319.049,141.148 325.699,141.540 326.317 C 141.723 326.606,141.875 324.971,141.883 322.617 C 141.892 320.298,141.861 318.400,141.816 318.400 C 141.770 318.400,141.613 318.520,141.467 318.667 M142.028 331.900 C 142.013 332.615,142.180 333.200,142.400 333.200 C 142.875 333.200,142.875 332.505,142.400 331.400 C 142.112 330.730,142.052 330.811,142.028 331.900 M257.489 332.000 C 257.336 332.550,257.227 333.540,257.246 334.200 C 257.277 335.292,257.314 335.258,257.652 333.811 C 258.075 332.006,257.931 330.411,257.489 332.000 M142.806 335.900 C 142.803 336.395,142.980 336.800,143.200 336.800 C 143.701 336.800,143.701 336.376,143.200 335.600 C 142.886 335.115,142.811 335.172,142.806 335.900 M256.692 335.842 C 256.531 336.002,256.411 336.598,256.425 337.167 L 256.451 338.200 256.837 337.234 C 257.253 336.194,257.167 335.367,256.692 335.842 M143.634 338.800 C 143.646 339.130,143.811 339.760,144.000 340.200 L 144.344 341.000 144.366 340.200 C 144.378 339.760,144.213 339.130,144.000 338.800 C 143.655 338.267,143.615 338.267,143.634 338.800 M255.867 339.067 C 255.720 339.213,255.600 339.717,255.600 340.187 C 255.600 340.656,255.457 341.211,255.282 341.420 C 255.107 341.629,254.721 342.520,254.425 343.400 C 253.157 347.166,250.017 353.006,247.271 356.700 C 246.740 357.415,246.429 358.000,246.581 358.000 C 246.995 358.000,247.730 357.135,248.368 355.900 C 248.680 355.295,249.085 354.800,249.268 354.800 C 249.450 354.800,249.600 354.607,249.600 354.372 C 249.600 354.137,250.106 353.192,250.724 352.272 C 251.912 350.504,254.400 345.432,254.400 344.777 C 254.400 344.564,254.580 344.032,254.800 343.595 C 255.771 341.666,255.914 341.303,256.181 340.087 C 256.461 338.811,256.381 338.552,255.867 339.067 M145.403 344.050 C 145.968 345.908,148.922 352.000,149.258 352.000 C 149.446 352.000,149.600 352.190,149.600 352.422 C 149.600 352.871,152.599 357.439,153.478 358.329 C 154.410 359.272,154.030 358.354,152.870 356.858 C 150.502 353.805,146.000 345.504,146.000 344.191 C 146.000 343.892,145.801 343.524,145.557 343.374 C 145.254 343.186,145.205 343.399,145.403 344.050 M154.400 359.565 C 154.400 360.916,165.226 370.397,169.300 372.616 C 172.299 374.248,171.534 373.539,167.300 370.762 C 164.778 369.109,161.810 366.618,158.900 363.715 C 156.425 361.246,154.400 359.378,154.400 359.565 M243.540 361.310 C 242.518 362.459,241.747 363.470,241.828 363.555 C 242.029 363.765,245.600 359.960,245.600 359.536 C 245.600 359.016,245.521 359.084,243.540 361.310 M239.000 365.874 C 235.451 369.144,229.997 372.913,226.800 374.305 C 226.030 374.640,225.604 374.987,225.854 375.075 C 226.103 375.163,226.913 374.872,227.654 374.428 C 228.394 373.984,229.720 373.231,230.600 372.754 C 233.688 371.082,242.436 363.965,241.342 364.016 C 241.154 364.025,240.100 364.861,239.000 365.874 M171.600 373.902 C 171.600 374.290,173.980 375.353,174.248 375.085 C 174.359 374.974,173.871 374.595,173.163 374.242 C 171.695 373.509,171.600 373.488,171.600 373.902 M183.200 378.800 C 183.200 379.020,183.605 379.197,184.100 379.194 C 184.828 379.189,184.885 379.114,184.400 378.800 C 183.624 378.299,183.200 378.299,183.200 378.800 M215.600 378.800 C 215.115 379.114,215.172 379.189,215.900 379.194 C 216.395 379.197,216.800 379.020,216.800 378.800 C 216.800 378.299,216.376 378.299,215.600 378.800 M186.200 379.600 C 186.336 379.820,186.932 379.987,187.524 379.972 C 188.485 379.947,188.514 379.907,187.800 379.600 C 186.689 379.122,185.905 379.122,186.200 379.600 M212.600 379.600 C 211.829 379.931,211.831 379.945,212.676 379.972 C 213.158 379.987,213.664 379.820,213.800 379.600 C 214.092 379.127,213.701 379.127,212.600 379.600 M190.184 380.374 C 190.329 380.609,191.097 380.800,191.890 380.800 C 193.655 380.800,193.503 380.597,191.461 380.228 C 190.412 380.038,190.005 380.085,190.184 380.374 M207.800 380.400 C 206.667 380.688,206.693 380.708,208.276 380.753 C 209.198 380.779,210.064 380.620,210.200 380.400 C 210.479 379.948,209.575 379.948,207.800 380.400 M197.800 381.200 C 198.898 381.672,201.670 381.672,202.400 381.200 C 202.815 380.932,202.076 380.819,200.000 380.834 C 197.957 380.849,197.255 380.966,197.800 381.200 " stroke="none" fill="#3b3c3b" fill-rule="evenodd"></path><path id="path6" d="M195.000 32.014 C 193.460 32.177,191.300 32.520,190.200 32.775 C 189.100 33.030,187.570 33.384,186.800 33.562 C 182.898 34.461,175.144 38.596,171.359 41.797 C 168.332 44.357,164.000 48.773,164.000 49.300 C 164.000 49.523,163.661 50.000,163.246 50.360 C 161.710 51.692,157.070 60.682,156.206 64.000 C 156.063 64.550,155.757 65.630,155.526 66.400 C 153.968 71.594,153.966 81.785,155.523 88.200 C 156.584 92.574,159.966 100.423,161.412 101.869 C 161.706 102.164,162.062 102.764,162.201 103.202 C 162.340 103.641,162.610 104.000,162.800 104.000 C 162.990 104.000,163.253 104.336,163.383 104.748 C 163.782 106.003,171.117 113.074,174.147 115.124 C 189.957 125.822,210.010 125.855,225.787 115.209 C 228.998 113.042,236.800 105.520,236.800 104.592 C 236.800 104.266,236.942 104.000,237.115 104.000 C 237.412 104.000,238.977 101.559,240.704 98.400 C 251.005 79.562,245.272 54.445,227.558 40.800 C 224.338 38.320,216.338 34.286,213.200 33.560 C 212.430 33.382,210.990 33.040,210.000 32.799 C 205.839 31.787,200.018 31.482,195.000 32.014 M204.123 32.418 C 218.925 34.566,228.698 40.104,236.550 50.793 C 238.986 54.108,242.000 59.598,242.000 60.718 C 242.000 61.115,242.149 61.611,242.330 61.820 C 242.646 62.183,243.163 63.844,243.973 67.100 C 245.840 74.602,245.149 87.410,242.602 92.517 C 242.271 93.180,242.000 93.940,242.000 94.206 C 242.000 94.472,241.316 96.019,240.480 97.645 C 226.168 125.465,189.861 131.269,167.995 109.232 C 163.425 104.627,158.000 96.307,158.000 93.905 C 158.000 93.605,157.851 93.189,157.670 92.980 C 157.159 92.393,155.832 87.417,155.328 84.200 C 154.856 81.190,154.968 73.390,155.532 70.000 C 156.415 64.696,156.483 64.396,156.844 64.173 C 157.040 64.052,157.200 63.524,157.200 63.000 C 157.200 62.476,157.380 61.936,157.600 61.800 C 157.820 61.664,158.000 61.291,158.000 60.972 C 158.000 60.147,159.545 56.896,160.872 54.928 C 161.493 54.008,162.000 53.125,162.000 52.965 C 162.000 51.843,169.437 43.713,172.598 41.380 C 178.014 37.382,184.966 34.298,191.000 33.218 C 198.294 31.911,199.942 31.811,204.123 32.418 " stroke="none" fill="#ab243c" fill-rule="evenodd"></path><path id="path7" d="M198.900 31.487 C 199.505 31.578,200.495 31.578,201.100 31.487 C 201.705 31.395,201.210 31.320,200.000 31.320 C 198.790 31.320,198.295 31.395,198.900 31.487 M169.200 111.325 C 169.200 111.394,169.785 111.979,170.500 112.625 L 171.800 113.800 170.625 112.500 C 169.530 111.288,169.200 111.016,169.200 111.325 M197.700 123.496 C 198.965 123.575,201.035 123.575,202.300 123.496 C 203.565 123.416,202.530 123.351,200.000 123.351 C 197.470 123.351,196.435 123.416,197.700 123.496 M193.915 155.128 C 193.538 155.278,196.276 155.400,200.000 155.400 C 203.724 155.400,206.462 155.278,206.085 155.128 C 205.708 154.979,202.970 154.856,200.000 154.856 C 197.030 154.856,194.292 154.979,193.915 155.128 M189.600 156.000 C 188.842 156.490,190.070 156.490,191.600 156.000 C 192.580 155.686,192.576 155.679,191.400 155.646 C 190.740 155.627,189.930 155.787,189.600 156.000 M208.400 156.000 C 209.930 156.490,211.158 156.490,210.400 156.000 C 210.070 155.787,209.260 155.627,208.600 155.646 C 207.424 155.679,207.420 155.686,208.400 156.000 M185.400 157.200 C 184.253 157.731,184.036 157.949,184.633 157.970 C 185.092 157.987,185.601 157.865,185.766 157.700 C 185.931 157.535,186.726 157.194,187.533 156.942 C 188.719 156.572,188.808 156.482,188.000 156.472 C 187.450 156.465,186.280 156.793,185.400 157.200 M211.600 156.554 C 211.600 156.744,215.426 158.011,215.875 157.970 C 216.428 157.920,213.043 156.461,212.300 156.430 C 211.915 156.413,211.600 156.469,211.600 156.554 M180.842 159.012 C 179.655 159.565,178.779 160.112,178.895 160.228 C 179.011 160.344,179.763 160.070,180.565 159.620 C 181.368 159.169,182.278 158.800,182.589 158.800 C 182.899 158.800,183.264 158.620,183.400 158.400 C 183.784 157.779,183.181 157.923,180.842 159.012 M216.600 158.400 C 216.736 158.620,217.088 158.800,217.383 158.800 C 218.151 158.800,224.369 162.168,226.000 163.467 C 233.749 169.640,242.000 180.491,242.000 184.508 C 242.000 184.815,242.135 185.201,242.300 185.366 C 242.465 185.531,242.806 186.326,243.058 187.133 C 243.310 187.940,243.535 188.306,243.558 187.948 C 243.883 182.901,234.651 169.446,226.860 163.612 C 222.913 160.656,215.743 157.014,216.600 158.400 M176.499 161.382 C 171.110 164.464,163.575 172.125,161.041 177.100 C 159.955 179.233,160.542 178.593,162.750 175.239 C 165.414 171.191,171.191 165.414,175.239 162.750 C 177.988 160.940,178.714 160.385,178.300 160.405 C 178.245 160.407,177.435 160.847,176.499 161.382 M158.965 180.965 C 158.389 182.222,158.022 183.355,158.150 183.483 C 158.277 183.610,158.490 183.374,158.624 182.957 C 158.757 182.541,159.216 181.500,159.643 180.643 C 160.070 179.787,160.328 178.995,160.216 178.882 C 160.103 178.770,159.540 179.707,158.965 180.965 M157.079 185.650 C 156.705 186.627,156.414 187.781,156.432 188.213 C 156.453 188.758,156.585 188.631,156.861 187.800 C 157.080 187.140,157.446 186.213,157.676 185.739 C 157.905 185.266,158.017 184.652,157.925 184.376 C 157.833 184.099,157.452 184.672,157.079 185.650 M243.656 189.600 C 243.656 190.150,243.811 190.960,244.000 191.400 C 244.313 192.129,244.344 192.112,244.344 191.200 C 244.344 190.650,244.189 189.840,244.000 189.400 C 243.687 188.671,243.656 188.688,243.656 189.600 M155.873 189.753 C 155.723 190.145,155.616 190.946,155.636 191.533 C 155.670 192.528,155.698 192.509,156.057 191.263 C 156.473 189.819,156.323 188.582,155.873 189.753 M244.600 200.000 C 244.600 203.986,244.717 206.832,244.860 206.324 C 245.003 205.816,245.120 202.970,245.120 200.000 C 245.120 197.030,245.003 194.184,244.860 193.676 C 244.717 193.168,244.600 196.014,244.600 200.000 M155.052 194.100 C 154.725 195.320,154.788 205.228,155.128 206.085 C 155.278 206.462,155.400 203.717,155.400 199.985 C 155.400 196.253,155.376 193.200,155.347 193.200 C 155.317 193.200,155.185 193.605,155.052 194.100 M155.646 208.600 C 155.627 209.260,155.787 210.070,156.000 210.400 C 156.490 211.158,156.490 209.930,156.000 208.400 C 155.686 207.420,155.679 207.424,155.646 208.600 M243.778 209.378 C 243.627 210.181,243.604 210.937,243.726 211.060 C 243.848 211.182,244.072 210.625,244.222 209.822 C 244.373 209.019,244.396 208.263,244.274 208.140 C 244.152 208.018,243.928 208.575,243.778 209.378 M156.430 212.300 C 156.461 213.043,157.920 216.428,157.970 215.875 C 158.011 215.426,156.744 211.600,156.554 211.600 C 156.469 211.600,156.413 211.915,156.430 212.300 M243.006 212.904 C 242.843 213.732,242.550 214.507,242.355 214.628 C 242.160 214.749,242.000 215.118,242.000 215.449 C 242.000 216.470,237.852 224.565,236.799 225.600 C 236.687 225.710,236.066 226.520,235.418 227.400 C 233.903 229.459,229.459 233.903,227.400 235.418 C 226.520 236.066,225.710 236.687,225.600 236.799 C 224.592 237.825,216.478 242.000,215.492 242.000 C 215.185 242.000,214.799 242.135,214.634 242.300 C 214.469 242.465,213.674 242.806,212.867 243.058 C 212.060 243.310,211.694 243.535,212.052 243.558 C 215.516 243.781,226.662 237.310,231.986 231.986 C 237.391 226.582,244.385 214.384,243.492 211.922 C 243.388 211.635,243.169 212.077,243.006 212.904 M158.000 216.828 C 158.000 218.973,164.037 227.960,168.274 232.123 C 173.873 237.625,184.466 243.782,187.948 243.558 C 188.306 243.535,187.940 243.310,187.133 243.058 C 186.326 242.806,185.531 242.465,185.366 242.300 C 185.201 242.135,184.815 242.000,184.508 242.000 C 180.491 242.000,169.640 233.749,163.467 226.000 C 162.168 224.369,158.800 218.151,158.800 217.383 C 158.800 217.088,158.620 216.736,158.400 216.600 C 158.180 216.464,158.000 216.567,158.000 216.828 M189.400 244.000 C 189.840 244.189,190.650 244.344,191.200 244.344 C 192.112 244.344,192.129 244.313,191.400 244.000 C 190.960 243.811,190.150 243.656,189.600 243.656 C 188.688 243.656,188.671 243.687,189.400 244.000 M208.600 244.000 C 207.871 244.313,207.888 244.344,208.800 244.344 C 209.350 244.344,210.160 244.189,210.600 244.000 C 211.329 243.687,211.312 243.656,210.400 243.656 C 209.850 243.656,209.040 243.811,208.600 244.000 M193.676 244.860 C 194.184 245.003,197.030 245.120,200.000 245.120 C 202.970 245.120,205.816 245.003,206.324 244.860 C 206.832 244.717,203.986 244.600,200.000 244.600 C 196.014 244.600,193.168 244.717,193.676 244.860 " stroke="none" fill="#674f2d" fill-rule="evenodd"></path><path id="path8" d="M129.043 13.432 C 128.676 14.388,128.763 386.123,129.130 386.701 C 129.384 387.100,143.868 387.182,200.224 387.101 L 271.000 387.000 271.000 200.000 L 271.000 13.000 200.143 12.899 C 135.789 12.807,129.264 12.856,129.043 13.432 M270.600 200.000 L 270.600 386.600 200.000 386.600 L 129.400 386.600 129.300 200.224 C 129.219 51.387,129.300 13.784,129.700 13.529 C 129.975 13.354,161.790 13.253,200.400 13.305 L 270.600 13.400 270.600 200.000 M191.200 19.833 L 188.600 20.369 191.000 20.104 C 194.120 19.760,205.915 19.762,209.000 20.108 L 211.400 20.377 208.600 19.813 C 205.039 19.096,194.721 19.108,191.200 19.833 M186.600 20.669 C 179.892 22.150,164.003 29.888,164.000 31.675 C 164.000 31.827,165.692 30.819,167.761 29.436 C 173.235 25.776,178.467 23.372,184.800 21.605 C 188.392 20.603,189.492 20.031,186.600 20.669 M212.800 20.849 C 222.352 23.784,224.637 24.728,229.989 27.945 C 234.163 30.454,237.097 32.755,240.805 36.429 C 243.545 39.144,245.147 41.095,249.323 46.810 C 249.721 47.356,249.643 47.081,249.148 46.200 C 246.277 41.088,234.285 28.800,232.168 28.800 C 232.045 28.800,231.192 28.297,230.272 27.681 C 226.114 24.899,217.048 21.213,212.946 20.636 L 211.400 20.418 212.800 20.849 M196.400 31.600 C 195.576 31.864,195.541 31.926,196.200 31.954 C 196.640 31.973,197.270 31.813,197.600 31.600 C 198.301 31.147,197.814 31.147,196.400 31.600 M202.400 31.582 C 202.730 31.805,203.345 31.991,203.767 31.994 C 204.790 32.002,204.471 31.773,203.000 31.444 C 202.124 31.248,201.962 31.285,202.400 31.582 M159.293 35.900 C 153.966 41.173,150.965 45.258,147.845 51.487 C 146.015 55.140,146.732 54.346,148.906 50.313 C 151.836 44.873,154.972 40.719,159.687 36.030 C 161.916 33.814,163.626 32.000,163.487 32.000 C 163.348 32.000,161.461 33.755,159.293 35.900 M232.173 44.900 C 234.168 46.935,235.881 48.549,235.979 48.487 C 236.191 48.354,229.125 41.200,228.781 41.200 C 228.652 41.200,230.178 42.865,232.173 44.900 M165.004 47.196 C 164.374 47.854,163.935 48.456,164.029 48.534 C 164.123 48.612,164.713 48.074,165.339 47.338 C 166.754 45.677,166.545 45.588,165.004 47.196 M250.013 48.276 C 250.006 48.538,250.157 48.850,250.349 48.968 C 250.540 49.087,251.382 50.626,252.219 52.388 C 253.056 54.151,253.801 55.532,253.876 55.458 C 254.074 55.259,251.382 49.534,250.651 48.600 C 250.307 48.160,250.020 48.014,250.013 48.276 M162.604 50.396 C 161.974 51.054,161.542 51.675,161.644 51.777 C 161.746 51.879,162.326 51.341,162.932 50.581 C 164.287 48.883,164.136 48.797,162.604 50.396 M237.029 50.438 C 237.673 51.229,238.281 51.808,238.379 51.725 C 238.478 51.642,237.951 50.995,237.209 50.287 L 235.858 49.000 237.029 50.438 M254.012 56.400 C 254.012 56.730,254.187 57.270,254.400 57.600 C 254.745 58.133,254.788 58.133,254.788 57.600 C 254.788 57.270,254.613 56.730,254.400 56.400 C 254.055 55.867,254.012 55.867,254.012 56.400 M145.377 57.043 C 145.244 57.459,144.970 58.213,144.767 58.719 C 144.565 59.224,144.410 59.854,144.422 60.119 C 144.434 60.383,144.800 59.721,145.236 58.647 C 145.672 57.573,145.936 56.603,145.823 56.490 C 145.711 56.378,145.510 56.626,145.377 57.043 M254.828 58.676 C 254.918 59.715,255.544 60.596,255.572 59.724 C 255.587 59.242,255.420 58.736,255.200 58.600 C 254.980 58.464,254.813 58.498,254.828 58.676 M143.849 61.415 C 143.712 61.773,143.616 62.456,143.636 62.933 C 143.662 63.547,143.785 63.408,144.059 62.456 C 144.457 61.072,144.294 60.258,143.849 61.415 M255.634 61.200 C 255.646 61.530,255.811 62.160,256.000 62.600 L 256.344 63.400 256.366 62.600 C 256.378 62.160,256.213 61.530,256.000 61.200 C 255.655 60.667,255.615 60.667,255.634 61.200 M143.049 64.615 C 142.912 64.973,142.820 65.836,142.844 66.533 C 142.882 67.637,142.933 67.571,143.236 66.025 C 143.593 64.205,143.494 63.457,143.049 64.615 M256.680 65.491 C 256.990 67.500,257.200 67.661,257.200 65.890 C 257.200 65.097,257.031 64.343,256.824 64.215 C 256.599 64.076,256.541 64.591,256.680 65.491 M155.356 64.971 C 155.235 65.285,155.204 65.960,155.286 66.471 C 155.395 67.154,155.488 67.004,155.637 65.900 C 155.847 64.347,155.736 63.981,155.356 64.971 M244.352 65.687 C 244.537 66.798,244.593 66.855,244.719 66.054 C 244.801 65.533,244.703 64.943,244.501 64.741 C 244.279 64.519,244.221 64.893,244.352 65.687 M154.565 68.148 C 154.449 68.449,154.413 69.664,154.484 70.848 L 154.613 73.000 154.807 70.299 C 155.001 67.581,154.952 67.139,154.565 68.148 M245.193 69.719 L 245.385 71.800 245.518 70.046 C 245.591 69.081,245.505 68.144,245.326 67.965 C 245.147 67.785,245.087 68.575,245.193 69.719 M257.482 70.600 C 257.608 72.360,257.777 73.875,257.856 73.967 C 258.164 74.323,257.924 68.955,257.598 68.200 C 257.389 67.716,257.343 68.662,257.482 70.600 M142.256 68.884 C 142.121 69.388,142.036 71.150,142.066 72.800 L 142.121 75.800 142.409 72.000 C 142.709 68.053,142.673 67.328,142.256 68.884 M153.867 74.267 C 153.499 74.635,153.529 81.109,153.900 81.338 C 154.065 81.440,154.200 79.831,154.200 77.762 C 154.200 75.693,154.185 74.000,154.167 74.000 C 154.148 74.000,154.013 74.120,153.867 74.267 M245.997 77.882 C 245.889 79.907,245.943 81.420,246.117 81.245 C 246.292 81.069,246.380 79.412,246.314 77.563 L 246.194 74.200 245.997 77.882 M258.114 77.400 C 258.117 78.500,258.195 78.903,258.287 78.295 C 258.379 77.686,258.377 76.786,258.282 76.295 C 258.187 75.803,258.111 76.300,258.114 77.400 M142.060 82.200 C 142.058 83.960,142.202 85.760,142.380 86.200 C 142.562 86.650,142.623 85.427,142.519 83.400 C 142.279 78.720,142.064 78.159,142.060 82.200 M257.671 82.600 C 257.627 83.480,257.499 84.920,257.385 85.800 C 257.206 87.190,257.235 87.271,257.607 86.418 C 257.842 85.878,257.971 84.438,257.893 83.218 C 257.783 81.488,257.734 81.352,257.671 82.600 M154.446 84.476 C 154.421 85.728,154.535 86.836,154.700 86.938 C 154.865 87.040,154.946 86.286,154.880 85.262 C 154.693 82.341,154.497 81.986,154.446 84.476 M245.193 85.081 C 245.087 86.225,245.147 87.015,245.326 86.835 C 245.505 86.656,245.591 85.719,245.518 84.754 L 245.385 83.000 245.193 85.081 M142.806 88.433 C 142.809 89.185,142.992 90.070,143.212 90.400 C 143.491 90.819,143.533 90.458,143.350 89.200 C 143.025 86.959,142.798 86.640,142.806 88.433 M155.200 88.776 C 155.200 89.423,155.342 90.041,155.516 90.148 C 155.690 90.256,155.761 89.727,155.673 88.972 C 155.476 87.291,155.200 87.177,155.200 88.776 M256.859 88.400 C 256.820 88.950,256.689 89.850,256.567 90.400 C 256.376 91.262,256.408 91.302,256.797 90.691 C 257.046 90.302,257.177 89.402,257.089 88.691 C 256.964 87.687,256.913 87.622,256.859 88.400 M244.352 89.113 C 244.221 89.907,244.279 90.281,244.501 90.059 C 244.703 89.857,244.801 89.267,244.719 88.746 C 244.593 87.945,244.537 88.002,244.352 89.113 M143.646 92.000 C 143.627 92.550,143.787 93.270,144.000 93.600 C 144.494 94.364,144.494 93.542,144.000 92.000 L 143.680 91.000 143.646 92.000 M255.677 93.259 C 255.423 94.270,255.095 95.435,254.948 95.848 C 254.775 96.339,254.817 96.461,255.072 96.200 C 255.636 95.620,256.528 92.585,256.319 91.957 C 256.221 91.662,255.932 92.248,255.677 93.259 M144.422 94.905 C 144.410 95.293,144.567 95.923,144.771 96.305 C 144.975 96.687,145.249 97.341,145.380 97.757 C 145.511 98.174,145.711 98.422,145.823 98.310 C 145.936 98.197,145.672 97.227,145.236 96.153 C 144.800 95.079,144.434 94.517,144.422 94.905 M254.200 97.600 C 254.050 98.073,254.017 98.550,254.127 98.660 C 254.237 98.770,254.450 98.473,254.600 98.000 C 254.750 97.527,254.783 97.050,254.673 96.940 C 254.563 96.830,254.350 97.127,254.200 97.600 M146.000 99.222 C 146.000 102.709,155.726 116.343,161.738 121.284 C 162.936 122.268,162.179 121.360,159.933 119.118 C 154.946 114.139,151.425 109.364,148.414 103.497 C 147.086 100.910,146.000 98.986,146.000 99.222 M252.278 102.278 C 251.471 103.964,250.892 105.426,250.993 105.526 C 251.094 105.627,251.821 104.314,252.609 102.609 C 253.396 100.903,253.975 99.441,253.894 99.361 C 253.813 99.280,253.086 100.593,252.278 102.278 M248.486 109.100 C 242.324 118.568,230.311 128.457,221.600 131.231 C 218.737 132.143,215.063 133.556,215.501 133.577 C 217.148 133.654,225.744 129.999,230.250 127.305 C 237.646 122.883,246.122 114.387,250.005 107.500 C 251.433 104.968,250.613 105.832,248.486 109.100 M177.200 117.379 C 177.200 117.489,177.740 117.859,178.400 118.200 C 179.060 118.541,179.600 118.731,179.600 118.621 C 179.600 118.511,179.060 118.141,178.400 117.800 C 177.740 117.459,177.200 117.269,177.200 117.379 M164.000 123.134 C 164.000 123.286,164.720 123.856,165.600 124.400 C 166.480 124.944,167.200 125.526,167.200 125.694 C 167.200 125.862,167.393 126.000,167.628 126.000 C 167.863 126.000,168.808 126.516,169.728 127.146 C 172.197 128.839,177.600 131.492,177.600 131.012 C 177.600 130.919,176.237 130.205,174.571 129.425 C 172.906 128.645,169.846 126.848,167.771 125.431 C 165.697 124.015,164.000 122.981,164.000 123.134 M179.800 132.065 C 181.902 132.928,186.857 134.400,187.662 134.400 C 188.732 134.400,187.508 133.909,184.743 133.230 C 183.124 132.832,181.103 132.212,180.251 131.853 C 179.399 131.494,178.499 131.210,178.251 131.222 C 178.003 131.234,178.700 131.613,179.800 132.065 M212.600 134.000 L 211.800 134.344 212.600 134.344 C 213.040 134.344,213.760 134.189,214.200 134.000 L 215.000 133.656 214.200 133.656 C 213.760 133.656,213.040 133.811,212.600 134.000 M189.600 134.800 C 190.150 134.976,191.140 135.120,191.800 135.120 C 192.967 135.120,192.972 135.111,192.000 134.800 C 191.450 134.624,190.460 134.480,189.800 134.480 C 188.633 134.480,188.628 134.489,189.600 134.800 M208.000 134.800 C 207.028 135.111,207.033 135.120,208.200 135.120 C 208.860 135.120,209.850 134.976,210.400 134.800 C 211.372 134.489,211.367 134.480,210.200 134.480 C 209.540 134.480,208.550 134.624,208.000 134.800 M196.700 135.577 C 198.515 135.716,201.485 135.716,203.300 135.577 C 205.826 135.383,205.052 135.324,200.000 135.324 C 194.948 135.324,194.174 135.383,196.700 135.577 M199.300 141.876 C 199.685 141.976,200.315 141.976,200.700 141.876 C 201.085 141.775,200.770 141.693,200.000 141.693 C 199.230 141.693,198.915 141.775,199.300 141.876 M191.200 142.400 C 190.650 142.576,189.536 142.738,188.724 142.760 C 187.912 142.782,187.132 142.987,186.990 143.216 C 186.829 143.477,187.082 143.558,187.666 143.435 C 189.670 143.011,194.297 142.375,196.200 142.263 C 197.404 142.191,197.006 142.131,195.200 142.112 C 193.550 142.094,191.750 142.224,191.200 142.400 M205.200 142.406 C 207.070 142.588,209.669 142.927,210.975 143.160 C 213.230 143.561,214.750 143.459,212.747 143.041 C 210.127 142.494,208.702 142.333,205.400 142.209 L 201.800 142.074 205.200 142.406 M183.800 144.000 C 183.505 144.478,184.289 144.478,185.400 144.000 C 186.114 143.693,186.085 143.653,185.124 143.628 C 184.532 143.613,183.936 143.780,183.800 144.000 M216.184 144.404 C 217.495 144.823,218.646 145.087,218.741 144.992 C 218.837 144.897,218.574 144.710,218.157 144.577 C 217.741 144.444,216.987 144.170,216.481 143.967 C 215.976 143.765,215.166 143.610,214.681 143.622 C 214.197 143.633,214.873 143.986,216.184 144.404 M181.400 144.800 C 181.108 145.273,181.499 145.273,182.600 144.800 C 183.371 144.469,183.369 144.455,182.524 144.428 C 182.042 144.413,181.536 144.580,181.400 144.800 M219.800 145.600 C 220.901 146.073,221.292 146.073,221.000 145.600 C 220.864 145.380,220.358 145.213,219.876 145.228 C 219.031 145.255,219.029 145.269,219.800 145.600 M173.741 147.971 C 164.977 152.535,157.724 158.857,152.217 166.734 C 149.898 170.051,145.982 177.258,146.020 178.138 C 146.031 178.392,146.923 176.848,148.001 174.707 C 153.997 162.805,162.805 153.997,174.707 148.001 C 176.848 146.923,178.330 146.046,178.000 146.053 C 177.670 146.059,175.753 146.923,173.741 147.971 M224.787 147.669 C 226.649 148.549,228.685 149.633,229.310 150.078 C 229.935 150.523,230.535 150.798,230.644 150.689 C 231.026 150.307,222.754 145.953,221.801 146.034 C 221.581 146.053,222.924 146.789,224.787 147.669 M231.217 151.054 C 231.227 151.244,232.262 152.074,233.517 152.898 C 236.461 154.830,239.937 157.874,242.818 161.041 C 244.962 163.398,248.400 167.923,248.400 168.389 C 248.400 168.615,248.535 168.801,248.700 168.803 C 249.036 168.807,249.141 168.994,251.968 174.600 C 253.077 176.800,253.984 178.330,253.984 178.000 C 253.979 175.442,246.661 164.385,241.552 159.217 C 237.395 155.012,231.169 150.095,231.217 151.054 M195.507 154.690 C 196.226 154.779,197.306 154.777,197.907 154.686 C 198.508 154.595,197.920 154.522,196.600 154.524 C 195.280 154.526,194.788 154.601,195.507 154.690 M202.307 154.690 C 203.026 154.779,204.106 154.777,204.707 154.686 C 205.308 154.595,204.720 154.522,203.400 154.524 C 202.080 154.526,201.588 154.601,202.307 154.690 M170.575 165.300 L 169.400 166.600 170.700 165.425 C 171.912 164.330,172.184 164.000,171.875 164.000 C 171.806 164.000,171.221 164.585,170.575 165.300 M232.000 167.800 C 233.195 169.010,234.263 170.000,234.373 170.000 C 234.483 170.000,233.595 169.010,232.400 167.800 C 231.205 166.590,230.137 165.600,230.027 165.600 C 229.917 165.600,230.805 166.590,232.000 167.800 M167.578 167.900 L 166.200 169.400 167.700 168.022 C 169.096 166.738,169.384 166.400,169.078 166.400 C 169.012 166.400,168.337 167.075,167.578 167.900 M164.975 170.900 L 163.800 172.200 165.100 171.025 C 165.815 170.379,166.400 169.794,166.400 169.725 C 166.400 169.416,166.070 169.688,164.975 170.900 M254.000 178.849 C 254.000 179.436,255.317 182.816,255.482 182.652 C 255.703 182.430,254.792 179.585,254.318 179.020 C 254.143 178.811,254.000 178.734,254.000 178.849 M144.667 181.467 C 144.520 181.613,144.411 182.108,144.425 182.567 C 144.449 183.333,144.482 183.323,144.834 182.442 C 145.226 181.463,145.144 180.989,144.667 181.467 M255.634 183.600 C 255.646 183.930,255.811 184.560,256.000 185.000 L 256.344 185.800 256.366 185.000 C 256.378 184.560,256.213 183.930,256.000 183.600 C 255.655 183.067,255.615 183.067,255.634 183.600 M143.892 183.842 C 143.731 184.002,143.611 184.598,143.625 185.167 L 143.651 186.200 144.037 185.234 C 144.453 184.194,144.367 183.367,143.892 183.842 M256.638 187.800 C 256.970 189.784,257.202 190.104,257.194 188.567 C 257.191 187.925,257.004 187.130,256.779 186.800 C 256.486 186.370,256.446 186.654,256.638 187.800 M143.037 187.243 C 142.684 188.322,142.384 191.038,142.225 194.600 L 142.064 198.200 142.402 194.800 C 142.588 192.930,142.916 190.410,143.130 189.200 C 143.496 187.134,143.442 186.003,143.037 187.243 M257.477 193.200 C 257.606 194.850,257.776 196.275,257.856 196.367 C 258.166 196.725,257.923 191.753,257.594 191.000 C 257.378 190.506,257.333 191.347,257.477 193.200 M154.524 196.600 C 154.526 197.920,154.601 198.412,154.690 197.693 C 154.779 196.974,154.777 195.894,154.686 195.293 C 154.595 194.692,154.522 195.280,154.524 196.600 M245.293 195.600 C 245.293 196.370,245.375 196.685,245.476 196.300 C 245.576 195.915,245.576 195.285,245.476 194.900 C 245.375 194.515,245.293 194.830,245.293 195.600 M258.120 200.000 C 258.120 201.210,258.195 201.705,258.287 201.100 C 258.378 200.495,258.378 199.505,258.287 198.900 C 258.195 198.295,258.120 198.790,258.120 200.000 M141.693 200.000 C 141.693 200.770,141.775 201.085,141.876 200.700 C 141.976 200.315,141.976 199.685,141.876 199.300 C 141.775 198.915,141.693 199.230,141.693 200.000 M154.524 203.400 C 154.526 204.720,154.601 205.212,154.690 204.493 C 154.779 203.774,154.777 202.694,154.686 202.093 C 154.595 201.492,154.522 202.080,154.524 203.400 M142.209 205.400 C 142.333 208.702,142.494 210.127,143.041 212.747 C 143.459 214.750,143.561 213.230,143.160 210.975 C 142.927 209.669,142.588 207.070,142.406 205.200 L 142.074 201.800 142.209 205.400 M245.264 204.267 C 245.229 204.964,245.096 205.864,244.970 206.267 C 244.753 206.959,244.765 206.960,245.194 206.291 C 245.445 205.902,245.577 205.002,245.489 204.291 L 245.328 203.000 245.264 204.267 M257.676 205.250 C 257.634 206.268,257.505 207.707,257.389 208.450 C 257.197 209.682,257.216 209.714,257.607 208.818 C 257.842 208.278,257.971 206.838,257.893 205.618 C 257.755 203.465,257.749 203.455,257.676 205.250 M244.446 209.267 C 244.421 209.634,244.296 210.264,244.170 210.667 C 243.952 211.362,243.963 211.363,244.397 210.687 C 244.648 210.296,244.773 209.666,244.673 209.287 C 244.511 208.668,244.488 208.666,244.446 209.267 M256.854 211.000 C 256.819 211.440,256.689 212.250,256.567 212.800 C 256.375 213.663,256.407 213.703,256.798 213.090 C 257.047 212.699,257.177 211.889,257.086 211.290 C 256.978 210.579,256.897 210.479,256.854 211.000 M143.622 214.681 C 143.610 215.166,143.765 215.976,143.967 216.481 C 144.170 216.987,144.444 217.741,144.577 218.157 C 144.710 218.574,144.897 218.837,144.992 218.741 C 145.087 218.646,144.823 217.495,144.404 216.184 C 143.986 214.873,143.633 214.197,143.622 214.681 M255.829 215.429 C 255.681 216.015,255.651 216.584,255.761 216.694 C 255.871 216.804,256.081 216.415,256.229 215.829 C 256.376 215.242,256.406 214.673,256.296 214.563 C 256.186 214.453,255.976 214.842,255.829 215.429 M254.677 219.077 C 254.300 220.093,254.079 221.013,254.187 221.120 C 254.294 221.227,254.492 220.974,254.628 220.557 C 254.764 220.141,255.062 219.299,255.291 218.687 C 255.520 218.075,255.630 217.497,255.535 217.401 C 255.440 217.306,255.054 218.060,254.677 219.077 M145.228 219.876 C 145.213 220.358,145.380 220.864,145.600 221.000 C 146.073 221.292,146.073 220.901,145.600 219.800 C 145.269 219.029,145.255 219.031,145.228 219.876 M146.020 221.804 C 145.868 224.865,159.590 243.979,161.957 244.002 C 162.090 244.004,160.490 242.243,158.400 240.089 C 154.177 235.736,150.948 231.142,148.001 225.293 C 146.923 223.152,146.031 221.582,146.020 221.804 M253.090 223.208 C 252.237 225.379,248.510 232.127,247.637 233.081 C 247.275 233.476,246.540 234.430,246.004 235.200 C 244.560 237.277,241.542 240.448,237.046 244.613 C 236.801 244.840,235.970 245.468,235.200 246.007 C 234.430 246.547,233.480 247.261,233.088 247.594 C 231.990 248.529,228.956 250.261,225.000 252.210 C 223.020 253.185,221.629 253.987,221.909 253.992 C 224.574 254.035,235.886 246.552,241.219 241.219 C 246.642 235.796,254.530 223.790,253.904 221.911 C 253.827 221.681,253.461 222.264,253.090 223.208 M231.988 232.300 L 229.400 235.000 232.100 232.412 C 233.585 230.988,234.800 229.773,234.800 229.712 C 234.800 229.417,234.393 229.792,231.988 232.300 M167.600 232.200 C 168.795 233.410,169.863 234.400,169.973 234.400 C 170.083 234.400,169.195 233.410,168.000 232.200 C 166.805 230.990,165.737 230.000,165.627 230.000 C 165.517 230.000,166.405 230.990,167.600 232.200 M209.600 244.400 C 208.776 244.664,208.741 244.726,209.400 244.754 C 209.840 244.773,210.470 244.613,210.800 244.400 C 211.501 243.947,211.014 243.947,209.600 244.400 M162.871 244.900 C 165.580 247.462,175.691 253.642,176.254 253.080 C 176.349 252.985,175.386 252.402,174.113 251.784 C 171.553 250.542,164.314 245.860,163.574 244.968 C 163.314 244.656,162.931 244.400,162.722 244.400 C 162.514 244.400,162.581 244.625,162.871 244.900 M204.600 245.200 L 203.000 245.486 204.400 245.537 C 205.170 245.565,206.070 245.413,206.400 245.200 C 207.055 244.777,206.962 244.777,204.600 245.200 M194.900 245.476 C 195.285 245.576,195.915 245.576,196.300 245.476 C 196.685 245.375,196.370 245.293,195.600 245.293 C 194.830 245.293,194.515 245.375,194.900 245.476 M179.020 254.318 C 179.585 254.792,182.430 255.703,182.652 255.482 C 182.757 255.376,181.992 255.000,180.950 254.645 C 178.819 253.919,178.473 253.860,179.020 254.318 M218.800 254.800 C 217.810 255.215,217.180 255.563,217.400 255.572 C 217.950 255.594,220.722 254.611,221.059 254.274 C 221.520 253.814,220.690 254.007,218.800 254.800 M183.600 256.000 C 183.930 256.213,184.560 256.378,185.000 256.366 L 185.800 256.344 185.000 256.000 C 183.804 255.486,182.805 255.486,183.600 256.000 M215.000 256.000 L 214.200 256.344 215.000 256.366 C 215.440 256.378,216.070 256.213,216.400 256.000 C 217.195 255.486,216.196 255.486,215.000 256.000 M186.800 256.779 C 187.130 257.004,187.925 257.191,188.567 257.194 C 190.104 257.202,189.784 256.970,187.800 256.638 C 186.654 256.446,186.370 256.486,186.800 256.779 M211.400 256.800 L 210.200 257.105 211.400 257.147 C 212.060 257.169,212.870 257.013,213.200 256.800 C 213.943 256.320,213.287 256.320,211.400 256.800 M191.000 257.594 C 191.753 257.923,196.725 258.166,196.367 257.856 C 196.275 257.776,194.850 257.606,193.200 257.477 C 191.347 257.333,190.506 257.378,191.000 257.594 M205.800 257.600 L 203.400 257.866 205.800 257.905 C 207.120 257.926,208.560 257.789,209.000 257.600 L 209.800 257.256 209.000 257.295 C 208.560 257.317,207.120 257.454,205.800 257.600 M198.900 258.287 C 199.505 258.378,200.495 258.378,201.100 258.287 C 201.705 258.195,201.210 258.120,200.000 258.120 C 198.790 258.120,198.295 258.195,198.900 258.287 M197.200 264.431 C 195.402 264.591,196.326 264.669,200.200 264.685 C 205.821 264.707,206.676 264.553,202.200 264.323 C 200.880 264.255,198.630 264.304,197.200 264.431 M190.000 265.200 C 189.028 265.511,189.033 265.520,190.200 265.520 C 190.860 265.520,191.850 265.376,192.400 265.200 C 193.372 264.889,193.367 264.880,192.200 264.880 C 191.540 264.880,190.550 265.024,190.000 265.200 M207.800 265.200 C 208.460 265.368,209.450 265.509,210.000 265.513 L 211.000 265.520 210.000 265.200 C 209.450 265.024,208.460 264.883,207.800 264.887 L 206.600 264.895 207.800 265.200 M186.200 266.000 L 185.400 266.344 186.200 266.344 C 186.640 266.344,187.360 266.189,187.800 266.000 L 188.600 265.656 187.800 265.656 C 187.360 265.656,186.640 265.811,186.200 266.000 M212.200 266.000 C 212.640 266.189,213.360 266.344,213.800 266.344 L 214.600 266.344 213.800 266.000 C 213.360 265.811,212.640 265.656,212.200 265.656 L 211.400 265.656 212.200 266.000 M182.075 267.073 C 181.126 267.409,180.431 267.764,180.530 267.863 C 180.629 267.962,181.765 267.686,183.055 267.250 C 184.345 266.814,185.040 266.458,184.600 266.460 C 184.160 266.462,183.024 266.738,182.075 267.073 M215.400 266.800 C 215.840 266.989,216.560 267.144,217.000 267.144 L 217.800 267.144 217.000 266.800 C 216.560 266.611,215.840 266.456,215.400 266.456 L 214.600 266.456 215.400 266.800 M219.400 267.971 C 220.280 268.394,221.270 268.739,221.600 268.738 C 222.284 268.734,220.305 267.825,218.800 267.450 C 218.250 267.314,218.520 267.548,219.400 267.971 M178.400 268.400 C 177.867 268.745,177.867 268.788,178.400 268.788 C 178.730 268.788,179.270 268.613,179.600 268.400 C 180.133 268.055,180.133 268.012,179.600 268.012 C 179.270 268.012,178.730 268.187,178.400 268.400 M173.800 270.547 C 168.538 273.381,167.207 274.183,167.203 274.524 C 167.200 274.882,167.474 274.743,169.800 273.207 C 170.680 272.626,172.795 271.471,174.500 270.641 C 177.360 269.248,178.073 268.782,177.300 268.812 C 177.135 268.818,175.560 269.599,173.800 270.547 M222.400 268.984 C 222.400 269.085,223.615 269.727,225.100 270.410 C 227.920 271.708,231.940 274.148,234.500 276.115 C 235.325 276.749,235.993 277.117,235.985 276.934 C 235.936 275.864,222.400 267.943,222.400 268.984 M165.305 275.725 C 164.593 276.206,164.008 276.744,164.005 276.920 C 164.002 277.097,164.630 276.760,165.400 276.173 C 166.170 275.586,166.800 275.036,166.800 274.953 C 166.800 274.727,166.719 274.769,165.305 275.725 M197.300 277.097 C 198.785 277.174,201.215 277.174,202.700 277.097 C 204.185 277.020,202.970 276.957,200.000 276.957 C 197.030 276.957,195.815 277.020,197.300 277.097 M160.280 280.028 C 157.112 282.948,152.414 288.491,151.320 290.600 C 150.495 292.193,150.696 291.968,153.521 288.148 C 154.844 286.359,157.680 283.164,159.824 281.048 C 164.406 276.525,164.633 276.018,160.280 280.028 M240.208 281.017 C 244.441 285.224,247.427 288.969,249.848 293.109 C 250.655 294.489,251.390 295.543,251.481 295.453 C 252.226 294.708,244.554 284.519,239.916 280.095 C 236.104 276.458,236.325 277.158,240.208 281.017 M190.705 277.883 C 191.202 277.979,191.922 277.975,192.305 277.875 C 192.687 277.775,192.280 277.696,191.400 277.701 C 190.520 277.705,190.207 277.787,190.705 277.883 M207.905 277.883 C 208.402 277.979,209.122 277.975,209.505 277.875 C 209.887 277.775,209.480 277.696,208.600 277.701 C 207.720 277.705,207.407 277.787,207.905 277.883 M176.300 283.429 C 174.805 284.240,174.896 284.578,176.400 283.800 C 177.060 283.459,177.600 283.094,177.600 282.990 C 177.600 282.732,177.557 282.747,176.300 283.429 M226.174 285.282 C 226.820 285.787,228.080 286.825,228.974 287.589 C 230.292 288.714,230.411 288.763,229.600 287.846 C 229.050 287.224,227.790 286.186,226.800 285.540 C 225.810 284.894,225.528 284.778,226.174 285.282 M170.000 288.200 C 169.028 289.190,168.323 290.000,168.433 290.000 C 168.543 290.000,169.428 289.190,170.400 288.200 C 171.372 287.210,172.077 286.400,171.967 286.400 C 171.857 286.400,170.972 287.210,170.000 288.200 M166.000 292.200 C 165.028 293.190,164.323 294.000,164.433 294.000 C 164.543 294.000,165.428 293.190,166.400 292.200 C 167.372 291.210,168.077 290.400,167.967 290.400 C 167.857 290.400,166.972 291.210,166.000 292.200 M149.534 293.500 C 148.334 295.351,145.926 300.413,146.084 300.752 C 146.148 300.888,147.221 298.975,148.468 296.500 C 150.874 291.727,151.106 291.075,149.534 293.500 M235.113 293.800 C 238.182 297.509,238.471 297.806,237.188 295.932 C 236.485 294.904,235.358 293.554,234.684 292.932 C 233.782 292.099,233.895 292.328,235.113 293.800 M162.093 297.100 C 161.057 298.596,160.721 299.200,160.923 299.200 C 161.017 299.200,161.570 298.480,162.153 297.600 C 163.336 295.812,163.284 295.379,162.093 297.100 M251.619 296.300 C 251.646 296.736,253.959 301.054,253.981 300.712 C 254.009 300.293,252.011 296.000,251.788 296.000 C 251.685 296.000,251.608 296.135,251.619 296.300 M159.516 301.300 C 158.878 302.296,158.343 303.600,158.572 303.600 C 158.653 303.600,159.095 302.880,159.553 302.000 C 160.460 300.260,160.439 299.858,159.516 301.300 M240.473 301.875 C 241.179 303.535,241.694 303.988,241.171 302.490 C 240.924 301.780,240.558 301.097,240.358 300.974 C 240.158 300.850,240.209 301.256,240.473 301.875 M254.012 301.600 C 254.012 301.930,254.187 302.470,254.400 302.800 C 254.745 303.333,254.788 303.333,254.788 302.800 C 254.788 302.470,254.613 301.930,254.400 301.600 C 254.055 301.067,254.012 301.067,254.012 301.600 M145.380 302.243 C 145.249 302.659,144.975 303.313,144.771 303.695 C 144.567 304.077,144.410 304.707,144.422 305.095 C 144.434 305.483,144.800 304.921,145.236 303.847 C 145.672 302.773,145.936 301.803,145.823 301.690 C 145.711 301.578,145.511 301.826,145.380 302.243 M254.828 303.876 C 254.918 304.915,255.544 305.796,255.572 304.924 C 255.587 304.442,255.420 303.936,255.200 303.800 C 254.980 303.664,254.813 303.698,254.828 303.876 M143.849 306.615 C 143.712 306.973,143.616 307.656,143.636 308.133 C 143.662 308.747,143.785 308.608,144.059 307.656 C 144.457 306.272,144.294 305.458,143.849 306.615 M255.634 306.400 C 255.646 306.730,255.811 307.360,256.000 307.800 L 256.344 308.600 256.366 307.800 C 256.378 307.360,256.213 306.730,256.000 306.400 C 255.655 305.867,255.615 305.867,255.634 306.400 M143.049 309.815 C 142.912 310.173,142.820 311.036,142.844 311.733 C 142.882 312.837,142.933 312.771,143.236 311.225 C 143.593 309.405,143.494 308.657,143.049 309.815 M256.638 310.600 C 256.970 312.584,257.202 312.904,257.194 311.367 C 257.191 310.725,257.004 309.930,256.779 309.600 C 256.486 309.170,256.446 309.454,256.638 310.600 M257.477 315.600 C 257.606 317.250,257.776 318.675,257.856 318.767 C 258.166 319.125,257.923 314.153,257.594 313.400 C 257.378 312.906,257.333 313.747,257.477 315.600 M142.256 314.084 C 142.121 314.588,142.036 316.350,142.066 318.000 L 142.121 321.000 142.409 317.200 C 142.709 313.253,142.673 312.528,142.256 314.084 M258.114 322.600 C 258.117 323.700,258.195 324.103,258.287 323.495 C 258.379 322.886,258.377 321.986,258.282 321.495 C 258.187 321.003,258.111 321.500,258.114 322.600 M141.693 322.800 C 141.693 323.570,141.775 323.885,141.876 323.500 C 141.976 323.115,141.976 322.485,141.876 322.100 C 141.775 321.715,141.693 322.030,141.693 322.800 M142.028 327.633 C 142.044 329.265,142.202 330.960,142.380 331.400 C 142.560 331.845,142.613 330.602,142.499 328.600 C 142.247 324.165,141.990 323.638,142.028 327.633 M257.673 327.600 C 257.628 328.590,257.499 330.120,257.385 331.000 C 257.207 332.389,257.236 332.471,257.607 331.619 C 257.842 331.080,257.971 329.550,257.894 328.219 C 257.777 326.202,257.741 326.099,257.673 327.600 M142.806 333.633 C 142.809 334.385,142.992 335.270,143.212 335.600 C 143.491 336.019,143.533 335.658,143.350 334.400 C 143.025 332.159,142.798 331.840,142.806 333.633 M256.864 333.667 C 256.829 334.254,256.684 335.064,256.541 335.467 C 256.343 336.029,256.396 336.095,256.770 335.751 C 257.044 335.499,257.186 334.709,257.093 333.951 C 256.959 332.853,256.916 332.800,256.864 333.667 M143.646 337.200 C 143.627 337.750,143.787 338.470,144.000 338.800 C 144.494 339.564,144.494 338.742,144.000 337.200 L 143.680 336.200 143.646 337.200 M255.862 337.747 C 255.697 338.378,255.656 338.989,255.771 339.104 C 256.093 339.427,256.487 338.138,256.315 337.323 C 256.203 336.790,256.084 336.901,255.862 337.747 M144.422 340.105 C 144.410 340.493,144.567 341.123,144.771 341.505 C 144.975 341.887,145.249 342.541,145.380 342.957 C 145.511 343.374,145.711 343.622,145.823 343.510 C 145.936 343.397,145.672 342.427,145.236 341.353 C 144.800 340.279,144.434 339.717,144.422 340.105 M255.246 339.867 C 255.221 340.124,255.084 340.664,254.941 341.067 C 254.740 341.636,254.794 341.697,255.179 341.342 C 255.452 341.091,255.589 340.551,255.484 340.142 C 255.379 339.734,255.272 339.610,255.246 339.867 M254.200 342.800 C 254.050 343.273,254.017 343.750,254.127 343.860 C 254.237 343.970,254.450 343.673,254.600 343.200 C 254.750 342.727,254.783 342.250,254.673 342.140 C 254.563 342.030,254.350 342.327,254.200 342.800 M146.000 344.312 C 146.000 344.955,148.425 349.877,150.183 352.800 C 155.069 360.927,163.239 368.791,171.778 373.588 C 174.696 375.226,173.533 374.151,170.282 372.204 C 160.909 366.591,153.402 358.504,148.408 348.645 C 147.084 346.029,146.000 344.079,146.000 344.312 M251.883 348.317 C 250.846 350.453,250.287 351.840,250.640 351.400 C 251.384 350.472,254.108 344.774,253.904 344.571 C 253.829 344.495,252.919 346.181,251.883 348.317 M234.975 351.700 L 233.800 353.000 235.100 351.825 C 235.815 351.179,236.400 350.594,236.400 350.525 C 236.400 350.216,236.070 350.488,234.975 351.700 M164.000 350.925 C 164.000 350.994,164.585 351.579,165.300 352.225 L 166.600 353.400 165.425 352.100 C 164.330 350.888,164.000 350.616,164.000 350.925 M248.199 354.700 C 243.641 361.625,237.006 367.898,229.400 372.473 C 227.640 373.532,226.369 374.399,226.576 374.399 C 228.342 374.403,239.093 366.374,242.591 362.440 C 243.256 361.691,244.137 360.701,244.548 360.240 C 246.366 358.200,250.318 352.400,249.889 352.400 C 249.792 352.400,249.032 353.435,248.199 354.700 M169.600 356.525 C 169.600 356.594,170.185 357.179,170.900 357.825 L 172.200 359.000 171.025 357.700 C 169.930 356.488,169.600 356.216,169.600 356.525 M197.500 368.296 C 198.875 368.374,201.125 368.374,202.500 368.296 C 203.875 368.218,202.750 368.154,200.000 368.154 C 197.250 368.154,196.125 368.218,197.500 368.296 M174.000 374.580 C 174.000 374.980,180.634 377.790,183.200 378.478 C 196.219 381.967,208.035 381.649,219.600 377.498 C 222.083 376.607,226.000 374.823,226.000 374.583 C 226.000 374.393,224.760 374.815,224.200 375.197 C 223.980 375.347,222.720 375.876,221.400 376.374 C 220.080 376.871,218.640 377.428,218.200 377.610 C 217.201 378.025,211.403 379.388,208.176 379.966 C 205.068 380.523,194.703 380.528,191.931 379.975 C 184.894 378.570,179.701 377.090,177.103 375.749 C 175.658 375.003,174.000 374.379,174.000 374.580 " stroke="none" fill="#3c343c" fill-rule="evenodd"></path></g></svg>